<?xml version="1.0" encoding="UTF-8" standalone="no"?>
<!-- Created with Inkscape (http://www.inkscape.org/) -->

<svg
   width="210mm"
   height="297mm"
   viewBox="0 0 210 297"
   version="1.1"
   id="svg5"
   xml:space="preserve"
   inkscape:version="1.2.2 (b0a8486541, 2022-12-01)"
   sodipodi:docname="griciele.svg"
   xmlns:inkscape="http://www.inkscape.org/namespaces/inkscape"
   xmlns:sodipodi="http://sodipodi.sourceforge.net/DTD/sodipodi-0.dtd"
   xmlns="http://www.w3.org/2000/svg"
   xmlns:svg="http://www.w3.org/2000/svg"><sodipodi:namedview
     id="namedview7"
     pagecolor="#ffffff"
     bordercolor="#000000"
     borderopacity="0.25"
     inkscape:showpageshadow="2"
     inkscape:pageopacity="0.0"
     inkscape:pagecheckerboard="0"
     inkscape:deskcolor="#d1d1d1"
     inkscape:document-units="mm"
     showgrid="false"
     showguides="false"
     inkscape:zoom="0.77242651"
     inkscape:cx="348.25319"
     inkscape:cy="523.67441"
     inkscape:window-width="1920"
     inkscape:window-height="1012"
     inkscape:window-x="0"
     inkscape:window-y="29"
     inkscape:window-maximized="1"
     inkscape:current-layer="layer1" /><defs
     id="defs2" /><g
     inkscape:label="Camada 1"
     inkscape:groupmode="layer"
     id="layer1"><g
       id="g1460"
       transform="translate(-78.594214,15.414088)"><path
         id="path304"
         style="display:inline;fill:#ffc900;fill-opacity:1;stroke-width:0.124242"
         d="m 155.91536,40.185954 c 0.0456,-0.130163 -2.80954,4.378834 -6.34458,10.019693 -3.53522,5.640874 -6.51157,10.343158 -6.61396,10.449301 -0.038,0.03942 -0.10641,0.06135 -0.21726,0.06503 -0.0215,0.02916 -0.0418,0.0591 -0.0635,0.08814 1.24319,0.263234 2.55403,0.532157 3.68865,0.760286 0.007,-0.0029 0.0128,-0.0064 0.0195,-0.0095 0.0263,-0.013 0.0526,-0.02606 0.0789,-0.03911 0.0355,-0.01837 0.0723,-0.0331 0.10935,-0.04747 0.0442,-0.01765 0.0907,-0.02856 0.13715,-0.03823 0.43422,-0.328411 2.95928,-1.545441 3.05441,-1.450314 0.0496,0.04949 -0.0498,0.527254 -0.22066,1.061693 -0.17096,0.534434 -0.37934,0.986324 -0.46321,1.004066 -0.003,5.97e-4 -0.0138,-5.95e-4 -0.0175,-3.04e-4 0.007,0.01401 0.0114,0.02827 0.0175,0.04252 4.39099,0.818386 4.7187,0.849767 4.92295,0.570444 0.0207,-0.02838 0.0397,-0.05928 0.0585,-0.08998 0.0136,-0.114443 0.0333,-0.227832 0.0659,-0.338693 0.007,-0.01956 0.014,-0.04223 0.021,-0.06379 0.0215,-0.0802 0.0475,-0.159011 0.0804,-0.235454 0.0357,-0.07609 0.075,-0.15056 0.11798,-0.222507 0.21941,-0.618319 1.01228,-2.645178 1.97547,-5.040976 1.15037,-2.861367 2.21108,-5.504581 2.35699,-5.873379 l 0.26504,-0.67061 -3.94322,1.972997 c -2.16891,1.085093 -3.94352,1.892977 -3.94352,1.795175 0,-0.09781 1.07438,-3.16917 2.3875,-6.825052 1.31312,-3.655884 2.42453,-6.753739 2.47009,-6.883917 z m -1.53844,21.739948 c 0,2.75e-4 -8.4e-4,0.0029 -0.002,0.0042 3e-5,-1.8e-5 0.003,-0.0042 0.003,-0.0042 z m -0.002,0.0042 c -8.4e-4,5.97e-4 -0.0433,0.08883 -0.0728,0.156865 0.0158,-0.03107 0.036,-0.07259 0.0693,-0.147926 0.003,-0.0054 0.003,-0.0069 0.004,-0.0089 z m -6.9132,5.582144 v 3.1e-4 c -0.0286,5.19e-4 -0.0491,0.0029 -0.0611,0.0071 -0.0945,0.03149 -0.28861,0.373592 -0.43115,0.760293 l -0.12573,0.341466 c -0.003,0.05898 -0.007,0.118011 -0.0138,0.176592 -0.0236,0.182442 -0.0653,0.36145 -0.13498,0.532233 -0.0897,0.167909 -0.14078,0.264461 -0.17135,0.322673 -6e-4,0.0024 -0.002,0.0074 -0.003,0.0098 0.0318,-0.05814 0.0775,-0.143129 0.10541,-0.197852 0.002,-0.0035 -0.004,0.0075 -0.005,0.01105 -0.004,0.0088 -0.051,0.117427 -0.0761,0.16519 -0.0114,0.0204 -0.0224,0.04091 -0.0335,0.06133 -0.002,0.0035 -0.004,0.0065 -0.005,0.0098 -0.18289,0.63967 -0.58218,1.883597 -1.06694,3.30497 -0.67875,1.990213 -1.30751,3.617739 -1.39731,3.616546 -0.0123,-1.4e-4 -0.0324,-0.0051 -0.0496,-0.0076 0.73353,0.227894 1.62549,0.468424 2.7034,0.736552 0.0268,-0.02908 0.0547,-0.05703 0.0836,-0.08407 0.0716,-0.06719 0.1557,-0.117478 0.24346,-0.160265 0.0811,-0.04 0.16914,-0.06046 0.25796,-0.0743 0.0146,-0.0025 0.0293,-0.0038 0.0441,-0.0051 1.3749,-0.67446 5.64791,-2.486433 5.73161,-2.402611 0.0562,0.05613 -0.20056,0.919512 -0.57075,1.918451 -0.36852,0.994419 -0.52683,1.490835 -0.81577,1.687308 3.4e-4,0.06439 -0.004,0.128768 -0.0188,0.191685 -0.008,0.02159 -0.0153,0.04357 -0.0227,0.0654 0.0733,0.01994 0.15183,0.04433 0.21881,0.06897 0.85191,0.314407 3.26039,1.025813 3.38262,0.999142 0.0814,-0.01778 0.31754,-0.494751 0.52455,-1.05985 l 0.17288,-0.47245 c 0.0101,-0.07925 0.0235,-0.157978 0.0434,-0.23545 0.0114,-0.04191 0.0231,-0.08217 0.0361,-0.12205 0.002,-0.0076 0.004,-0.01499 0.005,-0.02248 0.0384,-0.135334 0.0786,-0.270172 0.13961,-0.397556 0.0454,-0.12727 0.10021,-0.250767 0.17259,-0.366429 0.0155,-0.02464 0.0305,-0.04826 0.0456,-0.07214 0.42434,-1.337274 2.06209,-5.596938 2.56963,-6.680828 -0.0114,-0.04998 -0.0226,-0.100167 -0.0318,-0.150704 -0.004,-0.02051 -0.008,-0.04103 -0.0114,-0.06164 -0.0136,-0.06948 -0.0264,-0.138908 -0.036,-0.208641 -1.02164,-0.252953 -2.16374,-0.516328 -3.31175,-0.762755 l -3e-4,3.09e-4 c -0.024,0.0288 -0.0485,0.05713 -0.0752,0.08352 2.2e-4,0.0012 0.003,0.0024 0.003,0.0035 0,0.05694 -1.10112,0.652987 -2.44699,1.32427 -2.57123,1.282442 -2.60231,1.295532 -2.60231,1.093439 0,-0.198825 1.11649,-2.934312 1.258,-3.082153 0.008,-0.0081 0.0303,-0.013 0.0592,-0.01635 -4e-4,-0.0071 -6e-4,-0.0142 -8.4e-4,-0.02128 -0.002,-0.04199 8.4e-4,-0.08343 0.008,-0.1245 -0.99661,-0.174225 -2.22383,-0.39214 -2.86857,-0.511278 -0.53984,-0.09975 -1.04945,-0.17138 -1.31041,-0.187684 v -3.11e-4 c -0.0434,-0.0029 -0.0801,-0.0042 -0.10884,-0.0035 z m -3.8372,9.002988 c -1e-5,4.45e-4 0,0.0012 0,0.0013 0.008,0.0025 0.0148,0.0051 0.0228,0.0076 -0.006,-0.0025 -0.0164,-0.0076 -0.0228,-0.01016 z m 7.78135,6.05027 -1.4759,0.438553 c -0.0131,0.0038 -0.0251,0.0076 -0.0382,0.01143 -0.0202,0.024 -0.0292,0.03455 -0.076,0.09055 8.4e-4,-0.0013 -0.004,0.0038 -0.003,0.0025 -0.007,0.01016 -0.008,0.0127 -0.013,0.02057 0.0101,-1.77e-4 0.0252,-0.0025 0.0339,-0.0013 0.0269,0.0013 0.0457,0.0076 0.0555,0.01727 0.0516,0.05156 -0.56115,1.838479 -1.36156,3.970956 -0.62412,1.662737 -1.18529,3.077177 -1.43274,3.625177 0.049,0.0714 0.0974,0.14314 0.147,0.21417 0.0454,0.0647 0.0895,0.13009 0.13312,0.19601 0.89305,0.32081 1.74674,0.60633 2.47935,0.8398 0.0102,-0.0114 0.0214,-0.0225 0.0324,-0.0333 0.0232,-0.0226 0.0486,-0.0432 0.0759,-0.0613 0.0352,-0.0883 0.30893,-0.18314 0.84968,-0.3689 0.60269,-0.20704 1.15299,-0.37661 1.22287,-0.37661 0.22167,0 0.15388,0.85611 -0.0481,1.10485 -5.6e-4,0.0377 -0.0258,0.0914 -0.0525,0.13899 0.003,0.0414 0.005,0.0831 0.009,0.12446 0.0291,0.0128 0.0508,0.0265 0.0614,0.0413 0.0434,0.0605 0.71793,0.3401 1.499,0.6213 0.78106,0.28118 1.59763,0.61117 1.8146,0.73349 0.62568,0.35277 0.75292,0.28146 0.919,-0.51591 h -3.1e-4 c 0.0858,-0.41223 0.23574,-1.14238 0.33284,-1.62259 0.016,-0.0794 0.0303,-0.14544 0.0447,-0.21174 -0.0221,-0.12775 -0.0383,-0.25616 -0.0348,-0.38706 1e-5,-0.0659 -7e-5,-0.13161 0,-0.19754 6e-5,-0.0635 4.7e-4,-0.12722 6e-4,-0.19079 8.4e-4,-0.11049 0.007,-0.22121 0.024,-0.33037 0.0266,-0.1553 0.0671,-0.30862 0.13006,-0.45335 8e-5,-2e-4 2.1e-4,-5.9e-4 3e-4,-5.9e-4 0.0407,-0.12116 0.0916,-0.23863 0.15563,-0.34979 0.008,-0.013 0.004,-0.005 0.009,-0.0158 0.003,-0.005 0.009,-0.0155 0.0102,-0.019 0.0646,-0.32919 0.15409,-0.7521 0.23822,-1.15538 -0.007,-0.10973 -0.008,-0.21955 -0.005,-0.32944 0.005,-0.17061 0.0168,-0.34133 0.057,-0.5079 0.0175,-0.0711 0.0397,-0.169064 0.0656,-0.23268 0.019,-0.04699 0.0402,-0.09297 0.0616,-0.138991 0.004,-0.01016 0.008,-0.02197 0.0101,-0.03302 8.4e-4,-0.0013 8.4e-4,-0.0012 0.004,-0.0051 -0.007,0.01689 -0.004,0.01143 -0.009,0.024 0.0258,-0.05512 0.0521,-0.110111 0.0767,-0.165802 0.0251,-0.05689 -0.0381,0.06617 -0.0644,0.123319 0.019,-0.05664 0.0378,-0.114175 0.0407,-0.1285 0.0431,-0.133239 0.0855,-0.252812 0.11621,-0.392934 0.0428,-0.156811 0.088,-0.313062 0.13466,-0.468755 0.12879,-0.55998 0.23092,-0.975482 0.25642,-1.000984 0.0101,-0.01016 0.0295,-0.01143 0.0536,-0.0089 0.004,-0.0127 0.007,-0.02464 0.0101,-0.0367 -0.46689,-0.247491 -0.98326,-0.49747 -1.54032,-0.745507 -0.009,0.01308 -0.0177,0.02591 -0.0268,0.03849 0.0185,0.01613 0.0303,0.03023 0.0303,0.04064 -5.9e-4,0.05868 -0.8458,0.692431 -1.87745,1.408409 -1.0318,0.715825 -1.92633,1.301765 -1.98778,1.301765 -0.0617,0 -0.0601,-0.124208 -0.003,-0.276129 0.0599,-0.15187 0.35992,-0.950692 0.66691,-1.775143 0.30699,-0.82431 0.60304,-1.547273 0.65766,-1.606253 5.7e-4,-5.97e-4 0.003,-5.97e-4 0.004,-0.0012 0.0143,-0.0367 0.0306,-0.07277 0.0464,-0.10884 8.3e-4,-0.0038 0.003,-0.0064 0.004,-0.01016 -0.17624,-0.06274 -0.35327,-0.125606 -0.53378,-0.187062 z m 4.40333,1.590238 c -0.002,0.0013 -0.003,0.0025 -0.005,0.0038 0.0267,0.01143 0.0494,0.02184 0.0749,0.03302 6e-4,-0.0025 0.002,-0.0051 0.003,-0.0076 -0.0236,-0.01016 -0.0486,-0.01931 -0.0724,-0.02921 z m 0.094,0.03849 v 3.05e-4 c -8.4e-4,0.0025 -0.003,0.0051 -0.004,0.0076 0.0102,0.0038 0.0198,0.0089 0.0296,0.01321 0.003,-0.0013 0.007,-0.0038 0.009,-0.0064 -0.0114,-0.0051 -0.0226,-0.01016 -0.0342,-0.01473 z m -3.99006,8.237758 c -0.0138,0.0232 -0.0259,0.0427 -0.0326,0.0549 -0.005,0.009 0.0114,-0.016 0.0164,-0.024 0.005,-0.009 0.0101,-0.0179 0.0148,-0.0268 4e-4,-10e-4 8.3e-4,-0.003 0.002,-0.004 z m -0.0527,3.83136 c -0.0114,0.12053 -0.0324,0.23978 -0.0644,0.35656 0.002,0.58461 -0.0401,1.78232 -0.11646,3.15704 -0.0911,1.63926 -0.20017,3.05352 -0.26258,3.44614 0.009,0.10617 0.0102,0.21294 0.009,0.31989 0.30508,0.20206 0.66682,0.44228 0.89372,0.59232 l 1.34122,0.88696 0.18337,-0.8207 c 0.10083,-0.45135 0.26488,-1.22545 0.36458,-1.72029 0.007,-0.0323 0.014,-0.0547 0.0206,-0.0853 4.3e-4,-0.019 6e-4,-0.0382 8.4e-4,-0.0572 0.0334,-0.34666 0.008,-0.15968 0.0441,-0.3615 0.003,-0.0165 -0.007,0.0329 -0.0101,0.0493 -2e-4,8.4e-4 7e-5,-0.003 3.1e-4,-0.004 0.0188,-0.11392 0.0128,-0.0804 0.0309,-0.17321 8.4e-4,-0.003 0.0101,-0.0474 0.0173,-0.0836 0.007,-0.0379 0.0148,-0.0832 0.0303,-0.16365 0.008,-0.0303 0.0146,-0.0604 0.0219,-0.0906 -1.6e-4,5.9e-4 -6e-4,5.9e-4 -6e-4,8.4e-4 8.4e-4,-0.003 0.002,-0.007 0.003,-0.0102 0.0407,-0.17844 0.10376,-0.35013 0.17783,-0.51713 -0.0764,0.18398 0.005,-0.0283 0.0227,-0.0767 0.0297,-0.0724 0.0525,-0.14089 0.0767,-0.21449 -0.0635,0.11468 0.0406,-0.12599 0.0903,-0.24256 0.004,-0.0305 0.008,-0.0609 0.0101,-0.0916 0.004,-0.0452 0.005,-0.0905 0.007,-0.13592 -3.5e-4,-0.12901 0.0145,-0.25722 0.0259,-0.38553 0.0202,-0.16849 0.041,-0.33686 0.0711,-0.50389 0.007,-0.0313 0.0131,-0.0624 0.0197,-0.0937 0.0133,-0.15041 0.0468,-0.29846 0.0866,-0.44379 0.0602,-0.19774 -0.005,0.016 0.0428,-0.13746 0.003,-0.009 0.0143,-0.0331 0.008,-0.0268 -0.003,8.4e-4 -0.003,0.005 -0.003,0.008 0.0301,-0.14102 0.0759,-0.27771 0.12598,-0.41265 0.0512,-0.1307 0.11024,-0.25811 0.1729,-0.38369 -0.57919,-0.36147 -1.37761,-0.74177 -2.43127,-1.17048 z m -0.39725,11.37755 c -0.0946,-0.003 -0.18716,0.0209 -0.28383,0.0604 -0.0175,0.0713 -0.0371,0.14239 -0.0579,0.21296 0.0663,0.0508 0.077,0.18364 0.0357,0.39756 -0.0458,0.23866 -0.13039,1.37474 -0.18801,2.52465 -0.005,0.10046 -0.0114,0.17004 -0.0163,0.26319 8.4e-4,0.0189 0.003,0.0377 0.005,0.054 8.4e-4,0.0127 0.003,0.0313 0.005,0.048 6e-5,3e-4 5.9e-4,0.002 5.9e-4,0.003 0.0182,0.0982 0.0308,0.19364 0.0407,0.29185 1.4e-4,6e-4 1.7e-4,0.002 3.2e-4,0.003 0.0101,0.0685 0.0195,0.13707 0.0277,0.20585 0.0145,0.12091 0.0209,0.24266 0.025,0.36429 0.003,0.0872 0.004,0.17433 0.004,0.26165 3.9e-4,0.0841 2.3e-4,0.16857 3e-4,0.25271 6e-5,0.0803 3e-4,0.16037 3.1e-4,0.24068 0.004,0.13256 -0.0137,0.26396 -0.0274,0.39541 0.008,0.004 0.0153,0.009 0.0235,0.0136 0.78935,0.4349 1.02512,0.53514 1.0845,0.41142 v -0.0216 c -0.0114,-0.17897 0.0293,-0.35175 0.0659,-0.52453 0.004,-0.0133 0.007,-0.0216 0.009,-0.0335 -0.0433,-0.0222 -0.052,-0.0796 -0.0164,-0.17628 0.04,-0.10846 0.23953,-1.06823 0.44316,-2.13264 0.11913,-0.62291 0.23867,-1.13061 0.33901,-1.46295 0.0378,-0.16192 0.0777,-0.32318 0.12141,-0.48355 -0.87709,-0.82147 -1.281,-1.15806 -1.64138,-1.16771 z m -0.75475,8.21496 c -0.0236,5.4e-4 -0.0419,0.007 -0.0573,0.016 -0.007,0.0269 -0.0114,0.054 -0.0175,0.0808 -0.003,0.0102 -0.005,0.0203 -0.008,0.0305 -0.003,0.008 -0.008,0.0325 -0.007,0.0244 0.004,-0.0161 0.008,-0.0325 0.0102,-0.0486 8.4e-4,-0.008 0.007,-0.0292 0.004,-0.0219 -0.007,0.0257 -0.0292,0.13958 -0.0496,0.21141 -3.9e-4,0.0273 -0.002,0.0496 -0.002,0.0814 0,0.0589 -0.008,0.12052 -0.0188,0.18183 5.4e-4,0.003 8.4e-4,0.005 0.002,0.008 0.0165,0.0762 0.033,0.15282 0.0335,0.23113 2.1e-4,0.0525 -0.002,0.10516 -0.0166,0.15565 l -0.0114,0.78001 c -0.004,0.26518 -0.0264,0.61594 -0.0562,0.93995 0.004,0.0599 0.008,0.11977 0.0102,0.17969 0.007,0.12979 0.009,0.25962 0.0101,0.38954 -8.4e-4,0.21976 -0.0254,0.43808 -0.0669,0.65365 -0.004,0.0127 -0.007,0.0268 -0.0102,0.0404 -0.013,0.11417 -0.0382,0.22637 -0.0604,0.339 8.4e-4,-0.004 -6e-4,0.009 -8.3e-4,0.0136 -0.005,0.0377 -0.0101,0.0754 -0.016,0.11303 -0.014,0.0918 -0.0339,0.18223 -0.0555,0.27245 l 0.0931,0.0493 -0.0789,0.8697 c -0.0434,0.47834 0.16988,-0.3019 0.4743,-1.73385 0.30432,-1.43179 0.59116,-2.7633 0.63733,-2.95857 0.0127,-0.0511 0.0277,-0.094 0.0449,-0.13313 1.5e-4,-0.0141 3.6e-4,-0.0282 6e-4,-0.0422 8.4e-4,-0.0316 0.003,-0.0633 0.008,-0.0946 0.007,-0.0404 0.0131,-0.0803 0.0244,-0.11951 0.005,-0.0205 0.0114,-0.0412 0.0179,-0.0616 -0.0102,-0.0146 -0.0169,-0.03 -0.0169,-0.0463 0,-0.0782 -0.21312,-0.2165 -0.47337,-0.30725 -0.16978,-0.0592 -0.27862,-0.0945 -0.34856,-0.0931 z" /><path
         style="display:inline;fill:#000000;fill-opacity:1;stroke-width:0.124242"
         d="m 152.16223,120.40808 c 0,-0.0513 0.24102,-0.37484 0.53559,-0.71896 0.88119,-1.02949 0.87353,-1.82861 -0.0262,-2.72831 -0.30913,-0.30912 -0.69222,-0.56203 -0.85132,-0.56203 -0.15912,0 -0.28929,-0.064 -0.28929,-0.14236 0,-0.0784 -0.21302,-0.21662 -0.47337,-0.30737 -0.45322,-0.15799 -0.47338,-0.14603 -0.47338,0.28083 0,0.24521 -0.11112,0.53812 -0.24708,0.65091 -0.34838,0.28912 -0.69977,1.0145 -0.69908,1.44308 3.2e-4,0.19958 0.14235,0.59535 0.3156,0.87951 0.32635,0.53528 0.41922,1.14015 0.17503,1.14015 -0.31359,0 -1.69029,-1.06154 -2.02546,-1.56178 -0.64087,-0.9565 -0.40936,-2.14685 0.64353,-3.30873 0.32785,-0.3618 0.32914,-0.37912 0.0418,-0.55227 -1.78771,-1.07702 -2.95795,-2.3156 -3.26491,-3.45557 -0.3622,-1.34511 0.35211,-3.05809 2.00688,-4.81265 0.55109,-0.58431 1.00209,-1.07187 1.00222,-1.08344 1.4e-4,-0.0114 -0.61251,-0.46626 -1.36146,-1.01041 -1.71198,-1.24384 -2.96164,-2.5068 -3.498,-3.53524 -0.5881,-1.12767 -0.58935,-2.67542 -0.003,-3.79933 0.39095,-0.74947 1.49658,-1.91775 2.31706,-2.44833 0.36534,-0.23627 0.33992,-0.25445 -1.18343,-0.84643 -4.35716,-1.69314 -6.17738,-3.49299 -6.33797,-6.267 -0.0615,-1.06278 -0.0188,-1.322424 0.35138,-2.134174 0.23178,-0.50829 0.79075,-1.305614 1.24217,-1.771803 0.83681,-0.864227 2.65886,-2.162449 3.55725,-2.53458 0.55719,-0.23079 0.65825,-0.483664 0.19329,-0.483664 -0.78129,0 -4.17287,-1.025178 -5.46523,-1.651988 -3.17278,-1.538854 -4.63522,-3.773441 -4.44674,-6.79455 0.0916,-1.46814 0.44566,-2.404403 1.37449,-3.634638 0.60634,-0.803088 1.92883,-1.885684 3.09002,-2.529482 l 0.59634,-0.330635 -1.80066,-0.437153 c -5.79303,-1.406398 -8.70806,-3.721823 -9.34154,-7.420047 -0.53219,-3.106921 1.32229,-6.462535 4.37191,-7.910791 1.57001,-0.745596 3.32445,-0.899641 4.66796,-0.409864 0.47733,0.174005 1.96772,0.709997 3.31199,1.191096 2.56495,0.917962 2.99963,1.207397 2.99963,1.997309 0,0.71844 -0.34886,0.861111 -2.35078,0.961371 -1.36243,0.06824 -2.08913,0.187105 -2.84122,0.464762 l -1.01056,0.373082 -0.96181,-0.354659 c -0.52901,-0.195059 -1.07293,-0.391292 -1.20873,-0.43607 -0.34362,-0.113311 -1.22074,0.824403 -1.43262,1.531619 -0.58249,1.944179 2.06963,3.814662 7.04439,4.968269 1.3729,0.318362 5.90823,1.261103 7.49505,1.557965 5.8125,1.087409 5.87635,1.095663 6.101,0.788429 0.11583,-0.158414 0.21061,-0.367945 0.21061,-0.465618 0,-0.09982 0.67371,-0.303292 1.53847,-0.464639 2.66159,-0.496619 7.64082,-1.649648 8.94057,-2.070347 3.43867,-1.11301 5.21129,-2.762955 4.68421,-4.360013 -0.22842,-0.692139 -1.09438,-1.594782 -1.42528,-1.485665 -0.13579,0.04478 -0.67971,0.241011 -1.2087,0.43607 l -0.96184,0.354659 -1.01055,-0.373082 c -0.75207,-0.277657 -1.47878,-0.39653 -2.84121,-0.464762 -2.00193,-0.100256 -2.3508,-0.242931 -2.3508,-0.961371 0,-0.789912 0.4347,-1.079347 2.99965,-1.997309 1.34427,-0.481099 2.83466,-1.017091 3.31197,-1.191096 0.6998,-0.25511 1.11995,-0.301063 2.16976,-0.237314 4.18745,0.254277 7.5706,4.468586 6.87013,8.557969 -0.61298,3.578496 -3.39653,5.877301 -8.8032,7.270118 -1.21499,0.312994 -2.22473,0.583736 -2.24386,0.601646 -0.0192,0.0179 0.42889,0.299259 0.99564,0.625226 1.39879,0.804518 2.74838,2.189231 3.37576,3.463623 0.41061,0.834039 0.52571,1.291934 0.59204,2.355048 0.25044,4.014241 -2.38333,6.681057 -7.92666,8.026143 -1.1282,0.273767 -2.15742,0.528458 -2.28715,0.565987 -0.1371,0.03963 0.22971,0.313252 0.87586,0.653264 1.55051,0.815878 3.10788,1.958052 3.74879,2.74933 0.96923,1.196632 1.13103,1.641687 1.13252,3.115313 0.003,2.253786 -0.80364,3.523236 -3.21943,5.071016 -0.65396,0.41899 -1.91871,1.06148 -2.81053,1.42773 -0.89182,0.36626 -1.62103,0.70475 -1.62042,0.75222 5.9e-4,0.0475 0.25537,0.2595 0.56618,0.47119 1.99554,1.35921 2.79807,3.84538 1.87874,5.82016 -0.51026,1.0961 -2.02612,2.66036 -3.64106,3.75735 l -1.29047,0.87657 1.01285,1.02793 c 1.71349,1.73898 2.48721,3.51405 2.12234,4.86907 -0.33446,1.24205 -1.21906,2.27347 -3.08814,3.60069 -0.29926,0.21248 -0.29316,0.23619 0.2078,0.80675 1.31354,1.49603 1.04153,2.84265 -0.81678,4.04375 -0.84475,0.54598 -1.52847,0.77783 -1.52847,0.51832 z m 0,-6.86909 c 0,-0.0975 0.32191,-0.4607 0.71535,-0.807 0.90215,-0.79412 1.17815,-1.32786 1.17815,-2.27849 0,-0.71699 -0.0459,-0.79693 -0.93949,-1.63409 -1.41806,-1.32858 -1.60243,-1.39721 -2.35412,-0.87628 -0.99419,0.68898 -1.74688,1.52572 -1.93387,2.14984 -0.3099,1.03433 0.51396,2.1945 2.22945,3.13956 0.95713,0.52729 1.10453,0.56818 1.10453,0.30646 z m 2.04702,-11.05763 c 0.12205,-0.60568 0.27031,-0.92798 0.45373,-0.98618 0.14983,-0.0476 0.61888,-0.43822 1.04232,-0.86811 1.51168,-1.53474 0.85375,-2.452 -2.83545,-3.95308 l -1.45715,-0.59292 -1.32895,0.49992 c -2.39981,0.90269 -3.75976,1.90773 -3.75976,2.77849 0,0.56011 0.92727,1.41558 3.09013,2.85084 0.86057,0.57108 2.16823,1.4374 2.90589,1.92517 l 1.34123,0.88686 0.18337,-0.82065 c 0.10084,-0.45133 0.26494,-1.2255 0.36464,-1.72034 z m 2.0277,-9.08054 c 0.0859,-0.41223 0.2356,-1.14241 0.33276,-1.62262 0.17053,-0.84292 0.20789,-0.89036 1.07983,-1.37092 2.07428,-1.14323 3.03021,-2.05855 3.03233,-2.9035 0.003,-1.021814 -3.10213,-2.837889 -7.28324,-4.260294 l -1.99266,-0.677902 -1.47591,0.438666 c -3.26872,0.97152 -5.80231,2.195141 -7.04769,3.403737 -0.91346,0.886479 -0.90523,1.408523 0.0365,2.310793 0.71923,0.68914 2.21909,1.59895 3.3263,2.01773 2.20136,0.83261 4.91655,1.71742 5.26761,1.71656 0.22708,-5.9e-4 0.44836,0.0484 0.49174,0.10885 0.0434,0.0604 0.71796,0.33996 1.49901,0.62115 0.78107,0.28119 1.59763,0.61132 1.81459,0.73363 0.62577,0.35278 0.75284,0.28144 0.91892,-0.51593 z m -0.48298,-14.893418 0.37635,-1.027452 1.0919,-0.262057 c 3.75099,-0.900234 6.45871,-2.75065 6.45871,-4.413772 0,-0.76241 -0.46404,-1.562551 -1.15192,-1.986281 -0.75115,-0.462678 -6.44275,-1.848555 -10.44567,-2.54346 -1.04142,-0.180791 -2.4824,-0.437525 -3.20217,-0.570522 -0.71978,-0.13299 -1.38599,-0.216041 -1.48048,-0.184547 -0.0945,0.03149 -0.28839,0.373652 -0.43093,0.760352 l -0.25915,0.703088 -2.96417,0.742521 c -3.15483,0.790284 -3.84275,1.094525 -4.35728,1.927044 -0.60843,0.984463 -0.36127,1.960141 0.75112,2.96512 1.60189,1.447209 3.1291,1.992889 9.89178,3.534409 0.69428,0.158259 1.33333,0.296996 1.42011,0.308287 0.0867,0.01143 0.2643,0.05982 0.39448,0.107952 0.85191,0.314408 3.2606,1.025839 3.38283,0.999156 0.0814,-0.01778 0.31748,-0.494688 0.52449,-1.059787 z M 137.71652,51.092594 c -0.23777,-0.220047 -1.34343,-0.53493 -1.462,-0.416362 -0.19437,0.194372 0.49331,0.55509 1.05823,0.55509 0.32687,0 0.49226,-0.05683 0.40377,-0.138728 z m 28.10363,-0.08505 c 0.16832,-0.123078 0.25981,-0.270014 0.20331,-0.326516 -0.13366,-0.13365 -1.39579,0.243863 -1.39579,0.417488 0,0.216769 0.8615,0.151047 1.19248,-0.09097 z"
         id="path302-6" /></g><text
       xml:space="preserve"
       style="font-style:normal;font-variant:normal;font-weight:normal;font-stretch:normal;font-size:45.8401px;font-family:Warownia;-inkscape-font-specification:'Warownia, Normal';font-variant-ligatures:normal;font-variant-caps:normal;font-variant-numeric:normal;font-variant-east-asian:normal;letter-spacing:1.59544px;display:inline;fill:#000000;fill-opacity:1;stroke:#ff008b;stroke-width:2.58303"
       x="34.720383"
       y="178.8846"
       id="text1340"><tspan
         sodipodi:role="line"
         id="tspan1338"
         style="font-style:normal;font-variant:normal;font-weight:normal;font-stretch:normal;font-size:45.8401px;font-family:Warownia;-inkscape-font-specification:'Warownia, Normal';font-variant-ligatures:normal;font-variant-caps:normal;font-variant-numeric:normal;font-variant-east-asian:normal;stroke:none;stroke-width:2.58303"
         x="34.720383"
         y="178.8846">Griceli</tspan></text><path
       style="fill:#000000;stroke-width:0.999998"
       d="m 143.73132,137.01307 c -0.0997,-0.0497 -0.19315,-0.14777 -0.24795,-0.26021 -0.0951,-0.19482 -0.097,-0.25716 -0.18777,-5.71533 l -0.0325,-1.96518 0.79397,-0.30908 c 0.43672,-0.16994 0.8059,-0.3088 0.82048,-0.30849 0.0145,4.6e-4 0.0186,0.32449 0.008,0.72039 -0.008,0.39587 -0.0444,2.21084 -0.0763,4.03325 -0.0566,3.20906 -0.0614,3.32031 -0.15503,3.53206 -0.073,0.16497 -0.13616,0.23507 -0.25719,0.28563 -0.21421,0.0895 -0.47078,0.0845 -0.66604,-0.0124 z m -5.03265,-5.05109 c -0.0937,-0.42179 -0.0804,-1.40384 0.0236,-1.74047 0.56203,-1.82177 2.40108,-3.32582 6.12883,-5.01239 1.80161,-0.81512 2.43919,-1.18141 3.00695,-1.72753 0.59349,-0.57089 0.85873,-1.07794 0.89091,-1.70331 0.023,-0.44594 -0.0479,-0.75982 -0.27145,-1.20275 -0.3524,-0.69815 -1.15442,-1.45616 -2.10473,-1.98919 l -0.26074,-0.1461 0.0221,-1.01366 c 0.0124,-0.55754 0.0338,-1.22525 0.0482,-1.48381 l 0.0259,-0.47008 0.34969,0.19129 c 1.7527,0.95898 3.16156,2.20272 3.85109,3.39964 0.67558,1.1728 0.84424,2.5009 0.48995,3.85815 -0.38327,1.46815 -1.45628,2.64701 -3.23728,3.55659 -0.66583,0.34007 -1.33358,0.62141 -2.91826,1.2296 -1.89371,0.72678 -2.5836,1.0369 -3.36581,1.51306 -0.81827,0.49808 -1.52662,1.13589 -1.94367,1.74998 -0.21539,0.31718 -0.52415,0.9149 -0.57171,1.10683 -0.0526,0.21297 -0.0978,0.18113 -0.16372,-0.11564 z m 4.4669,-6.99143 c -0.0124,-0.10695 -0.056,-1.78812 -0.0964,-3.7362 -0.0404,-1.94807 -0.12372,-5.51628 -0.18507,-7.92937 -0.0614,-2.41308 -0.11171,-4.59855 -0.11192,-4.8566 l -4.9e-4,-0.46917 0.6284,-0.29868 c 0.88753,-0.42186 1.97655,-0.90393 1.99461,-0.88299 0.008,0.0104 -0.022,1.44703 -0.0675,3.19401 -0.12082,4.63093 -0.26554,10.72524 -0.2945,12.40822 -0.0145,0.80436 -0.0361,1.57124 -0.0495,1.70419 l -0.0244,0.24167 -0.32782,0.14549 c -0.18031,0.08 -0.57061,0.26425 -0.86735,0.40958 -0.29672,0.14528 -0.54741,0.26422 -0.55705,0.26422 -0.008,0 -0.0277,-0.0875 -0.0404,-0.19419 z m -1.78793,-8.64311 c -2.16667,-0.95709 -3.59649,-1.95663 -4.38896,-3.06817 -0.87535,-1.22779 -1.11014,-2.81693 -0.63733,-4.31341 0.31209,-0.98776 0.78307,-1.73377 1.61919,-2.5648 1.21217,-1.20479 2.39107,-1.9107 5.90314,-3.53468 2.24877,-1.03983 3.37984,-1.72157 4.17907,-2.51871 1.91792,-1.913051 1.59126,-4.106266 -0.8386,-5.630515 -0.21886,-0.137412 -0.41574,-0.267289 -0.43754,-0.288928 -0.0352,-0.03501 0.052,-4.47752 0.0889,-4.519611 0.0208,-0.02343 0.91001,0.454456 1.45892,0.783547 1.12308,0.673333 1.89425,1.258972 2.62816,1.995906 1.57461,1.581135 2.30153,3.461562 2.10834,5.454002 -0.21419,2.209039 -1.29838,4.007399 -3.3076,5.486369 -1.07484,0.79114 -2.32394,1.45873 -4.74235,2.53455 -3.00907,1.3386 -3.87576,1.81788 -4.7153,2.60758 -0.67936,0.63903 -0.97465,1.223 -0.97465,1.9275 0,0.34562 0.0165,0.42275 0.1461,0.68609 0.2682,0.54475 0.96174,1.13104 2.00024,1.69087 l 0.42621,0.22976 0.0266,0.78705 c 0.0663,1.97248 0.0752,2.50076 0.0419,2.49937 -0.0208,-8.3e-4 -0.28264,-0.11046 -0.5843,-0.24377 z m 1.2392,-13.97961 c -0.0145,-0.13202 -0.0771,-2.33769 -0.14176,-4.901619 -0.0645,-2.563901 -0.15751,-6.214375 -0.20663,-8.112187 -0.0489,-1.897793 -0.11979,-4.746187 -0.15729,-6.329775 -0.0375,-1.583588 -0.0814,-3.294214 -0.0974,-3.801393 l -0.029,-0.922108 0.29244,-0.09032 c 0.81805,-0.252671 2.18612,-0.474763 3.31646,-0.538411 l 0.55984,-0.03152 -4.6e-4,0.292512 c -9.2e-4,0.971688 -0.57993,23.262271 -0.6043,23.280911 -0.14342,0.10983 -2.8032,1.39386 -2.88705,1.39386 -0.0124,0 -0.0315,-0.10797 -0.0449,-0.23992 z m -1.76476,-10.679905 c -2.09271,-0.944574 -3.63499,-1.940565 -4.77763,-3.085381 -2.47331,-2.478029 -3.42109,-5.725355 -2.62852,-9.005998 0.60604,-2.508608 2.08885,-4.413614 4.45833,-5.727799 2.52377,-1.399737 6.25988,-2.077269 10.3973,-1.88548 1.0121,0.04686 1.20869,0.04475 1.49439,-0.01663 1.41152,-0.298935 2.65918,-0.145903 3.64267,0.446968 1.30584,0.787066 2.80838,2.410256 3.58644,3.874321 0.29128,0.548132 0.417,0.928577 0.417,1.262041 0,0.227973 -0.0186,0.288882 -0.13865,0.433562 -0.38895,0.471841 -1.4851,0.721287 -3.1656,0.720378 -1.76803,-9.19e-4 -3.47932,-0.237281 -4.81437,-0.664861 -0.61849,-0.198129 -1.03715,-0.459483 -1.61177,-1.006292 l -0.40455,-0.384984 -0.6567,1.84e-4 c -0.36122,8.3e-5 -0.94464,0.02113 -1.29657,0.04686 -3.73547,0.272306 -6.17167,1.390264 -7.11792,3.266419 -0.61232,1.214004 -0.54581,3.059965 0.15564,4.318891 0.4706,0.844678 1.37519,1.744761 2.46063,2.44837 0.1886,0.122278 0.3476,0.22426 0.35351,0.226833 0.0145,0.0064 0.14943,4.926702 0.13616,4.939051 -0.006,0.0046 -0.22576,-0.0883 -0.48968,-0.207409 z M 153.34549,75.19466 c 0.22693,-0.09471 0.34896,-0.277214 0.34896,-0.521541 0,-0.534286 -0.60463,-0.769701 -0.97743,-0.380592 -0.25475,0.265921 -0.17678,0.702341 0.15751,0.881633 0.18652,0.100098 0.27162,0.103829 0.47085,0.02077 z m 6.77016,5.31627 c -0.23674,-0.24725 -0.3749,-0.302793 -0.95598,-0.384368 -0.26401,-0.03712 -0.54767,-0.09616 -0.63037,-0.132018 -0.43343,-0.185899 -0.7923,-0.608335 -0.95127,-1.119925 -0.0964,-0.31019 -0.11108,-0.418603 -0.0558,-0.416821 0.0186,6.07e-4 0.19875,0.14446 0.39966,0.319498 0.44888,0.391204 0.75291,0.556751 1.25704,0.684607 0.21368,0.0543 0.47077,0.134711 0.57131,0.178852 0.34786,0.152949 0.59894,0.55812 0.56363,0.909611 l -0.0145,0.151296 z m -18.27431,-9.948127 c -0.0487,-1.446277 -0.0898,-3.988597 -0.0645,-3.988597 0.0145,0 0.098,0.03106 0.18839,0.06882 0.32239,0.13472 1.0659,0.294735 1.59838,0.344012 0.8269,0.07645 1.76008,-0.0396 2.56136,-0.318368 l 0.26855,-0.09347 -0.0335,2.158945 c -0.0187,1.187431 -0.0427,2.174409 -0.0541,2.193273 -0.0104,0.01865 -0.16849,0.03436 -0.34917,0.03482 -0.95786,9.19e-4 -3.50789,0.278205 -4.0128,0.435731 -0.0651,0.02076 -0.0769,-0.07479 -0.10259,-0.835021 z m 1.29227,-4.653651 c -1.54043,-0.278959 -2.87731,-1.164966 -3.72879,-2.471267 -0.21518,-0.330111 -0.51797,-0.916457 -0.51797,-1.003021 0,-0.01452 0.14321,0.104454 0.31833,0.266582 0.96093,0.889673 2.29219,1.487937 3.79491,1.705444 0.71119,0.1028 1.97136,0.06864 2.62788,-0.0713 1.28642,-0.274392 2.54526,-0.899127 3.39341,-1.684035 0.13202,-0.122067 0.23995,-0.204349 0.23995,-0.182379 0,0.07479 -0.37796,0.791642 -0.55429,1.051471 -0.71923,1.059749 -1.86239,1.8985 -3.06228,2.246859 -0.72451,0.21034 -1.7976,0.2709 -2.51115,0.141556 z m 0.14073,-2.555185 c -1.79985,-0.386251 -3.10898,-1.805275 -3.33779,-3.618039 -0.26562,-2.10398 1.19915,-4.127241 3.30158,-4.560454 0.43736,-0.08995 1.19802,-0.09368 1.6479,-0.0064 1.54655,0.295893 2.80932,1.493386 3.241,3.07339 0.14052,0.5142 0.1399,1.527419 -9.2e-4,2.048749 -0.39992,1.477719 -1.50893,2.588474 -3.00055,3.005267 -0.4207,0.117722 -1.4277,0.149431 -1.85096,0.05862 z"
       id="path1456" /></g></svg>
