<?xml version="1.0" encoding="UTF-8" standalone="no"?>
<!-- Created with Inkscape (http://www.inkscape.org/) -->

<svg
   width="207.242mm"
   height="207.242mm"
   viewBox="0 0 207.242 207.242"
   version="1.1"
   id="svg5"
   xml:space="preserve"
   inkscape:version="1.2.2 (b0a8486541, 2022-12-01)"
   sodipodi:docname="loader.svg"
   xmlns:inkscape="http://www.inkscape.org/namespaces/inkscape"
   xmlns:sodipodi="http://sodipodi.sourceforge.net/DTD/sodipodi-0.dtd"
   xmlns="http://www.w3.org/2000/svg"
   xmlns:svg="http://www.w3.org/2000/svg"><sodipodi:namedview
     id="namedview7"
     pagecolor="#ffffff"
     bordercolor="#000000"
     borderopacity="0.25"
     inkscape:showpageshadow="2"
     inkscape:pageopacity="0.0"
     inkscape:pagecheckerboard="0"
     inkscape:deskcolor="#d1d1d1"
     inkscape:document-units="mm"
     showgrid="false"
     inkscape:zoom="0.7554433"
     inkscape:cx="158.18527"
     inkscape:cy="367.33399"
     inkscape:window-width="1920"
     inkscape:window-height="1012"
     inkscape:window-x="1920"
     inkscape:window-y="29"
     inkscape:window-maximized="1"
     inkscape:current-layer="layer1" /><defs
     id="defs2" /><g
     inkscape:label="Camada 1"
     inkscape:groupmode="layer"
     id="layer1"
     style="display:inline"
     transform="translate(-1.6149445,-43.820679)"><path
       id="path364-3"
       style="display:inline;fill:#ff008b;fill-opacity:1;stroke:#ff008b;stroke-width:0.683;stroke-dasharray:none;stroke-opacity:1"
       d="m 106.86184,54.697674 c -5.22381,0.02324 -10.487771,0.520543 -15.349565,1.49 -4.22587,0.842675 -4.27274,0.853425 -6.11603,1.353285 -11.79197,3.197695 -22.266282,8.5656 -31.128598,15.95437 -2.875063,2.397018 -6.903685,6.383469 -9.138522,9.042744 -2.305437,2.74325 -5.379567,6.99108 -5.369104,7.41834 0.0061,0.25123 0.121671,0.13026 1.089115,-1.1401 3.970065,-5.21316 10.412399,-11.713066 15.426807,-15.563524 1.004127,-0.771057 1.90788,-1.46522 2.008296,-1.542527 0.801732,-0.617175 4.045761,-2.783383 5.590788,-3.733114 3.780058,-2.323594 8.789718,-4.780768 13.301878,-6.524646 2.14515,-0.829064 7.7724,-2.619156 9.67999,-3.079645 18.171065,-4.386542 34.759115,-3.100193 51.849585,4.021227 1.54286,0.642926 6.47715,3.121539 8.251,4.144815 4.23957,2.445692 8.60778,5.478139 11.66357,8.097297 0.56007,0.480031 1.13547,0.872612 1.27837,0.872063 0.28434,-0.0012 -0.80959,-1.057605 -3.48363,-3.364668 -9.04664,-7.80522 -21.19005,-13.47786 -34.4446,-16.091089 -4.70149,-0.926931 -9.88544,-1.378064 -15.10935,-1.354828 z m 60.3022,24.098012 c -0.13333,0 -0.11703,0.12185 0.0471,0.352998 6.21029,8.745429 8.88378,15.907509 8.45183,22.642766 -0.0871,1.36014 -0.15509,3.45893 -0.15061,4.66389 0.007,1.87657 0.0737,2.36206 0.4619,3.38707 0.9766,2.57867 3.69116,5.7057 7.98839,9.20185 2.90459,2.36315 3.27141,2.92502 2.88345,4.42057 -0.27552,1.06224 -1.10021,2.15566 -2.24698,2.97923 -1.15246,0.82763 -1.50591,1.25219 -1.72636,2.07087 -0.24666,0.91603 0.039,2.17229 0.7477,3.28974 l 0.51752,0.81722 -0.41015,0.10268 c -0.41281,0.10359 -1.25198,0.93934 -3.74701,3.7308 -1.36581,1.52815 -2.01884,2.00601 -3.02558,2.2153 -0.38343,0.0797 -0.54766,0.2216 -0.54766,0.47196 0,0.55983 0.78133,0.53908 3.20093,-0.0858 3.11479,-0.8039 3.73169,-0.75459 4.35027,0.34604 0.50785,0.90353 0.52767,2.24215 0.041,2.72897 -0.46619,0.46621 -1.41056,0.26509 -3.4535,-0.73381 -0.83633,-0.40894 -1.56152,-0.70167 -1.61205,-0.65114 -0.13512,0.13512 2.44236,1.90556 3.143,2.15891 l 0.59938,0.21704 -0.448,0.58782 c -0.70527,0.92467 -0.74604,2.04896 -0.16452,4.48082 0.59282,2.47917 0.55768,3.51192 -0.16994,4.99911 -0.95924,1.96062 -2.75192,2.81422 -6.21721,2.9607 -2.61737,0.11061 -4.92372,-0.16482 -10.49722,-1.25132 -3.14964,-0.61399 -4.34021,-0.7681 -6.02488,-0.77707 -1.96662,-0.012 -2.18425,0.0241 -3.4311,0.56387 -0.63067,0.27301 -1.28531,0.65693 -1.94651,1.13547 -0.0341,-0.029 -0.085,-0.0448 -0.15758,-0.0448 -0.10552,0 -0.62298,0.46075 -1.14935,1.02423 -2.2261,2.383 -4.79479,3.53989 -8.25024,3.71536 -1.86016,0.0945 -2.3221,0.0451 -4.08303,-0.43488 -4.77674,-1.30255 -8.76869,-4.17531 -13.47489,-9.69852 -2.46198,-2.8893 -3.34574,-4.14464 -2.58993,-3.67751 0.14395,0.0889 0.17599,0.0541 0.0858,-0.0919 -0.0795,-0.12854 -0.22227,-0.18551 -0.31746,-0.12675 -0.0952,0.0587 -0.40403,-0.19508 -0.68592,-0.56465 l -0.51211,-0.672 v -15.4886 c 0,-9.29088 0.0786,-15.9013 0.1962,-16.52133 0.32838,-1.73149 1.17367,-2.48331 3.08428,-2.74518 0.57873,-0.0794 0.91531,-0.22629 0.91531,-0.39857 0,-0.22266 -0.88145,-0.27267 -4.81218,-0.27267 -3.6156,0 -4.79185,0.0587 -4.73264,0.23636 0.0434,0.13004 0.57797,0.33558 1.18722,0.45728 1.34658,0.26888 2.04217,0.70105 2.5096,1.55643 0.32578,0.59615 0.36148,1.72351 0.45341,14.23341 0.055,7.47237 0.055,14.39533 0,15.38433 l -0.0997,1.79819 -0.69981,-0.98098 c -0.38461,-0.53935 -1.46357,-2.03854 -2.39761,-3.33144 -0.93405,-1.29293 -1.96754,-2.73281 -2.29718,-3.19938 -0.32968,-0.46658 -1.78448,-2.51869 -3.23258,-4.56038 -3.01163,-4.24618 -9.27155,-13.12961 -12.26065,-17.39803 -1.115791,-1.59335 -2.291951,-3.16631 -2.612331,-3.49597 l -0.58241,-0.5994 -3.49289,-0.0634 c -2.801994,-0.0504 -3.492894,-0.0105 -3.492894,0.20313 0,0.15474 0.43157,0.36729 1.03504,0.51059 1.164304,0.27655 1.758614,0.74466 2.589164,2.0361 l 0.5716,0.88829 v 16.83338 c 0,11.0431 -0.0728,17.17097 -0.21087,17.81513 -0.33974,1.58405 -1.39668,2.41918 -3.383994,2.67181 -0.28184,0.0359 -0.52608,0.21437 -0.56386,0.41247 -0.062,0.32494 0.26399,0.34991 4.621404,0.34991 3.83794,0 4.70872,-0.052 4.79673,-0.28117 0.14364,-0.37425 -0.0303,-0.51906 -0.62411,-0.51906 -0.87259,0 -2.00503,-0.44221 -2.50033,-0.97712 -1.03911,-1.12216 -1.01705,-0.74923 -1.08525,-18.18202 -0.0558,-14.23783 -0.0274,-16.23268 0.22785,-16.0208 0.24663,0.20468 4.931421,6.653 6.513851,8.96627 0.5137,0.75096 6.43504,9.11292 8.09342,11.42952 8.02996,11.21697 9.97022,13.69009 13.57223,17.30147 1.43552,1.43934 3.34354,3.15901 4.23982,3.8204 3.04085,2.24365 7.37216,4.14365 10.58064,4.64225 1.90806,0.29649 5.96462,0.11614 7.56973,-0.336 1.29586,-0.36509 2.3013,-0.7533 3.20633,-1.27296 -0.0939,0.12646 -0.22941,0.29988 -0.22941,0.31902 0,0.28145 0.32564,0.0244 1.54716,-1.22043 0.43341,-0.34659 0.86524,-0.74108 1.32007,-1.1988 0.10268,-0.10328 0.16319,-0.1762 0.25643,-0.27266 0.99661,-0.85143 1.92131,-1.46575 2.98001,-1.96118 1.0952,-0.51251 1.49987,-0.59964 3.1005,-0.6666 1.88434,-0.0789 2.16238,-0.0442 8.41398,1.05203 10.88782,1.90929 15.40345,0.67855 16.35295,-4.45763 0.22075,-1.1942 0.14304,-1.87079 -0.48277,-4.21356 -0.53377,-1.99821 -0.40507,-2.75624 0.62566,-3.68909 1.4931,-1.35131 1.64295,-1.54212 1.76267,-2.25084 0.19345,-1.14513 -0.0623,-2.15664 -0.72839,-2.88345 l -0.59477,-0.64883 0.85122,-0.83267 c 0.61894,-0.605 0.93996,-1.11406 1.17486,-1.86462 0.46677,-1.49183 0.28148,-2.22628 -0.82033,-3.25654 -0.98474,-0.92078 -1.43592,-1.83159 -1.43592,-2.89735 0,-0.80108 0.30138,-1.18222 2.03918,-2.58066 0.63952,-0.51466 1.24106,-1.21955 1.61051,-1.88625 0.52462,-0.94738 0.5819,-1.18782 0.51598,-2.1906 -0.0456,-0.69339 -0.20736,-1.3275 -0.4202,-1.64912 -0.19019,-0.28741 -1.37725,-1.34802 -2.6386,-2.35666 -2.72349,-2.17773 -5.66216,-5.09255 -6.66832,-6.61347 -0.39804,-0.60164 -0.93124,-1.58728 -1.18488,-2.19059 -0.50504,-1.20121 -0.51902,-1.53917 -0.35919,-8.85582 0.0558,-2.551487 0.004,-3.513467 -0.25411,-4.774327 -0.88603,-4.32174 -2.49436,-8.19799 -5.06401,-12.20504 -1.21451,-1.89388 -3.75214,-5.111886 -4.03126,-5.111886 z M 35.078374,91.502793 c -1.358489,0 -2.055909,1.75602 -1.083709,2.72819 0.636354,0.63634 1.440358,0.5954 2.144243,-0.10807 0.478748,-0.47874 0.540932,-0.64858 0.448005,-1.2212 -0.146798,-0.90456 -0.680037,-1.39886 -1.508539,-1.39886 z m 55.268321,2.30182 c -0.76668,-0.001 -1.73976,0.003 -2.96842,0.0135 -1.53842,0.0135 -4.44517,0.0233 -6.45976,0.0239 -2.71428,4.6e-4 -3.64272,0.061 -3.58481,0.23482 0.043,0.12885 0.34253,0.2646 0.66583,0.30125 2.24107,0.25413 3.48472,0.9835 4.15794,2.4393 0.42435,0.91759 0.42598,0.98945 0.48045,20.892467 0.0592,21.63181 0.0312,22.35261 -1.03273,26.49483 -1.22808,4.78138 -3.75767,8.19858 -7.38744,9.97815 -3.66245,1.79565 -7.7188,1.8372 -11.214792,0.1136 -2.765623,-1.36328 -4.339507,-3.69321 -4.463825,-6.60653 -0.05936,-1.39129 0.0027,-1.76545 0.461137,-2.80234 0.675769,-1.52873 1.291274,-2.16147 2.632412,-2.70579 1.422082,-0.57718 2.916119,-0.47524 4.052128,0.27653 0.78951,0.52247 1.67759,0.67807 2.15119,0.37694 0.13049,-0.083 0.33417,-0.407 0.45341,-0.72067 0.17388,-0.45747 0.14738,-0.71437 -0.13672,-1.29534 -0.50016,-1.02286 -1.54791,-1.48464 -3.597168,-1.58425 -3.739021,-0.18183 -6.690423,1.64477 -8.172995,5.05859 -0.248217,0.57155 -0.349361,1.36416 -0.359175,2.80466 -0.01271,1.93207 0.01605,2.06553 0.741525,3.53384 1.496412,3.02846 4.668725,5.0906 8.935373,5.80783 0.27472,0.0463 1.36692,0.0966 2.42618,0.11121 8.99362,0.12705 16.46183,-6.26747 18.63699,-15.95669 0.69249,-3.08486 0.7476,-4.65101 0.81336,-23.28697 0.0362,-10.22643 0.13058,-19.023217 0.20933,-19.548447 0.28715,-1.91483 1.90927,-3.21103 4.202744,-3.35695 0.53516,-0.0341 0.98749,-0.16914 1.03428,-0.30973 0.0686,-0.20593 -0.37644,-0.27953 -2.676454,-0.28657 z m 76.726965,3.45427 c -2.03935,0.003 -3.432,0.5532 -5.81942,2.17205 -1.46611,0.994127 -3.58252,2.896207 -3.23645,2.908167 0.1281,0.004 0.80702,-0.28089 1.50854,-0.63417 4.98626,-2.510897 8.7764,-2.536087 12.3433,-0.0803 0.6885,0.47393 1.33395,0.84447 1.4344,0.8234 0.30109,-0.0632 0.63419,-0.87937 0.63569,-1.56107 0.006,-1.925307 -2.38615,-3.372157 -5.94764,-3.597157 -0.32253,-0.0203 -0.62707,-0.0314 -0.91842,-0.0309 z m -0.91841,7.986077 c -0.16194,-0.0462 -1.17636,0.35247 -1.4228,0.5878 -0.0954,0.091 -0.11375,0.16608 -0.0402,0.16608 0.27593,0 1.36041,-0.51812 1.47611,-0.70523 0.0164,-0.0266 0.0105,-0.0417 -0.0135,-0.0487 z m 4.38813,0.44181 c -0.13078,-0.0436 -0.16971,0.68475 -0.12047,2.26938 0.0396,1.28321 0.004,2.70269 -0.0795,3.15456 l -0.15216,0.82109 -1.32935,0.0541 c -1.98207,0.0803 -5.1038,-0.90511 -7.1897,-2.27015 -0.67088,-0.43902 -0.81979,-0.21076 -0.32056,0.49048 0.4564,0.64097 0.35292,0.81661 -0.60248,1.02423 -0.41059,0.0892 -0.46492,0.15741 -0.29043,0.36767 0.20264,0.24423 0.64614,0.22879 1.66302,-0.0571 0.44921,-0.12646 0.41404,0.42057 -0.0456,0.70754 -0.4919,0.30715 -0.46033,0.50516 0.0803,0.50516 0.25137,0 0.57825,-0.17944 0.74848,-0.41093 0.29252,-0.39766 0.29919,-0.38023 0.21937,0.54765 -0.0453,0.52718 -0.006,0.95857 0.0865,0.95857 0.31059,0 0.68993,-0.51709 0.69441,-0.94545 0.003,-0.31728 0.0981,-0.21721 0.37694,0.39781 0.61456,1.35557 1.70066,2.30006 1.16172,1.01033 -0.41316,-0.98883 -0.3252,-0.9825 0.5716,0.0425 0.99659,1.13936 1.62189,1.3288 0.90528,0.27421 -0.68513,-1.0083 -0.56848,-1.0149 0.42327,-0.0232 0.83009,0.82995 1.48691,1.13653 1.48691,0.69363 0,-0.10822 0.1,-0.13094 0.22788,-0.0517 0.12555,0.0777 0.5569,0.19563 0.95856,0.26185 l 7.8e-4,7.8e-4 c 0.40165,0.0662 0.79133,0.13093 0.86666,0.14289 0.28397,0.0474 0.11988,-0.25196 -0.36458,-0.66428 -0.38959,-0.33149 -0.4134,-0.38476 -0.10343,-0.23559 0.52168,0.25079 2.27122,0.26183 1.88316,0.009 -0.15063,-0.0975 -0.44948,-0.17852 -0.66429,-0.17998 -0.2147,-10e-4 -0.5848,-0.16669 -0.82185,-0.36767 l -0.43101,-0.36536 0.54765,0.27267 c 0.56258,0.28035 1.69173,0.35488 2.41921,0.15989 0.57163,-0.1532 0.51455,-0.4313 -0.0912,-0.44027 -0.45434,-0.007 -0.43476,-0.0321 0.20546,-0.26031 0.90658,-0.32314 1.37219,-0.76295 0.57005,-0.53839 -0.93949,0.26303 -1.88193,0.17342 -2.41692,-0.22941 -0.48809,-0.36753 -0.50259,-0.42598 -0.45341,-1.90788 0.059,-1.77533 -0.33896,-5.12476 -0.62025,-5.21848 z m -139.824554,0.95085 c -0.787475,0 -3.260404,4.73944 -3.928538,7.52879 -0.349711,1.4601 -0.393224,2.04929 -0.323645,4.38196 0.08541,2.86311 0.33965,3.9322 1.706279,7.16807 l 0.501304,1.18644 -0.410157,3.92545 c -0.225557,2.1589 -0.48478,4.54108 -0.576227,5.29418 -0.09145,0.7531 -0.246475,2.06779 -0.344499,2.92129 -0.09804,0.85352 -0.303535,2.45556 -0.456502,3.5601 -0.152963,1.10456 -0.287094,2.52604 -0.298155,3.1592 -0.01106,0.63325 -0.04161,1.12686 -0.06798,1.09606 -0.02638,-0.0308 -0.385545,-1.29791 -0.797912,-2.81546 -0.747594,-2.75126 -0.74987,-2.76528 -0.611758,-4.92033 0.394665,-6.15879 -1.164498,-10.27565 -5.703562,-15.0576 -0.909397,-0.95797 -1.945504,-2.10323 -2.301817,-2.54436 -0.48747,-0.60351 -0.729042,-0.77108 -0.977114,-0.67587 -0.270188,0.10374 -0.311927,0.26678 -0.230181,0.90143 0.05486,0.42589 0.188541,2.08864 0.29661,3.69526 0.256242,3.8096 0.835047,6.13756 2.202947,8.862 0.820055,1.63322 1.60144,2.65101 3.92004,5.10415 2.060843,2.18053 2.147618,2.31269 2.520412,3.83431 1.112699,4.54171 1.225992,5.42771 1.030411,8.04786 -0.281058,3.7651 -0.982357,7.29139 -2.441626,12.27224 -0.894524,3.05332 -1.451608,5.43051 -1.698554,7.24841 l -0.161437,1.18644 -0.143673,-1.27759 c -0.07891,-0.7029 -0.392345,-2.67501 -0.696725,-4.38194 -0.619596,-3.47489 -0.620067,-3.47907 -0.249491,-4.9018 0.411943,-1.58161 0.712185,-4.61651 0.597853,-6.04342 -0.151076,-1.88566 -0.932589,-4.71033 -1.768072,-6.38948 -0.402323,-0.80857 -1.344968,-2.29178 -2.094808,-3.29592 -0.749851,-1.00414 -1.409616,-2.03257 -1.466057,-2.2856 -0.05644,-0.25303 -0.297103,-0.70476 -0.535289,-1.00337 -0.42539,-0.53349 -0.440143,-0.53671 -0.808725,-0.20314 -0.351766,0.31839 -0.394562,0.31975 -0.682821,0.0317 -0.849282,-0.84929 -1.716321,-1.03805 -1.716321,-0.37384 0,0.15663 0.25773,0.79576 0.573137,1.42048 0.871865,1.72689 0.913631,1.95552 1.0783,5.9739 0.244234,5.96009 1.043607,8.28626 4.022001,11.70065 1.37563,1.577 1.653065,2.00792 1.964269,3.05493 0.520233,1.75032 1.318886,7.32216 1.771934,12.35643 0.193998,2.15574 0.782208,5.75419 1.230469,7.53111 0.234303,0.92882 0.407944,1.68852 0.386211,1.68852 -0.02173,0 -0.384383,-0.67782 -0.806409,-1.50622 -0.941842,-1.84882 -1.971823,-3.67286 -3.251123,-5.75763 -0.535205,-0.87219 -1.366563,-2.33517 -1.847632,-3.2519 -0.782427,-1.49099 -0.898564,-1.86716 -1.095294,-3.56318 -0.358381,-3.0896 -0.947542,-4.52859 -2.595337,-6.33927 -0.467485,-0.51369 -0.878002,-0.99843 -0.912231,-1.07676 -0.152763,-0.34956 -1.641654,-1.34818 -1.927965,-1.29303 -0.6237906,0.12018 -0.7056856,0.95437 -0.235588,2.38678 0.238732,0.72744 0.414891,1.4935 0.391618,1.70242 -0.05462,0.49011 0.642604,2.35752 1.187211,3.18006 0.232696,0.35146 0.76212,0.92692 1.176398,1.27836 1.896615,1.60893 2.665999,2.41353 3.08737,3.22873 0.249947,0.48354 0.831804,1.49541 1.293035,2.24851 0.461229,0.75311 1.106754,1.86242 1.434387,2.46479 0.327641,0.60248 0.661064,1.17715 0.741525,1.27759 0.243204,0.30351 2.406025,4.68189 4.453011,9.01416 2.115072,4.47644 3.3557,6.79066 5.189129,9.67999 1.283466,2.02273 1.787972,2.30815 0.651151,0.36845 -0.749927,-1.27957 -2.560991,-5.02812 -3.387841,-7.01281 -2.304357,-5.53119 -3.982607,-12.51081 -3.982607,-16.56304 0,-2.50047 0.985187,-4.80382 2.99777,-7.00896 1.063886,-1.16568 1.240582,-1.28312 2.406865,-1.59505 0.692368,-0.1852 2.327332,-0.40863 3.6327,-0.49667 3.784203,-0.255 6.331051,-1.07046 8.743814,-2.80003 1.167223,-0.83671 1.757974,-1.38465 3.831984,-3.54849 0.691372,-0.72136 1.578133,-1.49197 1.970449,-1.71247 0.517876,-0.29107 0.699163,-0.50329 0.660419,-0.77397 -0.04998,-0.34917 -0.227576,-0.38147 -2.792304,-0.51211 -4.117998,-0.20984 -6.461886,0.0834 -9.035789,1.13082 -3.030505,1.23329 -6.153565,4.16503 -7.737349,7.26386 -0.165125,0.32308 -0.923456,1.22684 -1.684651,2.0083 -0.76121,0.78147 -1.746187,2.03588 -2.189043,2.78689 -0.546,0.92583 -0.804865,1.23449 -0.804865,0.95858 0,-1.43903 1.199159,-6.63918 2.121843,-9.20032 0.598325,-1.66083 3.281318,-6.76927 4.791332,-9.12306 0.962011,-1.49965 1.314002,-1.88276 2.39219,-2.60617 0.695335,-0.46651 1.822555,-1.09935 2.505737,-1.4058 3.664424,-1.64377 4.954951,-2.37702 6.632012,-3.76787 2.401003,-1.99139 4.229256,-4.39421 5.611644,-7.37586 0.216344,-0.46663 0.643718,-1.24296 0.949306,-1.72481 1.045238,-1.64819 0.687221,-1.98206 -1.288399,-1.2019 -0.743073,0.29343 -2.131132,0.75551 -3.085052,1.02733 -6.296906,1.79434 -9.790892,5.20986 -11.866716,11.60023 -0.401984,1.23752 -0.730711,2.3609 -0.730711,2.49647 0,0.13557 -0.467399,0.92417 -1.038134,1.75185 -0.570733,0.82767 -1.690109,2.57295 -2.487971,3.87832 -0.797849,1.30538 -1.405013,2.16742 -1.348647,1.91639 0.05637,-0.25104 0.148067,-0.74385 0.203147,-1.09531 0.05508,-0.35145 0.260285,-1.66611 0.4565,-2.92129 0.196213,-1.25517 0.617339,-5.03391 0.935403,-8.39777 0.643939,-6.81044 0.813967,-7.56345 2.539723,-11.23641 1.291854,-2.74948 2.865635,-4.13145 5.797024,-5.09027 0.935889,-0.30604 0.967551,-0.30388 2.213762,0.14514 3.597293,1.29762 6.449702,1.27778 9.434358,-0.0656 1.020144,-0.45924 4.320574,-2.54429 5.08408,-3.21173 0.746353,-0.65244 0.04493,-0.77743 -6.179374,-1.09761 -2.087342,-0.10732 -2.54234,-0.0756 -3.771735,0.26184 -1.876514,0.51521 -3.257567,1.14549 -4.603633,2.10099 -0.615466,0.4369 -1.668987,0.97071 -2.341984,1.18644 -0.672984,0.21575 -1.642228,0.63936 -2.153512,0.94081 -0.511273,0.30148 -0.971302,0.54766 -1.021913,0.54766 -0.127994,0 0.936431,-1.5335 1.900158,-2.73824 1.183156,-1.47905 3.68086,-4.00615 5.094893,-5.15437 1.113194,-0.90395 1.430575,-1.05516 3.15457,-1.50545 2.95756,-0.77247 4.781589,-1.49765 6.526191,-2.59534 2.240528,-1.40969 3.441416,-1.98736 4.65616,-2.23848 0.577368,-0.11943 1.04972,-0.28698 1.04972,-0.37307 0,-0.56364 -5.262206,-0.42787 -7.209012,0.18615 -2.71827,0.85735 -5.414818,2.55709 -6.601116,4.16026 -0.286663,0.38739 -1.2727,1.33309 -2.190589,2.10176 -2.623658,2.1971 -7.002774,7.05169 -7.002774,7.76284 0,0.0996 -0.06534,0.20828 -0.145213,0.24176 -0.185828,0.0779 -1.707865,2.72904 -2.537404,4.4198 l -0.638022,1.30076 0.10505,-0.913 c 0.05788,-0.50207 0.236111,-2.50203 0.396252,-4.44452 l 0.291203,-3.5315 1.088342,-2.18365 c 0.598613,-1.2007 1.309318,-2.97967 1.579602,-3.95324 0.43931,-1.5825 0.492033,-2.08047 0.492033,-4.6917 0,-2.66743 -0.04578,-3.07939 -0.522929,-4.74653 -0.287391,-1.00415 -0.572924,-2.44164 -0.63493,-3.19474 -0.09935,-1.20634 -0.156387,-1.3695 -0.475812,-1.3695 z m 132.484234,0.40939 c -0.0489,0.0169 -0.20225,0.1296 -0.44955,0.31437 -0.38017,0.28406 -0.85802,0.75079 -1.06208,1.03736 -0.60883,0.85501 -0.13766,0.55451 0.84039,-0.53605 0.54435,-0.60695 0.75272,-0.8439 0.67124,-0.81568 z m 5.71901,7.07615 0.54765,0.4565 c 0.30125,0.25104 0.58226,0.47697 0.62411,0.50208 0.0418,0.0251 -0.006,0.0456 -0.10508,0.0456 -0.0997,0 -0.38066,-0.22594 -0.62411,-0.50208 z m -120.993688,2.72125 c 0.0262,-10e-4 0.04094,0.003 0.04094,0.0163 0,0.0454 -0.242132,0.20829 -0.538377,0.36148 -0.581328,0.3006 -0.919945,0.36998 -0.639565,0.13049 0.206722,-0.17629 0.953598,-0.49912 1.137005,-0.50825 z m -18.434618,2.52273 c 0.01285,0.0135 8.92e-4,0.0909 -0.03244,0.23327 -0.04707,0.20083 -0.140654,1.62077 -0.208553,3.15611 -0.06791,1.53536 -0.196532,3.01454 -0.285797,3.28665 -0.112224,0.34207 -0.136902,0.0716 -0.07879,-0.87514 0.04623,-0.75311 0.137112,-2.2725 0.201603,-3.37704 0.0645,-1.10456 0.19383,-2.13187 0.28734,-2.28249 0.06631,-0.10673 0.103749,-0.15502 0.116634,-0.14141 z m 149.004016,5.61859 c -0.2612,0 -0.72066,1.14472 -0.72066,1.79511 0,0.5968 0.5865,1.4422 1.16558,1.67925 h 7.7e-4 c 0.42112,0.17238 1.37787,0.0528 1.65375,-0.20702 0.10433,-0.0982 -0.0534,-0.16375 -0.39625,-0.16375 -1.18169,0 -2.29141,-1.66629 -1.7194,-2.5822 0.2582,-0.41352 0.26092,-0.52139 0.0163,-0.52139 z m 5.39074,0.22709 c -0.32505,-3e-4 -0.7481,0.099 -1.14011,0.29893 -0.70754,0.36097 -1.8677,1.51264 -1.8677,1.85381 0,0.35377 0.5309,0.16092 1.27913,-0.46422 0.42146,-0.35213 0.98395,-0.6853 1.24977,-0.74076 0.69499,-0.14513 1.03118,-0.35644 1.03118,-0.64729 0,-0.20029 -0.22723,-0.30017 -0.55227,-0.30047 z m -165.224108,1.65994 c 0.007,-0.0327 0.06871,0.0414 0.190016,0.2016 0.147604,0.19491 0.268803,0.4626 0.268803,0.59399 0,0.37897 -0.08646,0.28316 -0.319784,-0.35454 -0.09814,-0.26823 -0.14605,-0.40831 -0.139039,-0.44105 z m 0.535287,1.53788 c 0.05351,0.02 0.142896,0.17248 0.22941,0.40167 0.115333,0.30559 0.179286,0.55538 0.141356,0.55538 -0.136558,0 -0.469715,-0.75444 -0.410927,-0.93079 0.0082,-0.0248 0.02233,-0.0329 0.04016,-0.0263 z m 1.912517,0.4511 c 0.009,0.007 0.0139,0.0244 0.0139,0.0495 0,0.10045 -0.07955,0.30588 -0.176884,0.45651 -0.09734,0.15066 -0.177658,0.19131 -0.177658,0.0912 0,-0.10044 0.08033,-0.30586 0.177658,-0.45649 0.073,-0.113 0.13602,-0.16398 0.16298,-0.14065 z m 0.286568,0.59013 c 0.01106,0.004 0.02365,0.0211 0.03631,0.0525 0.05064,0.12556 0.05064,0.33095 0,0.45651 -0.05066,0.12556 -0.09193,0.0232 -0.09193,-0.22787 0,-0.18831 0.02259,-0.29348 0.05562,-0.28116 z m -0.948533,0.30125 c 0.0154,-0.0154 0.06587,0.0241 0.156029,0.1136 0.124779,0.12376 0.181313,0.2713 0.125138,0.32751 -0.05622,0.0562 -0.158529,-0.0454 -0.227092,-0.22554 -0.04954,-0.13019 -0.06946,-0.20012 -0.05407,-0.21551 z m 0.06411,0.92072 c 0.038,0.009 0.105976,0.0731 0.204692,0.19543 0.31622,0.39188 2.323608,5.38113 3.237992,8.04863 0.475395,1.38689 0.822794,2.56273 0.772421,2.6131 -0.05037,0.0504 -0.316472,-0.59109 -0.591674,-1.42588 -0.590653,-1.79158 -2.352433,-6.28397 -3.166157,-8.07335 -0.413921,-0.91029 -0.571256,-1.38433 -0.457274,-1.35793 z m 163.873139,2.74365 c 0.0942,-0.0105 0.18613,-0.0105 0.2773,0 0.44905,0.0516 0.5114,0.13975 0.55459,0.78787 0.0886,1.33163 -1.65529,3.62804 -2.14888,2.82938 -0.13557,-0.21929 -0.20878,-0.2147 -0.4897,0.0348 -0.18185,0.16119 -1.06744,0.54793 -1.96736,0.85971 -0.89993,0.31177 -1.66628,0.56696 -1.7032,0.56696 -0.0369,0 0.37533,-0.40411 0.91609,-0.89833 0.54074,-0.49422 1.47156,-1.48616 2.06856,-2.20372 1.08285,-1.30157 1.83325,-1.90273 2.4926,-1.97663 z M 41.189001,140.5508 c 0.0165,9.9e-4 0.02549,0.009 0.02549,0.0232 0,0.0453 -0.329055,0.34231 -0.730711,0.66043 -0.764895,0.60584 -1.030137,0.58961 -0.319009,-0.0193 0.420534,-0.36022 0.90872,-0.67121 1.024231,-0.66429 z m -1.814418,1.38881 c 0.0608,0.007 -0.692639,0.72835 -1.720956,1.63909 -0.301515,0.26703 -1.039373,0.93772 -1.639852,1.48999 -1.119428,1.02958 -1.061525,0.78267 0.08652,-0.36843 0.680463,-0.68232 2.586648,-2.30357 3.197053,-2.71893 0.0435,-0.0296 0.06855,-0.0428 0.07725,-0.0417 z m -22.938608,7.57978 c 0.01919,-0.0191 0.04424,0.007 0.07338,0.0795 0.05279,0.13183 0.04581,0.28921 -0.01465,0.3499 -0.06067,0.0607 -0.103704,-0.0478 -0.09578,-0.24022 0.0043,-0.10627 0.01788,-0.17005 0.03708,-0.18924 z m 0.425604,1.82678 c 0.02182,-9.7e-4 0.04596,0.006 0.07106,0.0208 0.100415,0.062 0.18229,0.19056 0.18229,0.28503 0,0.0945 -0.08188,0.17147 -0.18229,0.17147 -0.100416,0 -0.183064,-0.12765 -0.183064,-0.28425 0,-0.11749 0.04653,-0.1902 0.112,-0.1931 z m 20.682364,0.24641 c -0.05638,0.088 -0.116305,0.17398 -0.173023,0.26184 0.0087,-0.0135 0.02004,-0.0247 0.02858,-0.0378 0.03415,-0.0507 0.0678,-0.10164 0.101955,-0.15218 0.0087,-0.0265 0.05753,-0.0955 0.04248,-0.0718 z m -20.119269,1.17408 v 7.6e-4 c 0.04995,0.0199 0.112628,0.12002 0.159119,0.26262 0.06199,0.1901 0.18802,0.55073 0.279617,0.80177 0.0916,0.25104 0.377773,1.44291 0.636475,2.64787 0.258702,1.20497 0.629267,2.92276 0.82263,3.81731 0.193367,0.89456 0.320184,1.6572 0.281934,1.69547 -0.09118,0.0912 -0.169127,-0.20078 -1.025776,-3.86984 -0.398563,-1.70704 -0.851662,-3.58791 -1.007239,-4.17957 -0.155573,-0.59167 -0.241842,-1.1169 -0.19156,-1.16713 0.01256,-0.012 0.02815,-0.0169 0.0448,-0.009 z m 68.972621,6.03106 c -0.93853,-0.0315 -2.03776,0.0925 -3.2936,0.3723 -4.55828,1.01534 -9.00405,3.19029 -13.53824,6.62353 -1.94503,1.47275 -5.539405,5.06454 -5.758401,5.75453 -0.07209,0.22713 -0.201908,0.41325 -0.288113,0.41325 -0.325957,0 -1.491899,2.9188 -1.577285,3.94862 -0.164214,1.98011 0.917838,3.64661 3.059563,4.71332 1.093046,0.5444 4.139666,1.35586 6.493746,1.72945 2.03667,0.32323 4.55229,0.91171 5.36602,1.25518 l 0.67046,0.28349 -0.92614,0.51752 c -2.14503,1.19889 -4.93765,3.32822 -6.76332,5.15745 -2.13444,2.13861 -2.93657,3.4769 -2.93984,4.90411 -0.002,0.6919 0.10504,0.92271 0.63957,1.3726 h 7.7e-4 c 0.5958,0.50133 0.74421,0.5345 2.04769,0.448 0.97321,-0.0646 1.88353,-0.29417 2.96146,-0.74538 5.18136,-2.16894 9.09975,-6.70233 8.32903,-9.63675 -0.12433,-0.47338 -0.49475,-1.19957 -0.82263,-1.61358 l -0.59631,-0.75234 1.74336,-0.801 c 2.05455,-0.94473 5.08743,-2.04278 5.23547,-1.89475 0.0571,0.0571 -0.17511,0.93593 -0.51675,1.95269 -0.75902,2.2591 -0.95845,3.69088 -0.64574,4.63839 0.4788,1.45072 1.62033,1.67466 3.15534,0.61871 0.54984,-0.37821 1.06171,-0.62526 1.13778,-0.54919 0.0765,0.0761 0.10848,0.0362 0.0718,-0.0888 -0.0366,-0.12496 0.76293,-1.13687 1.77734,-2.24852 l 1.844554,-2.02144 -0.11587,0.84968 c -0.21354,1.56947 1.06382,2.45904 2.32652,1.62054 0.2717,-0.18043 1.19481,-1.01159 2.05156,-1.84763 1.54201,-1.50486 1.55719,-1.51349 1.44056,-0.83808 -0.15916,0.92142 0.0472,1.75115 0.55383,2.22303 0.825831,0.76935 2.218071,0.41107 4.140941,-1.06749 0.71427,-0.54925 1.39348,-1.07209 1.5101,-1.16173 0.14603,-0.11225 0.18518,0.20231 0.1266,1.00956 -0.0783,1.08405 -0.0454,1.19842 0.43024,1.51009 0.82101,0.53794 1.72774,0.10254 3.66745,-1.75958 l 1.67616,-1.60895 -0.1568,1.38495 c -0.24199,2.14378 -0.18886,5.69007 0.0981,6.50534 0.2625,0.74697 0.95015,1.5293 1.16017,1.31929 0.0653,-0.0653 -0.0259,-0.69309 -0.20161,-1.39422 -0.38996,-1.55474 -0.44661,-4.55299 -0.0795,-4.18576 0.13184,0.13183 0.51374,0.23909 0.84889,0.23869 0.92276,-0.001 1.59975,-0.46492 4.37423,-2.99622 0.83747,-0.76409 0.95953,-0.82465 0.80872,-0.40013 -0.0976,0.2747 -0.17766,0.96872 -0.17766,1.54175 0,1.36574 0.37695,1.76131 1.65607,1.73873 1.19995,-0.0211 2.21322,-0.5449 4.23211,-2.18827 l 1.59737,-1.30075 -0.12122,0.88827 c -0.20309,1.48166 0.0353,2.22779 0.83266,2.60616 0.65451,0.31056 0.74246,0.3072 1.54331,-0.0525 0.97991,-0.44062 1.51571,-0.97709 2.22072,-2.22304 0.49693,-0.87827 0.51287,-0.88728 1.48303,-0.83576 1.33864,0.071 3.23015,-0.45229 5.03157,-1.39267 1.81023,-0.94502 2.28254,-1.2889 2.12338,-1.5464 -0.0682,-0.11046 -0.95817,0.22598 -2.06005,0.77861 -2.04498,1.02562 -3.29039,1.38727 -4.7751,1.38727 h -0.9022 l 0.13677,-0.94854 c 0.0747,-0.52197 0.13602,-0.99398 0.13602,-1.04894 -3.8e-4,-1.12057 -0.10762,-1.47289 -0.577,-1.90789 -0.29077,-0.26947 -0.72786,-0.49049 -0.97171,-0.49049 -0.46647,0 -1.49617,0.69756 -1.49617,1.01342 0,0.31373 -3.42275,3.64107 -4.79211,4.65847 -1.37287,1.02 -2.99926,1.92025 -3.46817,1.92025 -0.15508,0 -0.40001,-0.14185 -0.54379,-0.31515 -0.37188,-0.4481 -0.0105,-1.7335 1.13468,-4.02741 0.93989,-1.88451 1.00431,-2.45011 0.2804,-2.45011 -0.27847,0 -0.64022,0.36338 -1.13855,1.1424 -1.08014,1.68864 -4.0042,4.38778 -5.71052,5.27179 -0.60266,0.31226 -0.83666,0.3447 -1.17562,0.16297 -0.37901,-0.20282 -0.41067,-0.34481 -0.30434,-1.36255 0.23267,-2.22611 0.75915,-3.4179 2.35357,-5.33358 4.33082,-5.20343 7.76979,-10.85339 7.76979,-12.76349 0,-0.62585 -0.64928,-1.30329 -1.24823,-1.30229 -0.96246,0.001 -2.48267,1.41682 -4.10852,3.82426 -1.37725,2.03934 -4.40095,8.7523 -4.76738,10.58449 -0.10374,0.51854 -0.16635,0.58016 -0.34527,0.33754 -1.01452,-1.3757 -3.17377,-0.83506 -4.70791,1.17873 -0.97672,1.28202 -4.10556,3.82287 -5.37606,4.36572 -0.9267,0.39603 -1.37368,0.36051 -1.5263,-0.12047 -0.213891,-0.67392 0.0791,-1.81013 0.89446,-3.47203 0.77686,-1.58341 0.82701,-1.98678 0.27575,-2.19831 -0.31576,-0.12122 -0.68726,0.22276 -2.331161,2.15427 -0.53526,0.62891 -1.0596,1.07284 -1.17949,0.99875 -0.13467,-0.0831 -0.15754,-0.0396 -0.061,0.11659 0.17811,0.28824 -1.85879,2.46413 -2.74365,2.93056 -0.48619,0.25587 -0.56759,0.25436 -0.66738,-0.004 -0.19055,-0.49657 0.45867,-2.32768 1.42126,-4.01042 0.97103,-1.69777 1.07055,-2.36175 0.36921,-2.46171 -0.34523,-0.0492 -0.61615,0.24647 -1.39808,1.52322 -1.55852,2.54488 -5.952054,7.28518 -7.250714,7.82309 -1.21695,0.50408 -1.48921,-0.39572 -0.90142,-2.97999 0.4015,-1.76523 1.00546,-3.32093 1.26677,-3.26041 0.11304,0.0262 0.15659,-0.0807 0.0965,-0.23712 -0.10535,-0.27448 1.87872,-4.63396 3.32373,-7.30325 l 0.703684,-1.29844 1.19493,-0.12825 c 1.91222,-0.20511 5.08476,-0.18916 5.48961,0.0278 0.47519,0.25433 1.03782,0.0434 0.96011,-0.35995 -0.10254,-0.53264 -1.15541,-0.66715 -4.2066,-0.5407 l -2.94757,0.12197 0.56619,-0.95934 c 0.31119,-0.52751 0.80554,-1.33879 1.09916,-1.80362 0.29359,-0.46481 0.53374,-0.97103 0.53374,-1.12463 0,-0.38515 -0.48951,-0.75721 -0.8265,-0.62798 -0.15294,0.0587 -0.91044,1.16238 -1.6831,2.45167 -1.238524,2.06643 -1.475224,2.35089 -1.995164,2.40454 -0.32441,0.0335 -2.1444,0.37069 -4.04518,0.74926 -1.90079,0.37858 -3.7124,0.68821 -4.02509,0.68821 -0.55784,0 -0.81104,0.29251 -0.81104,0.93772 0,0.35945 0.20263,0.33401 3.09664,-0.39316 1.71896,-0.43197 3.51189,-0.78205 5.24474,-1.02501 0.24725,-0.0347 0.44955,0.003 0.44955,0.0842 0,0.0815 -0.71249,1.61169 -1.58346,3.4002 l -1.58424,3.2519 -2.76141,1.04509 c -1.51908,0.57476 -3.37041,1.32667 -4.11392,1.67074 -1.24289,0.57519 -1.39567,0.6029 -1.89784,0.34451 -0.77045,-0.39645 -3.24579,-1.02625 -6.74015,-1.71556 -3.47118,-0.68474 -5.15021,-1.15404 -4.99988,-1.3973 0.0584,-0.0945 -0.0553,-0.13034 -0.25258,-0.0788 -0.514914,0.13467 -2.236402,-1.10183 -2.684941,-1.92874 -0.293438,-0.54093 -0.353925,-0.93799 -0.264941,-1.75263 0.11771,-1.07815 1.18993,-3.64198 1.523216,-3.64198 0.101925,0 0.186153,-0.0958 0.186153,-0.21317 0,-0.32082 1.548383,-2.13848 2.899673,-3.40484 7.47077,-7.00119 19.46513,-11.29352 21.29953,-7.62148 0.47762,0.9561 0.0942,2.67451 -0.96167,4.30393 -0.30947,0.47767 -0.32024,0.58185 -0.0711,0.73611 0.42023,0.2602 0.53993,0.13094 1.35174,-1.45756 0.9197,-1.79963 1.03323,-3.44149 0.30897,-4.45687 -0.65064,-0.91214 -1.76802,-1.39643 -3.33223,-1.44906 z m -48.560604,2.50419 -0.456502,0.27498 v 7.8e-4 c -0.508666,0.30645 -0.908392,0.38577 -0.629524,0.12511 0.09539,-0.0891 0.378489,-0.21554 0.629524,-0.28116 z m -1.629038,0.67046 v 7.7e-4 c 0.0246,0.0272 -0.184999,0.15629 -0.561551,0.3391 -0.502058,0.24373 -0.995649,0.44496 -1.096065,0.44646 -0.275345,0.004 1.028555,-0.64821 1.551794,-0.77705 0.06276,-0.0154 0.09762,-0.0194 0.105827,-0.009 z m -16.451809,0.34218 c 0.01106,0.004 0.02365,0.0211 0.03631,0.0525 0.05064,0.12556 0.05064,0.33095 0,0.4565 -0.05066,0.12556 -0.09269,0.0232 -0.09269,-0.22787 0,-0.1883 0.02336,-0.29347 0.05638,-0.28116 z m 14.429609,0.48045 c 0.100416,0 -0.26959,0.23891 -0.821856,0.53066 -0.552275,0.29167 -1.086024,0.53065 -1.18644,0.53065 -0.100416,0 0.268818,-0.23898 0.821084,-0.53065 0.552275,-0.29175 1.086797,-0.53066 1.187212,-0.53066 z m 146.332977,0.31901 c -0.33536,0.0176 -0.66385,0.0401 -0.97169,0.0765 -0.0335,0.0374 -0.0577,0.0596 -0.0904,0.0958 0.35277,-0.0664 0.70685,-0.12167 1.06208,-0.17225 z m -150.169595,1.7588 c 0.03063,0.0134 0.03275,0.0463 7.72e-4,0.0981 -0.06134,0.0992 -0.188224,0.18076 -0.282706,0.18076 -0.26262,0 -0.205022,-0.13124 0.111223,-0.25259 0.08127,-0.0311 0.140071,-0.039 0.170705,-0.0263 z m 90.776545,0.29507 c 0.0656,0 0.11898,0.35587 0.11898,0.79019 0,0.9631 -1.03732,3.00533 -3.04797,5.9994 -1.80868,2.6934 -2.73773,3.8283 -2.9993,3.66669 -0.12093,-0.0746 -0.14813,-0.0321 -0.0656,0.10119 h -7.8e-4 c 0.0809,0.13064 -0.25029,0.71338 -0.76778,1.34865 -0.5008,0.61478 -0.91146,1.03725 -0.91146,0.93927 0,-0.0981 0.0801,-0.26331 0.17843,-0.36767 0.0982,-0.10433 0.54873,-1.11519 1.00106,-2.2462 1.32802,-3.32061 2.79073,-6.06721 4.453,-8.36302 0.65955,-0.91087 1.70549,-1.86848 2.04152,-1.86848 z m -91.506484,0.0703 c 0.03063,0.0134 0.03275,0.0463 7.72e-4,0.0981 -0.06134,0.0994 -0.189006,0.17998 -0.283478,0.17998 -0.262622,0 -0.204278,-0.13049 0.112,-0.25182 0.08127,-0.0311 0.140086,-0.039 0.170706,-0.0263 z m -16.016937,4.11238 c 0.08018,0 0.403918,0.53375 0.719898,1.18644 0.593486,1.22593 0.659115,1.48935 0.193105,0.77627 -0.506107,-0.77428 -1.058799,-1.96271 -0.913003,-1.96271 z m 14.687599,4.39971 c -0.343761,-0.0154 -0.68396,0.0939 -0.97634,0.33059 -0.630647,0.51068 -0.617045,1.9063 0.02317,2.42463 0.344337,0.27884 0.624534,0.34373 1.165584,0.27113 0.947688,-0.12705 1.293034,-0.50674 1.293034,-1.4228 0,-0.59097 -0.106439,-0.83928 -0.508253,-1.1849 -0.306289,-0.26346 -0.653435,-0.40332 -0.997197,-0.41865 z m 93.941942,1.23434 c -0.71602,0.045 -1.52829,1.36367 -1.05359,1.83835 0.25866,0.25864 0.59713,0.12675 1.14627,-0.44645 0.60535,-0.63187 0.62766,-1.27185 0.0487,-1.38341 -0.0465,-0.007 -0.0937,-0.012 -0.1414,-0.007 z m 7.0329,3.47512 c 0.11659,-0.0208 0.30056,0.10672 0.48816,0.39316 0.23579,0.36006 0.30153,0.75032 0.224,1.32857 -0.14574,1.08668 -0.40964,1.32605 -0.81799,0.74306 -0.36821,-0.52559 -0.43419,-1.57033 -0.0997,-1.57033 0.12511,0 0.17786,-0.17611 0.11973,-0.39935 -0.0798,-0.30549 -0.0309,-0.47435 0.0858,-0.49511 z m -18.93207,0.6666 c 0.0574,-0.003 0.11181,1.2e-4 0.16299,0.0134 0.2463,0.0607 0.42423,0.30532 0.56387,0.7284 0.2125,0.64414 0.19171,0.76159 -0.2132,1.19261 -0.24703,0.26303 -0.53946,0.42153 -0.65037,0.353 -0.11091,-0.0686 -0.14693,-0.0359 -0.0804,0.0719 0.12346,0.19974 -1.95384,2.3372 -2.851,2.93366 -0.68674,0.45656 -0.80487,0.41621 -0.80487,-0.27343 0,-0.9789 0.80291,-2.41071 2.09944,-3.74393 0.81071,-0.83369 1.37107,-1.252 1.77348,-1.27604 z m 18.87877,1.31775 c -0.0314,-0.004 -0.0559,-0.003 -0.0727,0.003 -0.0335,0.0149 -0.0366,0.0507 -10e-4,0.10732 0.0671,0.10867 0.20714,0.19776 0.31051,0.19776 0.28744,0 0.22397,-0.1438 -0.12197,-0.27654 -0.0445,-0.017 -0.0822,-0.0271 -0.1136,-0.0317 z m -1.52554,0.11196 0.76702,0.84657 c 0.42183,0.46625 0.76983,0.92437 0.77473,1.01728 0.012,0.23736 -0.74105,1.30863 -1.46064,2.07858 -1.57277,1.68279 -2.12048,-0.0632 -0.80487,-2.56676 z m -112.948914,0.68514 c -0.750013,0.0381 -1.456015,0.59736 -1.456015,1.54019 0,0.8068 0.267346,1.32893 0.787871,1.53867 0.973443,0.39221 1.86937,0.0592 2.24234,-0.83344 0.249107,-0.59619 0.243892,-0.71369 -0.05484,-1.32393 -0.325864,-0.66564 -0.936003,-0.95109 -1.519356,-0.92149 z m 34.209014,0.0819 c -0.06674,0.10881 -0.130998,0.219 -0.196967,0.32828 0.06478,-0.0726 0.125871,-0.14812 0.193106,-0.2186 0.0018,-0.0293 0.0021,-0.0798 0.0039,-0.10971 z m 29.281735,3.02558 c 0.64411,0 1.45872,1.31913 1.45833,2.36052 -2.3e-4,0.79131 -1.02489,2.79961 -1.97431,3.86829 -1.69638,1.90946 -4.84769,3.93868 -7.20206,4.63762 -1.42341,0.42263 -1.92768,0.40626 -2.4115,-0.0773 -0.67534,-0.67535 -0.4931,-1.43325 0.81722,-3.39711 0.81227,-1.21743 2.45074,-2.8332 4.27845,-4.22128 1.59064,-1.20808 4.70639,-3.17079 5.03387,-3.17079 z m 104.351095,10.84711 c -0.0176,0.0326 -0.0309,0.0447 -0.0487,0.0795 -1.83118,3.60953 -5.76225,9.55606 -9.05974,13.70508 -5.47879,6.89351 -12.48828,13.37509 -19.42718,17.96422 -11.21161,7.41492 -22.57721,11.65883 -36.33163,13.56526 -3.34419,0.4635 -3.97021,0.49353 -10.31568,0.49204 -6.02528,-0.001 -7.09006,-0.0475 -9.858431,-0.42252 -11.566344,-1.56671 -21.720044,-4.85287 -31.310894,-10.13417 -2.428346,-1.3372 -6.148596,-3.63449 -7.942036,-4.90411 -0.401656,-0.28435 -1.187272,-0.8353 -1.745673,-1.22505 -1.264431,-0.88258 -4.7422,-3.68548 -6.56095,-5.28724 -2.002022,-1.76308 -6.634583,-6.34536 -8.215478,-8.12588 -1.285226,-1.44787 -1.64456,-1.76097 -1.642169,-1.43283 0.0027,0.36767 4.665663,5.61891 7.145674,8.04709 4.835216,4.73407 9.162493,8.1794 14.761752,11.7524 3.609478,2.30316 9.56533,5.33762 13.55986,6.90854 3.85939,1.51765 9.62719,3.31136 12.91258,4.01581 4.706104,1.00907 8.482174,1.56396 12.999095,1.9102 6.97335,0.53454 15.60157,-0.0241 22.78489,-1.47533 15.53885,-3.13919 30.18935,-10.78595 41.23728,-21.52353 7.05283,-6.85464 11.99365,-13.43763 16.2757,-21.68573 0.46904,-0.90349 0.84827,-1.70991 1.0559,-2.21762 -0.0913,-0.001 -0.18283,-0.004 -0.27421,-0.006 z m -147.499345,9.51932 c -1.24918,-0.0581 -2.08116,1.49874 -1.15477,2.67645 0.716749,0.91121 2.181021,0.52613 2.612331,-0.68746 0.224372,-0.63135 -0.236058,-1.58154 -0.900645,-1.85921 -0.191594,-0.0801 -0.378461,-0.12152 -0.556916,-0.12975 z" /></g></svg>
