<?xml version="1.0" encoding="UTF-8" standalone="no"?>
<!-- Created with Inkscape (http://www.inkscape.org/) -->

<svg
   width="210mm"
   height="297mm"
   viewBox="0 0 210 297"
   version="1.1"
   id="svg2664"
   xml:space="preserve"
   inkscape:version="1.2.2 (b0a8486541, 2022-12-01)"
   sodipodi:docname="luva02.svg"
   xmlns:inkscape="http://www.inkscape.org/namespaces/inkscape"
   xmlns:sodipodi="http://sodipodi.sourceforge.net/DTD/sodipodi-0.dtd"
   xmlns="http://www.w3.org/2000/svg"
   xmlns:svg="http://www.w3.org/2000/svg"><sodipodi:namedview
     id="namedview2666"
     pagecolor="#ffffff"
     bordercolor="#000000"
     borderopacity="0.25"
     inkscape:showpageshadow="2"
     inkscape:pageopacity="0.0"
     inkscape:pagecheckerboard="0"
     inkscape:deskcolor="#d1d1d1"
     inkscape:document-units="mm"
     showgrid="false"
     inkscape:zoom="0.75544332"
     inkscape:cx="442.78636"
     inkscape:cy="538.09464"
     inkscape:window-width="1920"
     inkscape:window-height="1012"
     inkscape:window-x="0"
     inkscape:window-y="29"
     inkscape:window-maximized="1"
     inkscape:current-layer="layer1" /><defs
     id="defs2661" /><g
     inkscape:label="Camada 1"
     inkscape:groupmode="layer"
     id="layer1"><path
       id="path2797"
       style="fill:#000000;stroke-width:0.999998"
       d="m 154.56486,112.45023 c -0.4074,-2.1e-4 -2.8494,0.58401 -5.42622,1.29747 -3.1859,0.88211 -4.74024,1.50744 -4.85707,1.95505 -0.1456,0.55818 -0.76624,0.63614 -4.08532,0.51448 -6.13368,-0.22483 -18.66022,1.56057 -24.6294,3.50976 -3.80729,1.24324 -7.7468,6.15697 -9.51073,11.86291 -0.32488,1.05091 -0.5933,1.42306 -0.74279,1.02897 -0.1288,-0.33957 -0.63056,-1.69893 -1.11499,-3.021 -1.34366,-3.66701 -3.99049,-7.26554 -6.42142,-8.72936 -3.723859,-2.24235 -18.602189,-4.86719 -26.282178,-4.63681 -3.187521,0.0957 -4.354431,-0.006 -4.501747,-0.39148 -0.250811,-0.65687 -1.503621,-1.13599 -6.368355,-2.43578 -4.888347,-1.30607 -6.465082,-0.99655 -8.095921,1.58686 -3.370414,5.33915 -6.348318,18.96083 -4.483251,20.50869 0.339558,0.28181 0.617375,0.93225 0.617375,1.44539 0,1.5496 1.28764,2.63781 4.391625,3.71233 3.248798,1.12466 4.779798,0.94844 5.273471,-0.60693 0.416545,-1.31248 1.732855,-1.84678 2.8136,-1.14232 0.494155,0.3221 2.790717,1.27954 5.103845,2.12787 2.804065,1.02841 5.670587,2.50484 8.60156,4.43021 2.417807,1.58824 5.15618,3.23282 6.084596,3.65445 3.513549,1.59565 8.465443,0.53074 10.115277,-2.1753 1.748097,-2.86727 0.778333,-5.41334 -2.459887,-6.4592 -1.991635,-0.64327 -5.762242,-2.85243 -5.762242,-3.37633 0,-0.2372 0.53611,-0.0493 1.191344,0.41723 0.655304,0.4666 1.627699,0.89525 2.160854,0.9534 0.843433,0.0919 0.951613,-0.0473 0.831209,-1.07239 -0.09038,-0.76975 0.01647,-1.0817 0.308695,-0.90115 0.245911,0.15199 0.446955,0.66739 0.446955,1.14554 0,1.00898 1.107347,2.37466 1.925303,2.37466 0.309533,0 1.389095,0.76147 2.398798,1.69218 1.561382,1.43925 2.048811,1.66752 3.262951,1.52578 1.117003,-0.13036 1.333893,-0.0535 0.995223,0.35451 -0.23805,0.28682 -1.062505,0.63941 -1.832062,0.78378 -0.957884,0.17971 -1.399567,0.4895 -1.399567,0.98234 0,0.39597 -0.456991,1.39403 -1.016108,2.21793 l -1.016903,1.49844 1.119804,0.0594 c 3.957756,0.21151 6.109046,-0.70239 8.864426,-3.767 1.83652,-2.04266 3.98485,-5.89763 3.98485,-7.14974 0,-0.34023 0.1852,-0.73312 0.41158,-0.87302 0.22638,-0.13985 0.41221,0.0809 0.41239,0.49037 5.7e-4,1.29027 2.32919,5.7327 3.93985,7.51551 2.66825,2.95345 5.22599,4.05037 8.85476,3.79834 l 1.06516,-0.0739 -1.06516,-2.21953 c -0.88304,-1.84005 -1.29111,-2.26391 -2.38833,-2.4848 -1.87751,-0.37798 -2.10271,-1.05791 -0.3505,-1.05791 1.11452,0 1.73126,-0.30241 2.59493,-1.27174 0.623,-0.69918 1.77555,-1.53915 2.56118,-1.86741 1.62858,-0.68048 2.05907,-1.20564 2.0684,-2.52018 0.003,-0.50934 0.19084,-0.92608 0.41721,-0.92608 0.22637,0 0.41158,0.46303 0.41158,1.02898 0,1.30641 0.50301,1.2938 2.84495,-0.0723 1.39243,-0.81223 1.72618,-0.90372 1.27095,-0.34729 -0.6361,0.7775 -5.96893,3.50655 -6.8523,3.50655 -0.79784,0 -2.20266,2.0737 -2.20266,3.2517 0,3.1138 3.33519,5.81092 7.16502,5.7944 2.5018,-0.0109 4.48202,-0.8537 9.01798,-3.83774 4.02226,-2.64613 7.4917,-4.42132 10.57025,-5.40773 1.24507,-0.39892 2.8587,-1.08323 3.58533,-1.52095 1.04128,-0.62727 1.49897,-0.70069 2.16083,-0.34647 0.46185,0.24718 0.83926,0.6145 0.83926,0.81675 0,0.81319 1.37331,1.66162 2.6898,1.66162 1.58554,0 5.38813,-1.38768 6.46804,-2.3602 0.39616,-0.35675 0.72028,-1.09025 0.72028,-1.63027 0,-0.54003 0.40467,-1.52876 0.89875,-2.19702 l 0.89793,-1.21466 -0.71064,-4.01621 c -0.82301,-4.65003 -3.14203,-11.87803 -4.62232,-14.40639 -1.01931,-1.74099 -2.75332,-2.98644 -4.1601,-2.98724 z m -0.48153,2.05874 c 2.37794,0 3.65803,1.62353 5.30885,6.73334 0.49445,1.53047 0.81357,2.86828 0.70903,2.97277 -0.10454,0.10453 -0.79725,-1.20299 -1.53945,-2.90525 -2.29618,-5.26648 -3.65162,-5.93823 -9.11764,-4.52184 -2.33158,0.60418 -3.23483,0.54826 -3.23483,-0.20017 0,-0.46875 6.09863,-2.07885 7.87404,-2.07885 z m -97.240968,0.006 c 0.177355,-0.005 0.365367,-2.2e-4 0.565932,0.0125 0.962751,0.0626 2.21399,0.32845 3.948681,0.77897 3.339256,0.86724 3.709242,1.07306 3.078069,1.70423 -0.299766,0.29977 -1.184363,0.23477 -2.912474,-0.21302 -3.580096,-0.9277 -5.531717,-0.84312 -6.592642,0.28617 -0.480342,0.51129 -1.618706,2.50237 -2.529827,4.42457 -0.911136,1.92222 -1.661842,3.2572 -1.668064,2.96635 -0.02925,-1.36651 2.258154,-7.15388 3.351405,-8.48017 0.801217,-0.97206 1.517466,-1.44652 2.75892,-1.47995 z m 80.361018,4.14564 c 1.9716,-0.032 3.24368,0.1274 3.24368,0.54824 0,0.41781 -0.73404,0.65122 -2.57243,0.81836 -11.60547,1.05503 -16.51804,1.60967 -18.73612,2.11582 -1.41962,0.32395 -3.3623,0.98854 -4.31766,1.47593 -2.41925,1.23422 -1.29647,-0.0196 1.26692,-1.41484 2.99663,-1.63097 15.20089,-3.44756 21.11561,-3.54351 z m -63.564678,0.0297 c 2.942996,0.0203 8.020055,0.57275 14.232771,1.59651 4.756974,0.78388 8.165207,2.04405 9.332267,3.45026 0.65862,0.79358 0.70045,0.80274 -1.825608,-0.3939 -2.589285,-1.22658 -7.330923,-2.05902 -15.228768,-2.67372 -7.330455,-0.57052 -9.307184,-0.87456 -9.287272,-1.42769 0.014,-0.38436 1.010851,-0.56366 2.77661,-0.55146 z m 72.779598,0.34567 c 0.59451,0 3.48136,5.21501 4.3056,7.77837 1.25262,3.89564 1.07487,7.82626 -0.41882,9.27119 -0.55483,0.53671 -1.47191,1.11041 -2.03784,1.27496 l -1.02897,0.29905 0.87462,-0.97753 c 1.49238,-1.66736 1.89342,-2.85285 1.87787,-5.55724 -0.0176,-3.0519 -0.89911,-6.35542 -2.5877,-9.70047 -0.66304,-1.31348 -1.1061,-2.38833 -0.98476,-2.38833 z m -77.8304,0.17283 c 0.390551,0.023 0.654367,0.25182 0.654367,0.66401 0,0.64347 -3.668688,4.08125 -3.920541,3.67374 -0.36952,-0.59788 1.053459,-3.26647 2.111802,-3.95993 0.347601,-0.22775 0.689151,-0.34985 0.979941,-0.3746 0.06051,-0.005 0.118693,-0.006 0.174431,-0.003 z m -4.060406,0.0109 c 0.137827,0.008 -0.10127,0.6471 -0.801481,1.91405 -2.934611,5.31011 -3.542528,12.04579 -1.346505,14.92489 1.216238,1.59458 1.103129,1.79583 -0.545832,0.9719 -3.616528,-1.80706 -3.039024,-9.27698 1.231545,-15.93216 0.809275,-1.26114 1.324462,-1.88603 1.462273,-1.87868 z m 78.199376,0.0828 c 0.67081,-0.009 1.58431,0.77798 2.38271,2.13672 0.41381,0.70422 0.69158,1.58552 0.61738,1.95826 -0.10143,0.50926 -0.62114,0.19041 -2.0925,-1.2822 -1.5569,-1.55818 -1.86079,-2.07658 -1.48398,-2.53063 0.15625,-0.18824 0.35278,-0.27918 0.57639,-0.28215 z m -54.189782,13.52133 0.627828,1.02897 c 0.34525,0.56593 0.634514,1.72352 0.642298,2.57241 0.0077,0.8489 -0.170746,1.54347 -0.397119,1.54347 -0.226374,0 -0.411583,-0.5325 -0.411583,-1.18332 0,-0.65082 -0.103759,-1.80842 -0.230715,-2.57243 z m 33.734172,0 -0.0161,1.44055 h 7.1e-4 c -0.021,1.98885 -0.47224,3.84119 -0.84409,3.46635 -0.47764,-0.48149 -0.33203,-2.30624 0.29342,-3.67214 z m -71.490174,4.37312 c 0.41432,0.0296 1.185436,0.27987 2.615026,0.77173 1.315921,0.45274 2.749618,0.82318 3.185795,0.82318 0.436177,0 0.722176,0.21374 0.635062,0.47508 -0.278672,0.83603 -1.714827,1.07697 -3.409274,0.57156 -2.33371,-0.69609 -3.498489,-1.39213 -3.498489,-2.09009 0,-0.38985 0.05756,-0.58103 0.47188,-0.55146 z m 109.963224,0.0161 c 0.0541,0.005 0.0908,0.0155 0.10859,0.033 0.45867,0.45866 -0.30433,1.20402 -2.03785,1.9912 -1.62899,0.73976 -3.59292,0.95661 -4.68262,0.5169 -0.75026,-0.30273 -0.62897,-0.96225 0.17686,-0.96225 0.38009,0 1.94994,-0.4055 3.48886,-0.90115 1.34655,-0.43369 2.56759,-0.70982 2.94623,-0.67767 z m -66.784226,0.98957 c 0.186764,0.0786 0.415763,0.77544 0.541818,1.69458 0.288736,2.10658 0.276863,2.15441 -0.461425,1.89074 -0.580801,-0.20743 -0.714105,-3.23573 -0.157571,-3.57969 0.02456,-0.0156 0.05053,-0.017 0.07716,-0.006 z m 23.108436,0.37541 c 0.12584,0.0263 0.2523,0.29868 0.38827,0.8071 0.17601,0.65784 0.1358,1.51325 -0.0916,1.93816 -0.70767,1.32228 -1.25938,0.87343 -0.96064,-0.78218 0.2467,-1.36725 0.45436,-2.00687 0.66401,-1.96308 z m -40.808351,6.35149 c 0.01774,-0.001 0.04294,7e-4 0.0756,0.008 0.261529,0.056 1.013215,0.38854 2.418882,1.03299 5.224401,2.39523 7.773211,2.43382 9.907068,0.1495 0.651306,-0.69723 1.296912,-1.15491 1.434116,-1.01772 0.357841,0.35784 -0.945216,2.21863 -2.028993,2.898 -2.702982,1.69437 -7.507222,0.65014 -11.210162,-2.43657 -0.484821,-0.40415 -0.720403,-0.62333 -0.596483,-0.63427 z m 58.416611,0.0177 c 0.11807,0.0125 -0.12212,0.23605 -0.60935,0.64551 -0.67909,0.57072 -2.16083,1.47807 -3.2927,2.01694 -1.13186,0.53888 -2.61357,1.0645 -3.29271,1.16805 -2.76443,0.42147 -5.99954,-1.08199 -6.50744,-3.02422 -0.28762,-1.09985 0.39282,-0.98378 1.16804,0.19937 1.56499,2.38848 4.98866,2.40093 10.07267,0.037 1.39208,-0.64729 2.13411,-0.98082 2.38834,-1.03539 0.0317,-0.006 0.0563,-0.009 0.0731,-0.008 z" /></g></svg>
