<?xml version="1.0" encoding="UTF-8" standalone="no"?>
<!-- Created with Inkscape (http://www.inkscape.org/) -->

<svg
   width="210mm"
   height="297mm"
   viewBox="0 0 210 297"
   version="1.1"
   id="svg1593"
   xml:space="preserve"
   inkscape:version="1.2.2 (b0a8486541, 2022-12-01)"
   sodipodi:docname="luva01.svg"
   xmlns:inkscape="http://www.inkscape.org/namespaces/inkscape"
   xmlns:sodipodi="http://sodipodi.sourceforge.net/DTD/sodipodi-0.dtd"
   xmlns="http://www.w3.org/2000/svg"
   xmlns:svg="http://www.w3.org/2000/svg"><sodipodi:namedview
     id="namedview1595"
     pagecolor="#ffffff"
     bordercolor="#000000"
     borderopacity="0.25"
     inkscape:showpageshadow="2"
     inkscape:pageopacity="0.0"
     inkscape:pagecheckerboard="0"
     inkscape:deskcolor="#d1d1d1"
     inkscape:document-units="mm"
     showgrid="false"
     inkscape:zoom="0.51994772"
     inkscape:cx="334.64903"
     inkscape:cy="662.56662"
     inkscape:window-width="1920"
     inkscape:window-height="1012"
     inkscape:window-x="0"
     inkscape:window-y="29"
     inkscape:window-maximized="1"
     inkscape:current-layer="layer1" /><defs
     id="defs1590" /><g
     inkscape:label="Camada 1"
     inkscape:groupmode="layer"
     id="layer1"><path
       id="path2093"
       style="display:inline;fill:#c40000;fill-opacity:1;stroke-width:1"
       d="m 95.56161,111.00098 c -0.880851,-0.008 -2.002765,-0.004 -3.479891,0.003 -4.128304,0.0193 -7.776183,0.22058 -9.191171,0.48318 -0.210971,0.0869 -0.420383,0.17765 -0.625801,0.27698 -0.05679,0.20929 -0.172863,1.01324 -0.281637,1.98128 -0.450973,4.0136 0.403028,8.5025 1.964738,10.32702 1.121348,1.31004 2.53257,2.03395 6.149496,3.15434 3.545404,1.09824 5.820833,1.94622 5.820833,2.16937 0,0.0963 -1.160874,0.24545 -2.579688,0.33177 -5.908894,0.3595 -8.713168,1.14277 -9.088334,2.53834 -0.288185,1.07209 -1.225418,2.91393 -2.490804,4.8948 -1.49653,2.3427 -3.582697,6.62783 -4.314982,8.86355 -1.604543,4.89862 -1.566829,9.91789 0.104903,13.95729 0.526875,1.27292 1.051391,2.37412 1.165821,2.44688 0.114429,0.0728 0.462316,0.67417 0.772562,1.33635 0.624771,1.33341 3.399065,4.28684 5.461166,5.8136 4.834289,3.57911 11.100494,4.82206 15.930289,3.16001 2.00772,-0.69091 3.34861,-2.08012 3.61477,-3.74447 0.14353,-0.89757 0.0744,-1.19338 -0.39687,-1.69499 -1.46155,-1.55576 -5.84918,-3.00442 -9.128646,-3.01377 -1.753517,-0.005 -4.989417,0.73028 -6.86418,1.55959 -1.268395,0.56107 -1.404995,0.42883 -0.7891,-0.76222 1.045743,-2.02227 4.88893,-3.92721 8.073926,-4.00183 l 1.190625,-0.0279 -1.5875,-0.51883 c -0.87311,-0.28532 -2.629312,-0.64963 -3.902604,-0.80977 -1.273292,-0.16015 -2.315104,-0.39106 -2.315104,-0.51315 0,-0.12209 0.221154,-0.22221 0.49196,-0.22221 0.270792,0 1.43168,-0.3001 2.579687,-0.66714 1.274215,-0.40739 2.743231,-0.67412 3.770829,-0.68471 0.925812,-0.01 1.580672,-0.10367 1.455209,-0.20929 -1.546596,-1.30191 -3.023346,-2.41176 -3.667477,-2.75591 l -0.79375,-0.42426 0.691431,-0.0103 c 1.238825,-0.019 3.38312,0.49192 4.800224,1.1436 0.763054,0.3509 1.427522,0.60159 1.476395,0.55708 0.04887,-0.0445 -0.04032,-1.13236 -0.19792,-2.41743 -0.791117,-6.45039 0.145521,-15.2179 1.858285,-17.39533 0.70851,-0.90072 0.88829,-0.74959 0.36225,0.30489 -0.29858,0.59851 -0.51045,2.77165 -0.80925,8.31113 -0.22253,4.12542 -0.49346,8.42259 -0.60203,9.54877 l -0.197406,2.04742 1.133266,1.11208 c 0.6233,0.61174 1.38947,1.73001 1.70222,2.4846 l 0.56844,1.37201 0.99477,-0.53123 c 2.0256,-1.08122 3.84407,-4.40989 4.15531,-7.60677 0.25461,-2.61512 0.53869,-2.27014 0.73639,0.894 0.21843,3.49609 0.0142,6.35427 -0.54984,7.70444 -0.58428,1.39841 -0.47452,1.40424 0.8108,0.0434 1.27477,-1.34948 1.32907,-1.36823 0.93224,-0.32453 -0.38461,1.01168 -0.0885,0.81958 0.4837,-0.31368 2.29807,-4.55102 1.8938,-12.14625 -0.90072,-16.91473 -0.59851,-1.02122 -2.1378,-3.14161 -3.64216,-5.0953 -0.19367,-0.16092 -0.37662,-0.33358 -0.54519,-0.52193 -0.27625,-0.30199 -0.5517,-0.60657 -0.77101,-0.95395 -0.0966,-0.1597 -0.16427,-0.26501 -0.24908,-0.43305 -0.0275,-0.0545 -0.052,-0.11007 -0.0775,-0.16536 -0.82478,-1.01328 -1.51203,-1.80726 -1.79369,-2.0221 -1.44903,-1.10521 -4.129111,-2.19585 -7.591785,-3.08974 -1.81898,-0.46957 -3.420711,-0.95354 -3.558956,-1.07539 -0.315709,-0.27826 3.252785,-0.26202 4.986776,0.0227 1.026167,0.16851 1.408655,0.1237 1.838648,-0.21445 1.753167,-1.3787 2.808407,-2.9767 3.497457,-5.29736 0.31279,-1.05342 1.70274,-9.85607 1.70274,-10.78384 0,-0.72006 -1.79854,-2.15317 -3.55069,-2.86649 -0.25197,-0.0872 -0.506857,-0.16528 -0.759123,-0.25167 -0.192239,-0.0659 -0.383461,-0.13488 -0.574125,-0.20515 -0.772113,-0.2117 -1.556225,-0.28557 -3.410127,-0.30283 z m -5.915918,0.4222 c 1.790636,-0.016 3.013354,0.0823 4.459676,0.32866 4.220849,0.71899 4.165432,0.82485 -0.376722,0.71521 -3.310332,-0.0799 -4.871117,-0.002 -6.470922,0.32194 -3.044881,0.61696 -4.039547,0.525 -4.039547,-0.3731 0,-0.27033 0.106892,-0.55788 0.237712,-0.63873 0.130803,-0.0808 2.012189,-0.21631 4.180623,-0.30127 0.752329,-0.0295 1.412291,-0.0474 2.00918,-0.0527 z m 37.008078,19.05414 c -0.17238,0.003 -0.34457,0.015 -0.51676,0.0202 -0.36127,0.0171 -0.72241,0.0301 -1.08417,0.0238 -0.0955,-0.002 -0.19083,-0.005 -0.28629,-0.009 -0.27393,0.0119 -0.48075,0.019 -0.80047,0.0336 l -4.19302,0.19069 -0.18914,2.27273 c -0.22489,2.69974 -0.013,6.42952 0.43873,7.72305 0.17785,0.5093 0.57942,1.30819 0.89246,1.77509 l 0.56895,0.84852 0.68678,-0.78238 c 0.76427,-0.87092 1.43545,-1.06128 1.12862,-0.31988 -0.57937,1.39997 -1.18369,3.76584 -1.18546,4.639 -0.001,0.55038 0.17051,1.41358 0.38137,1.91823 0.32307,0.77321 0.51485,0.91726 1.22112,0.91726 0.74628,0 0.81866,0.0652 0.65784,0.59531 -0.94529,3.11559 -1.0378,3.71382 -1.0542,6.81302 -0.01,1.81901 0.0861,3.78354 0.2129,4.36562 l 0.23048,1.05834 0.4501,-1.85209 c 0.2475,-1.01864 0.77662,-2.53462 1.17564,-3.36878 0.72297,-1.51142 2.54352,-3.95003 2.54352,-3.40703 0,0.15712 -0.37162,1.38907 -0.82579,2.7373 -0.86583,2.57022 -1.3024,4.17081 -1.1374,4.17081 0.1371,0 1.16944,-2.29729 1.16944,-2.60243 0,-0.48784 2.40604,-2.91811 3.55689,-3.59255 1.53176,-0.89761 1.89999,-0.86607 1.20922,0.10387 -0.91667,1.28736 -2.18998,4.2976 -2.27066,5.36712 -0.0413,0.54751 -0.34151,1.42604 -0.66662,1.95233 -0.55481,0.89769 -1.41009,3.79874 -1.11983,3.79874 0.0729,0 0.61866,-0.41582 1.21233,-0.92398 1.04102,-0.8912 3.82122,-2.15257 4.10931,-1.86448 0.0773,0.0773 -1.10583,1.4209 -2.6293,2.98586 -4.10865,4.22057 -6.04718,7.43895 -6.04718,10.03918 0,1.12541 1.019,3.14789 2.10633,4.18063 1.67513,1.59066 4.68543,2.19199 6.43785,1.28571 2.08299,-1.07716 4.25942,-3.65519 5.66271,-6.70709 1.6907,-3.67685 2.08152,-7.87868 1.1777,-12.0034 -0.0426,-0.14069 -0.0832,-0.282 -0.12454,-0.42271 -0.10263,-0.36229 -0.18898,-0.72872 -0.26613,-1.09709 -0.17858,-0.59752 -0.38149,-1.19211 -0.61547,-1.78129 -0.78201,-1.9694 -1.80703,-3.56106 -3.05201,-4.76043 -0.0647,-0.0306 -0.12902,-0.0615 -0.19327,-0.093 -0.27651,-0.14148 -0.55413,-0.28933 -0.79271,-0.49093 -0.0808,-0.0683 -0.1561,-0.14254 -0.2341,-0.21394 -0.1363,-0.13928 -0.25867,-0.28968 -0.37,-0.44803 -0.89973,-0.55961 -1.8852,-0.95754 -2.95124,-1.18804 l -1.09658,-0.2372 1.37977,0.0837 c 0.75893,0.046 1.3177,-0.0179 1.24126,-0.1416 -0.18633,-0.30148 0.0705,-0.28392 0.76947,0.0543 0.0217,0.0105 0.029,0.0136 0.0491,0.0233 -0.0101,-0.0512 -0.0196,-0.10259 -0.0284,-0.154 -0.002,-0.0117 -0.003,-0.0234 -0.005,-0.0351 -0.2867,-0.20558 -0.7283,-0.31751 -1.01183,-0.24908 -0.29867,0.0721 -0.39313,0.0627 -0.21032,-0.0212 0.18281,-0.0838 0.25726,-0.27404 0.16537,-0.42272 -0.10549,-0.17068 0.0642,-0.20914 0.46095,-0.10438 0.57248,0.15114 0.58529,0.13555 0.14263,-0.17054 -0.26727,-0.1848 -0.684,-0.49455 -0.92605,-0.68833 -0.39878,-0.31924 -0.39011,-0.33743 0.0894,-0.1974 0.5213,0.15224 0.52148,0.14822 0.0155,-0.2434 -0.28248,-0.21864 -0.63967,-0.3993 -0.79375,-0.40152 -0.1541,-0.002 -0.10149,-0.11939 0.11679,-0.26045 0.3365,-0.21746 0.32418,-0.25702 -0.0822,-0.26045 -0.26325,-0.002 -0.41143,-0.11217 -0.32969,-0.24443 0.1748,-0.28289 -1.20076,-1.49982 -1.97198,-1.7446 -0.82018,-0.26031 -0.3511,-0.65966 0.60772,-0.51728 l 0.75602,0.11214 c -0.002,-0.0128 -0.005,-0.0254 -0.007,-0.0382 l -0.69299,-0.35812 -0.79375,-0.41031 0.78859,0.11834 c 0.74503,0.11161 0.75969,0.0969 0.26458,-0.2651 -0.28827,-0.2108 -0.524,-0.49243 -0.524,-0.62528 0,-0.13299 -0.23813,-0.42191 -0.52917,-0.64183 -0.43367,-0.32769 -0.45229,-0.40134 -0.10231,-0.40824 0.52921,-0.0104 0.75402,-1.44185 0.78651,-5.0059 0.0253,-2.77138 0.39211,-5.98634 0.48628,-4.26279 0.0278,0.50933 0.15058,1.40231 0.27285,1.98437 0.16258,0.77394 0.21155,0.24102 0.18293,-1.98385 l -0.0388,-3.04271 -1.27589,-0.62477 c -0.21773,-0.10666 -0.40189,-0.19301 -0.58032,-0.2651 -0.1819,-0.0329 -0.36362,-0.0665 -0.54519,-0.10129 -0.24903,-0.0455 -0.49898,-0.0883 -0.75241,-0.0987 -0.24302,-0.0178 -0.48652,-0.0334 -0.73019,-0.0377 -0.0575,-0.001 -0.11513,-0.001 -0.1726,0 z m -8.84752,0.24495 c -0.018,-5.3e-4 -0.0355,3.1e-4 -0.0956,0.005 -0.0862,0.008 -0.1707,0.024 -0.25476,0.0444 -0.0109,0.0114 -0.0208,0.0236 -0.0315,0.0351 0.12172,-0.0252 0.253,-0.0556 0.38189,-0.0842 z m -0.37052,0.0465 c -0.0299,0.0117 -0.0573,0.0229 -0.0103,0.006 0.004,-0.002 0.007,-0.004 0.0103,-0.006 z m 0.65733,0.25942 c -0.10148,0.003 -0.2355,0.0322 -0.4129,0.0734 -0.27728,0.0643 -0.52825,0.14762 -0.75344,0.24391 -0.15469,0.16052 -0.31208,0.31857 -0.47801,0.46767 -0.2084,0.18604 -0.42203,0.36611 -0.6382,0.54312 -0.0229,0.0811 -0.0344,0.16316 -0.032,0.2465 0.0167,0.58617 0.0178,0.5861 0.24236,0.0305 0.12412,-0.30717 0.41905,-0.63231 0.65526,-0.72295 0.55055,-0.21128 1.46709,0.35555 1.46709,0.90743 0,0.47618 -0.8061,1.30018 -1.27175,1.30018 -0.15509,0 -0.33826,0.14619 -0.50592,0.34779 0.0296,0.15971 -0.0623,0.29699 -0.2067,0.30592 -0.003,2e-4 -0.009,0.003 -0.0124,0.003 -0.21539,0.36575 -0.34414,0.78618 -0.22428,0.98547 0.15767,0.26219 0.10277,0.25869 -0.23409,-0.0145 -0.30703,-0.24895 -0.34595,-0.38309 0.0243,-0.82476 -0.0372,0.0188 -0.0804,0.0335 -0.11213,0.0537 -0.28768,0.18328 -0.59274,0.0235 -0.62581,-0.30541 -0.002,0.01 -0.006,0.0226 -0.006,0.031 0,0.0312 -0.005,0.0555 -0.009,0.0796 0.14482,0.33385 0.47116,0.79552 1.05678,1.51929 0.73332,0.90628 1.33325,1.85035 1.33325,2.09807 0,0.1459 -0.0536,0.25511 -0.14727,0.32556 0.0588,0.0204 0.10859,0.027 0.14572,0.0129 0.31162,-0.11847 0.32792,-0.0814 0.0786,0.17053 -0.25094,0.25286 -0.4071,0.24948 -0.7276,-0.0165 -0.51961,-0.43121 -0.51497,-0.23285 0.0884,3.4277 l 0.45734,2.77555 0.24753,-0.4191 c -0.005,-0.035 -0.006,-0.0721 -0.014,-0.1049 -0.0681,-0.29106 -0.0554,-0.37961 0.0284,-0.19689 0.0265,0.0578 0.0579,0.0962 0.0956,0.11524 l 0.14883,-0.25166 c 0.27852,-0.47149 0.6888,-0.86095 0.91209,-0.86558 0.31833,-0.007 0.29523,-0.0923 -0.10749,-0.39688 -0.49585,-0.37505 -0.49062,-0.3886 0.14573,-0.3886 0.36251,0 0.78943,0.13056 0.94929,0.29042 0.19607,0.19607 0.17718,-0.25597 -0.0568,-1.38907 -0.46979,-2.27006 -1.18597,-7.93628 -1.18597,-9.38186 0,-0.85681 -0.0103,-1.08484 -0.31471,-1.07591 z m -29.808009,0.18035 0.886251,0.001 -0.842326,0.51366 c -0.877727,0.53519 -2.347968,2.28925 -3.584277,4.27623 -0.397354,0.63862 -1.371785,2.07892 -2.165243,3.20084 -0.816338,1.15425 -1.55285,2.53261 -1.696537,3.17501 l -0.254248,1.13533 -0.02791,-0.92604 c -0.03108,-1.02324 1.072959,-3.56426 2.364196,-5.44102 0.451763,-0.65662 1.217532,-2.06293 1.701705,-3.1254 0.962073,-2.11113 1.864187,-2.81165 3.618384,-2.80965 z m 4.177523,0.35191 c 0.687478,0.0412 2.965171,0.81139 4.381645,1.51413 1.729554,0.85805 2.339702,1.51873 2.592089,2.80758 0.201464,1.02873 -0.539734,2.09243 -1.834513,2.63343 -1.439891,0.60163 -3.269376,0.35638 -2.212785,-0.29662 0.145521,-0.0899 0.264584,-0.38048 0.264584,-0.64596 0,-0.52962 -0.666851,-0.78944 -2.116667,-0.82424 -0.509323,-0.0122 -1.164181,-0.11782 -1.455208,-0.23461 -0.440783,-0.1769 -0.330288,-0.26426 0.661458,-0.52452 0.654829,-0.17185 1.64927,-0.45906 2.210201,-0.6382 l 1.020093,-0.32608 -0.89917,-1.18132 c -0.494482,-0.64975 -1.353291,-1.39665 -1.908411,-1.65985 -0.555105,-0.26319 -0.957205,-0.53058 -0.893485,-0.59428 0.02618,-0.0262 0.09196,-0.0354 0.190169,-0.0294 z m 24.385076,0.96997 c 0.16516,0 0.23351,0.18308 0.22945,0.41548 0.0491,-0.25077 -0.0148,-0.41548 -0.22945,-0.41548 z m 0,0 c -0.15327,0 -0.58414,0.40724 -0.99477,0.8723 0.42058,-0.46022 0.8607,-0.8723 0.99477,-0.8723 z m -1.57251,0.24237 c -0.007,0.005 -0.0144,0.0111 -0.0217,0.0165 -0.03,0.19405 -0.0625,0.38435 -0.0982,0.56069 0.0425,-0.1828 0.0833,-0.37934 0.11989,-0.57723 z m -1.36271,0.87333 c -0.006,0.003 -0.0113,0.005 -0.017,0.008 l 0.56844,0.59634 -0.003,-0.0103 z m -2.19831,0.0615 c 0.1029,0.21591 0.2504,0.33589 0.36328,0.26613 0.046,-0.0284 0.0686,-0.0808 0.0816,-0.14159 -0.0695,-0.014 -0.1386,-0.0301 -0.20722,-0.0481 -0.08,-0.0237 -0.15905,-0.0493 -0.23771,-0.0765 z m 0.894,0.55242 c -0.0556,-4e-5 -0.11351,0.0112 -0.17312,0.0341 -0.22443,0.0861 -0.35856,0.2901 -0.29817,0.4532 0.0604,0.16312 0.27059,0.93091 0.46716,1.70584 0.32335,1.27476 0.39161,1.36297 0.71416,0.92604 0.23192,-0.31418 0.29698,-0.8048 0.18604,-1.40405 -0.21316,-1.15135 -0.5066,-1.71489 -0.89607,-1.71514 z m 1.65571,1.39836 c 0.12595,0.15339 0.24027,0.29671 0.37207,0.45476 0.20159,0.24169 0.35776,0.41605 0.53589,0.62321 -0.29003,-0.35629 -0.59687,-0.71919 -0.90796,-1.07797 z m 0.3421,0.77618 c 0.0634,0.33011 -0.0807,0.87385 -0.41393,1.541 -0.23105,0.46262 -0.49029,0.85707 -0.67334,1.04644 0.19857,-0.18332 0.4412,-0.51512 0.66559,-0.95498 0.3742,-0.73347 0.51482,-1.3252 0.42168,-1.63246 z m -0.48886,0.016 c -0.36503,0.5854 -1.00054,2.09713 -1.00097,2.49598 -2.1e-4,0.21499 0.0917,0.26319 0.22789,0.19843 -0.29911,0 -0.12709,-0.68776 0.56224,-2.24896 0.0837,-0.18951 0.14955,-0.32567 0.21084,-0.44545 z m 2.22881,0.10387 1.16323,0.78497 c 0.89854,0.60641 1.16324,0.94906 1.16324,1.50688 0,1.24159 -0.92839,1.76274 -1.62161,0.91054 -0.31615,-0.38866 -0.30564,-0.42488 0.078,-0.28112 0.37323,0.13971 0.56611,0.0107 0.58395,-0.2868 -0.0922,0.12259 -0.31272,0.22066 -0.5116,0.22066 -0.54763,0 -0.46949,-0.17951 0.14831,-0.34107 0.17324,-0.0453 0.29559,-0.0435 0.35605,-0.01 -0.0283,-0.33531 -0.22079,-0.81727 -0.59169,-1.36684 z m -13.30307,0.86248 c 0.0399,-0.006 0.081,-0.006 0.1235,0 0.43743,0.0581 1.02083,0.71944 1.87999,2.03709 2.34045,3.58948 5.33237,9.03643 5.89784,10.73734 0.65857,1.98083 0.42266,2.16452 -0.44184,0.34364 -0.60956,-1.28376 -2.09172,-2.83156 -5.55108,-5.79602 -2.77827,-2.38093 -3.42594,-3.97134 -2.60191,-6.38774 0.19682,-0.57717 0.41429,-0.89433 0.6935,-0.93431 z m 11.28303,2.30684 c -0.0921,0.0145 -0.20295,0.0751 -0.34416,0.16485 -0.25356,0.16106 -0.25848,0.56613 -0.0196,1.84795 0.31811,1.7105 0.37054,1.78505 0.98134,1.39837 0.31511,-0.1995 0.31929,-0.48324 0.03,-1.84847 -0.26238,-1.23637 -0.37121,-1.60634 -0.64751,-1.5627 z m 4.13774,3.40962 c 0.0343,0.001 0.0628,0.0112 0.0832,0.0315 0.0815,0.0815 -0.0651,0.22926 -0.32608,0.32866 -0.37708,0.14359 -0.40767,0.11352 -0.14831,-0.14779 0.1346,-0.13562 0.28836,-0.21542 0.39119,-0.21239 z m -3.86178,0.51573 v 5.2e-4 c -0.0879,0.005 -0.16278,0.15578 -0.16278,0.47852 0,0.26865 0.0906,0.5289 0.20774,0.6873 -0.13858,-0.23897 -0.24674,-0.69275 -0.14211,-0.79737 0.0722,-0.0723 0.19525,0.11143 0.27285,0.40824 0.0729,0.27866 0.0848,0.50193 0.0336,0.52917 0.0136,0.004 0.0272,0.0103 0.0408,0.0103 0.0331,0 0.0427,-0.29725 0.0217,-0.66095 -0.0218,-0.3777 -0.13028,-0.6066 -0.23358,-0.64854 -0.0129,-0.005 -0.0257,-0.007 -0.0382,-0.007 z m 4.16873,0.0212 c -0.0315,-1.1e-4 -0.0699,0.0156 -0.10852,0.0315 0.24985,-0.0452 0.32152,0.28925 0.0496,0.88573 -0.007,0.015 -0.0106,0.0308 -0.017,0.046 0.14143,-0.29517 0.24099,-0.5605 0.24133,-0.68213 6.2e-4,-0.19237 -0.062,-0.28077 -0.16537,-0.28112 z m -3.50417,0.1173 c -0.0235,-0.004 -0.0448,-0.003 -0.0636,5.2e-4 -0.0665,0.0133 -0.10106,0.0719 -0.10593,0.16433 0.0591,-0.0296 0.14192,-0.045 0.25425,-0.045 0.14339,0 0.41966,0.20372 0.70486,0.49144 -0.34856,-0.38291 -0.6254,-0.58654 -0.78961,-0.61133 z m 4.93406,0.42943 c -0.0552,0.009 -0.15837,0.14823 -0.35243,0.4253 -0.22653,0.32342 -0.57699,0.58808 -0.77877,0.58808 -0.13044,0 -0.32226,0.11657 -0.50332,0.28215 0.005,0.0126 0.005,0.0331 0.0114,0.0434 0.0981,0.15878 0.0545,0.20994 -0.0987,0.11524 -0.0156,-0.01 -0.0368,-0.009 -0.0548,-0.0145 -0.0463,0.0524 -0.0933,0.10453 -0.13333,0.16175 -0.46912,0.66976 -0.49911,0.49655 -0.18707,-0.10594 -0.081,0.0444 -0.16072,0.10211 -0.22737,0.18242 -0.25956,0.31275 -0.25956,0.4748 0,0.78755 0.0625,0.0753 0.13669,0.13016 0.21239,0.17415 -0.30086,-0.38493 -0.28674,-0.3914 0.12092,-0.0724 0.0697,0.0547 0.11816,0.0999 0.1726,0.14779 0.0342,-0.005 0.069,-0.009 0.0966,-0.0258 0.1595,-0.0986 0.19659,-0.0421 0.0873,0.13384 -0.009,0.0144 -0.0122,0.0348 -0.0165,0.0543 0.1373,0.15249 0.16014,0.24814 0.0295,0.25166 0.0634,0.23813 0.22043,0.55445 0.45113,0.85938 0.34547,0.45664 0.57576,0.92845 0.68471,1.31982 0.007,-0.0237 0.01,-0.0418 0.0171,-0.0667 0.12601,-0.43937 0.13172,-0.73784 0.0108,-0.66352 -0.12026,0.0743 -0.41608,-0.16616 -0.65733,-0.53434 -0.43414,-0.66244 -0.43241,-0.66618 0.1695,-0.35346 0.33447,0.17377 0.77847,0.39467 0.98702,0.49092 1.21608,0.56121 0.88566,2.38849 -0.43201,2.38849 h -0.72606 l 0.58808,-0.41186 c 0.32342,-0.22654 0.58025,-0.61349 0.57103,-0.8599 -0.0122,-0.32536 -0.082,-0.28505 -0.2558,0.14728 -0.0863,0.21467 -0.16192,0.36686 -0.22273,0.46147 -0.0382,0.16201 -0.13033,0.26613 -0.29817,0.26613 -0.21828,0 -0.36293,-0.16141 -0.32143,-0.35863 0.002,-0.0102 9e-4,-0.0212 0.002,-0.0315 -0.0667,-0.0377 -0.22119,-0.19521 -0.5023,-0.53589 l -0.29455,-0.35657 c -0.004,0.002 -0.009,0.001 -0.0129,0.004 -0.15152,0.0936 -0.19924,0.0465 -0.10594,-0.10439 0.005,-0.008 0.006,-0.0209 0.01,-0.031 l -0.14263,-0.17312 0.15348,0.66146 c 0.0844,0.3638 0.35288,1.68708 0.59635,2.94039 0.38311,1.97215 0.5076,2.26154 0.92707,2.1518 0.0736,-0.0192 0.142,-0.0463 0.20464,-0.077 -0.2018,-0.13534 -0.24693,-0.24663 -0.0946,-0.24857 0.14367,-0.002 0.25261,0.0218 0.33124,0.0713 0.0272,-0.0363 0.0439,-0.0725 0.0439,-0.10646 0,-0.41559 0.75931,-0.24757 1.03714,0.22945 0.19633,0.33707 0.27164,-0.26021 0.2775,-2.19625 0.006,-2.07055 -0.13735,-3.15452 -0.64802,-4.89479 -0.36075,-1.22945 -0.65841,-2.47042 -0.66146,-2.75746 -0.002,-0.24591 -0.009,-0.36789 -0.0646,-0.35915 z m -2.73988,1.04335 -0.14728,0.26148 c 0.0258,-0.019 0.0499,-0.0442 0.0718,-0.0791 0.0307,-0.0488 0.0555,-0.11184 0.0755,-0.18242 z m -2.5337,0.10749 c -0.21448,0.0183 -0.19919,0.27525 -0.0827,1.1405 0.0917,0.67947 0.27131,1.59277 0.39946,2.02933 0.12815,0.43656 0.20803,1.03188 0.17725,1.32292 -2.6e-4,0.002 7.5e-4,0.004 5.2e-4,0.007 0.0646,-0.31641 0.19225,-0.75396 0.37103,-1.22421 0.29863,-0.78547 0.6065,-1.63747 0.6842,-1.89291 0.022,-0.0722 0.0317,-0.14471 0.0341,-0.21653 l -0.47335,1.21233 c -0.28356,0.72651 -0.52081,1.11792 -0.52762,0.87024 -0.007,-0.24782 0.12178,-0.74493 0.28577,-1.10485 0.30653,-0.67274 0.19728,-1.45304 -0.18397,-1.85311 -0.0227,0.005 -0.0449,0.003 -0.0677,0.01 -0.31354,0.1 -0.34688,0.0712 -0.11317,-0.0977 0.0179,-0.0129 0.0245,-0.0255 0.0398,-0.0382 -0.0757,-0.0519 -0.15789,-0.0927 -0.24805,-0.11628 -0.12725,-0.0333 -0.22409,-0.0541 -0.29559,-0.0481 z m 1.12551,0.36018 0.44029,0.61288 c -0.0512,-0.26596 -0.22015,-0.49398 -0.44029,-0.61288 z m 0.80874,1.11156 c -0.0166,0.006 0.005,0.0639 0.0713,0.1819 0.1025,0.18129 0.0874,0.51061 -0.008,0.87644 l 0.22996,-0.76792 c -0.15236,-0.17518 -0.26918,-0.29889 -0.29249,-0.29042 z m 0.75809,0.86403 0.27699,0.37104 c -0.0234,-0.0338 -0.0415,-0.0679 -0.0667,-0.10129 -0.0779,-0.10358 -0.13903,-0.17784 -0.21033,-0.26975 z m -0.74982,0.37672 c -0.009,0.0282 -0.0179,0.0564 -0.0274,0.0847 0.003,-0.009 0.008,-0.0188 0.0103,-0.0279 z m -0.14521,0.39326 c -0.0245,0.0574 -0.0485,0.11481 -0.0755,0.17105 0.0277,-0.0576 0.0508,-0.11288 0.0755,-0.17105 z m -0.19637,0.39946 c -0.0318,0.0567 -0.0624,0.11523 -0.0961,0.16847 0.034,-0.0543 0.0639,-0.1109 0.0961,-0.16847 z m 2.11821,0.23771 c 0.24714,0.35674 0.43678,0.64776 0.50437,0.7891 -0.005,-0.32461 -0.24845,-0.67462 -0.50437,-0.7891 z m -2.28771,0.0362 c -0.13015,0.18727 -0.26919,0.34897 -0.41135,0.44855 -0.49288,0.3453 -0.50557,0.39739 -0.0961,0.39739 0.18812,0 0.30936,0.0635 0.32918,0.15348 0.0152,-0.029 0.0332,-0.0527 0.045,-0.0873 0.0732,-0.21947 -0.0534,-0.27533 -0.37517,-0.16588 -0.3692,0.12559 -0.34431,0.0602 0.10284,-0.27388 0.1295,-0.0968 0.27014,-0.27231 0.40566,-0.47232 z m 11.02,1.08158 c 0.0165,0.009 0.0253,0.029 0.0253,0.062 0,0.0772 -0.48812,1.26228 -1.08469,2.63344 -1.32043,3.03478 -2.35489,5.85162 -2.35489,6.41201 0,0.22846 -0.13488,0.4986 -0.29973,0.60048 -0.21772,0.13454 -0.26736,-0.43552 -0.18086,-2.0836 0.0997,-1.89874 0.26031,-2.5478 0.98547,-3.9765 0.66115,-1.30284 2.66192,-3.77827 2.90938,-3.64784 z m -10.9027,0.66043 c -0.0726,-0.002 -0.15392,0.001 -0.24598,0.003 l -0.79426,0.0263 0.18242,2.73369 c 0.10032,1.50331 0.39337,3.40027 0.65164,4.21576 0.41469,1.3094 0.50458,1.423 0.76687,0.971 0.36737,-0.63311 0.38311,-0.48898 0.0677,0.61082 -0.16191,0.56439 -0.15189,0.91208 0.03,1.02422 0.003,0.002 0.006,0.001 0.009,0.003 -0.059,-0.0728 -0.0327,-0.35715 0.0615,-0.95911 0.0868,-0.55481 0.15203,-1.06181 0.1881,-1.38441 -0.0204,-0.006 -0.0346,-0.0246 -0.0346,-0.0708 0,-0.0868 0.0475,-0.2266 0.11059,-0.37259 0.0143,-0.0404 0.0305,-0.0735 0.0496,-0.0982 0.0322,-0.065 0.0586,-0.13318 0.0961,-0.1912 0.14106,-0.21828 0.25631,-0.2773 0.25631,-0.13178 0,0.062 -0.0235,0.15345 -0.0584,0.2527 0.0579,-0.046 0.11251,-0.12369 0.15089,-0.22376 0.0357,-0.0929 -0.0428,-0.27868 -0.17466,-0.49299 -0.0839,-0.0151 -0.2937,-0.12415 -0.65423,-0.32298 -0.52574,-0.28992 -0.70778,-0.62649 -0.4687,-0.86558 0.007,-0.007 0.0319,0.007 0.0574,0.0207 -0.10995,-0.0731 -0.20962,-0.12434 -0.2744,-0.11369 -0.0863,0.0142 -0.15658,-0.0336 -0.15658,-0.10645 v -0.52917 c 0,-0.0661 0.006,-0.11936 0.0145,-0.16795 -0.0186,0.0637 -0.0314,0.13932 -0.0357,0.23358 -0.0131,0.29106 -0.0714,0.337 -0.1571,0.12351 -0.19036,-0.47393 0.40344,-1.1157 1.0325,-1.1157 0.38607,0 0.47917,-0.11898 0.35191,-0.45062 -0.0952,-0.24808 -0.24079,-0.94492 -0.32349,-1.54822 -0.12198,-0.88998 -0.18975,-1.06105 -0.69815,-1.07332 z m 0.0326,3.63905 c 0.20422,0.0218 0.56339,0.30242 1.14153,0.88057 l 0.91778,0.91829 0.0263,-0.045 -0.89555,-0.89555 c -0.59451,-0.59451 -0.972,-0.87067 -1.19011,-0.85835 z m 3.89589,0.0579 c -0.0244,0.002 -0.0347,0.0339 -0.0429,0.0713 -0.001,0.0225 -0.007,0.0495 -0.01,0.0739 7.1e-4,0.0498 0.005,0.10779 0.0176,0.18449 0.0437,0.27563 0.0284,0.35191 -0.0341,0.17001 -0.0115,-0.0334 -0.0291,-0.0551 -0.0434,-0.0832 -0.0371,0.12641 -0.0842,0.26416 -0.15193,0.42633 -0.0977,0.23392 -0.17419,0.46233 -0.22065,0.64596 0.17729,-0.12414 0.33871,-0.20049 0.42633,-0.18345 0.004,7.6e-4 0.007,-4e-5 0.0114,5.1e-4 0.0142,-0.0454 0.0272,-0.0885 0.0527,-0.15554 0.0961,-0.25244 0.23697,-0.39584 0.31988,-0.33125 0.038,-0.25919 -0.005,-0.55551 -0.16536,-0.71623 -0.0712,-0.0712 -0.12419,-0.10561 -0.15968,-0.10284 z m -0.69247,0.24443 c -0.21901,0.10442 -0.45764,0.33455 -0.66662,0.68833 l -0.0114,0.0196 c 0.18561,-0.31314 0.45162,-0.58168 0.67799,-0.70797 z m -28.646317,0.73329 c 1.054795,0.0182 2.104483,0.28542 2.736267,0.79478 l 0.661459,0.5333 -1.190625,-0.16019 c -0.654844,-0.0882 -1.905015,-0.0337 -2.778125,0.12143 -0.873125,0.15515 -1.930554,0.35889 -2.349728,0.45269 -0.936637,0.20957 -0.864618,-0.28205 0.152962,-1.0418 0.652612,-0.48722 1.712996,-0.71838 2.76779,-0.70021 z m 30.712347,0.0692 c -0.0102,-0.003 -0.022,0.001 -0.0351,0.006 -0.0632,0.033 -0.16312,0.17425 -0.32195,0.401 -0.31792,0.45389 -0.58776,0.56925 -1.05833,0.45114 -0.23124,-0.058 -0.37929,-0.0725 -0.47542,-0.0331 0.0479,0.07 0.024,0.0775 -0.0491,0.0279 -0.0795,0.0635 -0.10697,0.18825 -0.10697,0.39791 0,0.30338 0.12533,0.81179 0.27854,1.12965 0.19485,0.40422 0.0784,0.34136 -0.38757,-0.20878 l -0.14263,-0.16794 c 0.1533,0.27021 0.36476,0.60389 0.65887,1.04231 0.83261,1.24113 1.19122,1.91037 1.15135,2.22415 0.0547,-0.1581 -0.0182,-0.45034 -0.23461,-0.85472 -0.23216,-0.4338 -0.17386,-0.48095 0.49041,-0.39688 0.7519,0.0952 0.75326,0.0927 0.5395,-1.01131 -0.11788,-0.60886 -0.21948,-1.58044 -0.22582,-2.15852 -0.006,-0.57052 -0.01,-0.82992 -0.0811,-0.84905 z m -4.98678,0.0512 c 0.11105,0.0835 0.28765,0.25096 0.48163,0.45166 -0.16562,-0.18182 -0.33181,-0.33985 -0.48163,-0.45166 z m 2.55075,0.92295 c -0.013,0.01 -0.0266,0.0164 -0.0393,0.0269 -0.0366,0.0303 -0.0638,0.0648 -0.0837,0.10387 z m -0.76378,0.94929 -0.41599,1.23403 c -0.22876,0.67875 -0.57952,1.38799 -0.7798,1.57614 -0.0817,0.0767 -0.14259,0.12096 -0.18655,0.1297 0.32152,0.12062 0.62644,-0.37624 0.95808,-1.57406 0.15109,-0.54571 0.35897,-0.98961 0.4625,-0.9865 0.36081,0.0108 1.69309,2.13668 1.78542,2.84892 0.39166,3.02081 0.43358,4.86158 0.12764,5.60017 -0.70654,1.70573 -2.17665,0.50257 -2.1518,-1.76113 0.0174,-1.58208 -0.20056,-2.7249 -0.51987,-2.7249 -0.13396,0 -0.24291,1.27992 -0.24236,2.84427 7.9e-4,2.43231 0.0819,2.97775 0.56224,3.76566 0.30891,0.50675 0.75491,1.06866 0.99115,1.24851 0.59586,0.45361 1.65501,0.42176 2.35697,-0.0692 v 5.2e-4 c 1.01376,-0.71017 1.38027,-1.78192 1.38027,-4.03852 0,-1.15305 -0.0731,-2.46156 -0.16226,-2.90731 -0.14274,-0.71371 -0.22134,-0.77354 -0.65733,-0.50126 -0.40015,0.24999 -0.58438,0.21897 -0.96221,-0.16278 -0.41558,-0.41989 -0.41849,-0.45403 -0.0248,-0.30541 0.2269,0.0856 0.428,0.0209 0.59997,-0.18345 -0.0702,0.007 -0.17424,0.0124 -0.31471,0.0186 -0.50706,0.0225 -0.66866,-0.0808 -0.63924,-0.44648 -0.006,-0.006 -0.0103,-0.007 -0.016,-0.0129 -0.23821,-0.23994 -0.23466,-0.28604 0.0129,-0.20206 -0.093,-0.25331 -0.52603,-0.97874 -1.05523,-1.75803 z m 14.87558,1.97507 c 0.19492,0.006 -0.0547,0.28174 -0.81132,0.7829 -0.66116,0.43794 -1.72357,1.36067 -2.3611,2.05052 -0.63752,0.68985 -1.36105,1.55184 -1.60765,1.91565 -0.29891,0.44098 -0.4535,0.52679 -0.4625,0.25735 -0.0311,-0.90528 2.46503,-3.71361 4.0106,-4.51239 0.65963,-0.34091 1.08037,-0.49892 1.23197,-0.49403 z m -15.95613,1.30949 c -0.0642,0 -0.19015,0.11905 -0.28009,0.26458 -0.0899,0.14552 -0.0378,0.26458 0.11627,0.26458 0.15411,0 0.28061,-0.11906 0.28061,-0.26458 0,-0.14553 -0.0526,-0.26458 -0.11679,-0.26458 z m -28.011735,0.0429 v 5.1e-4 c 0.09643,-4.6e-4 0.191561,0.002 0.285254,0.008 l 1.252636,0.0806 -1.456758,0.68368 c -0.801243,0.37588 -2.158889,1.25452 -3.01687,1.95337 l -1.560112,1.27124 0.176217,-0.88212 c 0.09701,-0.48504 0.363256,-1.16703 0.591695,-1.51567 0.573047,-0.8746 2.281453,-1.59294 3.727938,-1.5999 z m 32.518435,0.0641 c -0.008,-0.002 -0.0182,-2.8e-4 -0.031,0.002 -0.0615,0.0153 -0.18069,0.0862 -0.36793,0.20309 -0.1539,0.0961 -0.27345,0.15647 -0.37672,0.18449 0.031,0.011 0.0542,0.0213 0.0894,0.0326 h 5.1e-4 c 0.24186,0.0774 0.36349,0.12173 0.42478,0.15451 0.0336,-0.0464 0.0686,-0.0881 0.0997,-0.14624 0.1525,-0.28495 0.21631,-0.41857 0.16123,-0.43046 z m 18.90944,1.21284 c 0.01,0.0341 0.0192,0.0678 0.0289,0.1018 -0.009,-0.0338 -0.0189,-0.0676 -0.0284,-0.10128 z m 0.0289,0.1018 c 0.0449,0.16105 0.0928,0.31936 0.13436,0.48318 -0.004,-0.0172 -0.008,-0.0356 -0.0119,-0.0527 -0.0358,-0.14143 -0.0812,-0.28676 -0.12247,-0.43047 z m 0.26355,1.04542 c 0.0433,0.20816 0.0835,0.42039 0.12195,0.63458 5.4e-4,-0.0296 0.001,-0.0593 0.001,-0.0889 -0.0371,-0.185 -0.0819,-0.36386 -0.12299,-0.5457 z m -45.198283,1.37046 c 0.754644,-0.0137 1.490748,0.0345 2.165243,0.15193 2.89061,0.50338 5.41434,2.42518 5.41724,4.12584 6e-4,0.34801 -0.43565,0.94811 -1.10536,1.52136 -1.22798,1.05112 -1.69946,1.21111 -1.28416,0.43511 0.82117,-1.53439 -0.38323,-4.11127 -2.304767,-4.93148 -1.885949,-0.80503 -6.504246,-0.37362 -8.819617,0.82372 -1.040014,0.53782 -1.173479,0.12927 -0.176216,-0.5395 1.414897,-0.94885 3.843691,-1.54594 6.107637,-1.58698 z m 38.594553,0.13126 c 0.0706,0 -0.34078,0.50601 -0.91416,1.12447 -1.71153,1.84608 -3.62126,4.97074 -4.2447,6.94532 -0.4448,1.4088 -0.58446,2.50107 -0.58446,4.56406 0,1.49166 -0.0208,2.71205 -0.046,2.71198 -0.40319,-10e-4 -1.88398,-1.75461 -2.48151,-2.93832 -1.49213,-2.95619 -1.05486,-4.26193 2.56212,-7.64501 1.88814,-1.76611 5.47982,-4.7625 5.7087,-4.7625 z m -24.5644,8.47235 c -0.94147,-0.005 -1.22537,0.13999 -2.03915,1.04076 -1.97809,2.18952 -2.98167,5.45857 -2.7249,8.87543 0.18915,2.51683 0.5288,3.66875 1.74201,5.91075 1.02558,1.89523 3.94264,4.74143 5.10822,4.98419 0.40018,0.0834 0.72761,0.24054 0.72761,0.34881 0,0.39806 3.86197,1.23233 5.98464,1.29295 0.5994,0.0171 2.08769,-0.14364 3.3073,-0.35708 3.52616,-0.61757 8.17078,-2.41438 10.46602,-4.04885 0.45567,-0.32446 0.95936,-0.59015 1.1188,-0.59015 0.15944,0 0.29054,-0.0893 0.29145,-0.19844 8e-4,-0.10914 0.34427,-0.39314 0.76326,-0.63148 0.46725,-0.26579 0.92703,-0.68389 1.3684,-1.22422 0.0804,-0.157 0.1648,-0.31198 0.24959,-0.46612 0.37514,-0.66043 0.78856,-1.29777 1.21182,-1.92805 0.75541,-1.59284 1.3837,-3.56469 1.79007,-5.73815 0.0167,-0.0892 0.0227,-0.13173 0.0377,-0.21342 0.0272,-0.51172 0.0616,-1.02295 0.10387,-1.53376 -0.0318,0.0293 -0.0686,0.0706 -0.1142,0.13281 -0.20256,0.2761 -0.30471,0.60405 -0.22738,0.72916 0.0773,0.12511 -0.0452,0.29852 -0.27182,0.3855 -0.22667,0.087 -0.34613,0.26506 -0.26562,0.39533 0.0805,0.13027 0.0203,0.23668 -0.13384,0.23668 -0.15411,0 -0.28008,0.17859 -0.28008,0.39687 0,0.21828 0.11906,0.39688 0.26458,0.39688 0.14552,0 0.26458,0.11905 0.26458,0.26458 0,0.14552 -0.36462,0.26458 -0.80977,0.26458 -0.4722,0 -0.74085,0.11023 -0.64544,0.26459 0.0899,0.14537 0.0235,0.26458 -0.14727,0.26458 -0.20622,0 -0.1669,0.2192 0.11679,0.65216 0.57551,0.87842 0.54225,0.9664 -0.25167,0.66455 -0.87415,-0.33235 -0.98147,-0.32583 -0.74879,0.0512 0.12864,0.20814 0.0475,0.25416 -0.24856,0.14056 -0.5541,-0.21263 -0.56006,0.0557 -0.0165,0.83096 0.51693,0.73801 0.34323,0.98165 -0.41134,0.57774 -0.72187,-0.38634 -1.74685,-0.10542 -1.35186,0.37052 0.15192,0.18305 0.21505,0.39421 0.14004,0.46923 -0.075,0.075 0.0449,0.2872 0.26665,0.47128 0.75952,0.63034 0.40409,0.84269 -0.48782,0.29146 -1.00294,-0.61985 -1.34731,-0.69803 -1.06505,-0.24133 0.13164,0.213 0.0419,0.25222 -0.28681,0.12609 -0.0491,-0.0188 -0.0752,-0.0247 -0.11317,-0.0377 0.64352,0.37706 1.29811,0.99556 1.29811,1.23145 0,0.43083 -0.40271,0.18657 -1.05833,-0.64131 -0.28137,-0.35534 -0.41448,-0.59643 -0.36019,-0.63045 -0.16172,-0.0391 -0.12051,0.0434 0.0904,0.29817 0.25088,0.30229 0.25519,0.40308 0.0181,0.40308 -0.18644,0 -0.0908,0.28603 0.23254,0.69711 0.97161,1.2352 0.63125,1.55642 -0.53382,0.50385 -1.21263,-1.09554 -1.52218,-1.08556 -0.95911,0.031 0.43084,0.8545 0.79545,2.20762 0.59479,2.20762 -0.0735,0 -0.45051,-0.47898 -0.83767,-1.06402 -0.38716,-0.58504 -0.76422,-1.00362 -0.83768,-0.93017 -0.0735,0.0735 -0.2983,-0.0727 -0.49971,-0.32505 -0.32454,-0.40668 -0.36117,-0.3234 -0.32143,0.73174 0.0727,1.92909 -0.009,2.0478 -0.56585,0.82062 -0.29044,-0.64013 -0.6034,-1.08848 -0.69557,-0.99632 -0.0922,0.0922 -0.33706,-0.0395 -0.54415,-0.29197 -0.34459,-0.41999 -0.36431,-0.40303 -0.23461,0.19275 0.16606,0.76287 -0.32377,2.92024 -0.66301,2.92024 -0.12824,0 -0.23306,-0.40183 -0.23306,-0.89297 0,-1.30602 -0.29427,-2.55946 -0.56172,-2.39417 -0.12781,0.079 -0.23203,-0.002 -0.23203,-0.18087 0,-0.62886 -0.31481,8.7e-4 -0.56586,1.13223 -0.23727,1.0693 -1.46596,3.30274 -1.6924,3.0763 -0.056,-0.056 0.19088,-1.02368 0.5488,-2.15077 0.35791,-1.12709 0.637,-2.25254 0.62012,-2.50166 -0.028,-0.41324 -0.041,-0.41281 -0.15193,0.0124 -0.0669,0.25644 -0.22323,0.40377 -0.34726,0.32712 -0.12403,-0.0767 -0.30596,0.11347 -0.40411,0.42271 -0.21905,0.69015 -1.863,2.54116 -2.6138,2.94297 -0.49063,0.26258 -0.47614,0.19585 0.13384,-0.60926 0.88166,-1.16372 2.09244,-3.34305 2.08722,-3.7574 -0.003,-0.20175 -0.0994,-0.17358 -0.26045,0.076 -0.21918,0.33917 -0.25751,0.32961 -0.26097,-0.0656 -0.007,-0.79354 -0.67515,-0.50738 -1.01596,0.43512 -0.32329,0.89395 -2.53108,3.33519 -3.01635,3.33519 -0.14003,0 0.15148,-0.56555 0.6475,-1.25677 1.22958,-1.71345 2.41427,-3.76675 2.26136,-3.91966 -0.0691,-0.0692 -0.46039,0.38266 -0.86919,1.00408 -0.77338,1.17564 -2.00182,2.38706 -2.20969,2.17919 -0.066,-0.066 0.0726,-0.33271 0.30748,-0.59221 0.23484,-0.2595 0.74416,-1.16515 1.13223,-2.0128 0.62757,-1.37079 0.69285,-1.78219 0.59118,-3.71915 -0.13308,-2.53558 -0.71352,-3.89299 -2.41846,-5.65288 -2.10647,-2.17449 -5.87874,-4.00352 -8.28167,-4.01578 z m 0.24598,0.92552 v 5.2e-4 c 0.9182,0.0231 3.11624,0.65037 4.6731,1.38648 5.92561,2.80126 7.1509,9.81475 2.32544,13.3103 -0.58892,0.42646 -1.27717,0.77566 -1.52962,0.77566 -0.36233,0 -0.28232,-0.19324 0.38086,-0.91726 1.12328,-1.22634 1.74769,-3.0722 1.74769,-5.16816 0,-2.53451 -0.64317,-4.06197 -2.51612,-5.97534 -1.68958,-1.72617 -3.1062,-2.59472 -4.7284,-2.89905 -0.622,-0.1167 -0.90627,-0.28126 -0.75189,-0.43563 0.0405,-0.0405 0.12044,-0.0643 0.23306,-0.0734 0.0493,-0.004 0.10467,-0.005 0.16588,-0.004 z m -11.88248,6.1929 c -0.01109,0.0652 -0.02493,0.12198 -0.03514,0.18966 0.0131,-0.0634 0.03039,-0.12549 0.04444,-0.18862 -0.0031,-4.9e-4 -0.0062,-8.7e-4 -0.0093,-0.001 z m 37.68556,3.72381 c 0.15475,0 0.35989,0.12695 0.45579,0.28215 0.28477,0.46076 -0.0397,0.55869 -0.40256,0.12144 -0.20867,-0.25146 -0.22907,-0.40359 -0.0532,-0.40359 z m -1.32292,1.5875 c 0.15475,0 0.35989,0.12695 0.45579,0.28215 0.28476,0.46076 -0.0397,0.55869 -0.40256,0.12144 -0.20867,-0.25146 -0.22906,-0.40359 -0.0532,-0.40359 z m -12.24834,1.63297 c 0.0919,-0.007 0.12557,0.19054 0.12557,0.57826 0,0.34287 -0.42084,1.17377 -0.93483,1.84692 -0.51398,0.67314 -1.17964,1.3552 -1.47949,1.51567 -0.51385,0.275 -0.50962,0.24142 0.0744,-0.59015 0.34089,-0.48527 0.6933,-0.94212 0.7829,-1.01492 0.0896,-0.0728 0.41923,-0.63831 0.73277,-1.25677 0.36539,-0.72072 0.58046,-1.06943 0.69867,-1.07901 z m 8.99893,0.85163 c 0.0892,0.0111 0.26072,0.14011 0.50385,0.40876 0.25642,0.28351 0.41911,0.65767 0.36121,0.83148 -0.0594,0.1782 -0.31154,0.002 -0.57774,-0.40411 -0.35645,-0.54401 -0.43599,-0.85456 -0.28732,-0.83613 z m -1.78284,0.59273 c 0.0485,-0.005 0.12848,0.0603 0.24857,0.18035 0.22316,0.22318 0.33298,0.73163 0.27388,1.26917 -0.10976,0.99867 -0.36425,0.63483 -0.53795,-0.76894 -0.058,-0.46891 -0.0654,-0.67227 0.0155,-0.68058 z m -5.58415,0.18397 c 0.0164,0.004 0.0277,0.0197 0.0336,0.0465 0.0467,0.2145 -0.18051,0.86204 -0.50488,1.43919 -0.94407,1.67959 -1.28626,1.44251 -0.39223,-0.27182 0.39091,-0.74946 0.74885,-1.24532 0.86352,-1.21388 z m 1.52445,0.0248 c 0.0569,-0.01 0.1382,0.039 0.25373,0.13488 0.38859,0.32251 0.25914,1.21649 -0.33796,2.33216 -0.25362,0.4739 -1.09451,1.03242 -1.09451,0.72708 0,-0.0647 0.23764,-0.50694 0.52814,-0.9834 0.2905,-0.47646 0.52863,-1.20826 0.52916,-1.62626 5.1e-4,-0.3908 0.0267,-0.56859 0.12144,-0.58446 z m 2.14302,0.30903 c 0.0327,8.2e-4 0.0717,0.0377 0.11783,0.10904 0.14106,0.21814 0.25631,0.63499 0.25631,0.92604 0,0.29104 -0.11525,0.70776 -0.25631,0.92604 -0.18428,0.28519 -0.25684,0.0246 -0.25684,-0.92604 0,-0.71299 0.041,-1.03754 0.13901,-1.03508 z m 5.76399,3.6158 c -0.3726,0.31274 -0.75504,0.61669 -1.1467,0.90899 0.006,-0.001 0.0127,-0.002 0.0191,-0.004 0.002,-3.1e-4 0.003,-3.3e-4 0.005,-5.1e-4 0.38475,-0.28978 0.75674,-0.59372 1.12241,-0.90383 z" /><path
       style="display:inline;fill:#000000;stroke-width:1"
       d="m 117.19245,197.75656 c -7.20199,-0.54774 -11.74222,-2.37829 -15.2226,-6.13752 -3.287006,-3.55036 -4.540359,-8.45407 -3.164184,-12.37977 l 0.324628,-0.92605 -4.131945,-0.0139 c -3.727488,-0.0126 -4.365041,-0.085 -6.513198,-0.73998 -8.412795,-2.56511 -13.410795,-7.43407 -15.521829,-15.12111 -0.487902,-1.77662 -0.584216,-2.83925 -0.599519,-6.61458 -0.02175,-5.36394 0.250769,-6.60611 2.931326,-13.36146 2.592533,-6.53352 4.093403,-9.51745 5.364946,-10.66621 1.070022,-0.9667 1.080608,-0.99431 0.916527,-2.39039 -0.09319,-0.79294 -0.0488,-1.63369 0.101211,-1.91697 0.186505,-0.35217 0.155705,-1.024 -0.101973,-2.22436 -0.87444,-4.07344 -0.684141,-14.28591 0.294021,-15.77877 0.788643,-1.20362 2.583249,-1.50078 9.657998,-1.59919 3.565261,-0.0496 6.742275,-0.0889 7.060031,-0.0874 0.428086,0.002 0.60629,-0.18566 0.687962,-0.72479 0.10522,-0.69459 0.112019,-0.68958 0.149865,0.11037 0.03708,0.78382 0.125974,0.85648 1.375583,1.12448 2.13471,0.45781 2.06999,0.50643 2.17177,-1.63173 l 0.0913,-1.91823 0.0526,2.05053 c 0.0578,2.25388 0.49476,2.78597 0.65184,0.79375 l 0.0991,-1.25677 0.0477,1.33437 0.0477,1.33436 1.8513,0.88415 c 1.11267,0.53139 2.27385,1.34256 2.91042,2.03315 0.83913,0.91035 1.05912,1.04107 1.05912,0.6293 0,-0.64006 -3.33846,-41.164888 -3.61803,-43.918462 l -0.20147,-1.984375 -0.18571,1.455209 c -0.10918,0.855464 -0.14789,-0.07141 -0.0939,-2.248959 0.0505,-2.037291 0.005,-4.239948 -0.10016,-4.894791 l -0.19193,-1.190625 -0.44431,2.38125 c -0.76194,4.083616 -1.17698,6.72121 -1.80662,11.480935 -0.3348,2.530976 -0.65407,4.465776 -0.70947,4.299556 -0.0554,-0.16621 0.1598,-2.1995 0.47823,-4.51842 0.31843,-2.318921 0.52573,-4.372787 0.46066,-4.564146 -0.0651,-0.191359 -0.39198,0.187856 -0.72648,0.8427 -0.75194,1.472077 -2.60791,4.233333 -2.84542,4.233333 -0.09644,0 -0.03247,-0.142875 0.14215,-0.3175 0.17462,-0.174625 0.3175,-0.438448 0.3175,-0.586274 0,-0.147826 -0.672037,0.382002 -1.493412,1.177396 l -1.493414,1.44617 1.439122,-1.7255 c 2.605904,-3.124471 4.415914,-6.224766 4.862444,-8.328667 0.147,-0.692616 0.0792,-0.64205 -0.53246,0.396875 -0.78812,1.338749 -2.2554,2.945284 -3.443738,3.770573 -0.436563,0.303189 -0.04961,-0.133492 0.859898,-0.970402 0.9095,-0.836909 1.65364,-1.690257 1.65364,-1.896329 0,-0.562975 -0.36385,-0.45411 -1.07836,0.322643 -0.79784,0.867356 -2.611069,2.213098 -2.981886,2.213098 -0.152177,0 0.252641,-0.337905 0.899595,-0.7509 1.760481,-1.123837 3.271741,-2.9243 4.492441,-5.35215 1.13011,-2.247689 1.69606,-4.521598 1.23911,-4.978555 -0.16606,-0.166058 -0.50019,-0.164314 -0.94534,0.0049 -0.45835,0.174262 -0.71818,0.172772 -0.77725,-0.0045 -0.0488,-0.146425 -0.28941,-0.211638 -0.53467,-0.144917 -0.60957,0.165828 0.99233,-0.568933 1.74353,-0.799725 0.33108,-0.101718 0.58487,-0.08667 0.56398,0.03344 -0.15739,0.904975 0.58687,1.338191 1.21679,0.708269 0.50808,-0.508079 0.10125,-1.137305 -0.76148,-1.177725 -0.50594,-0.0237 -0.49596,-0.04781 0.0985,-0.238209 0.72627,-0.232588 1.66899,-0.309514 1.13403,-0.09253 -0.2993,0.121394 -0.19632,0.482275 0.40172,1.40779 0.1685,0.260764 0.56302,-0.672567 0.44506,-1.052879 -0.10715,-0.345433 0.43607,-0.392598 4.04093,-0.350851 4.85512,0.05623 6.08899,0.205045 7.8108,0.942072 1.73381,0.742164 1.43063,0.86118 -0.35455,0.139182 -1.31541,-0.532003 -1.84912,-0.578399 -6.1941,-0.538468 -4.2097,0.03869 -4.79384,0.09729 -5.09655,0.511266 -0.30059,0.411079 -0.15869,0.652708 1.1745,1.999955 0.83402,0.842812 1.36427,1.532385 1.17833,1.532385 -0.18593,0 -0.26327,0.121004 -0.17187,0.268899 0.0914,0.147895 0.25655,0.213051 0.367,0.144793 0.11044,-0.06826 0.90589,0.614409 1.76765,1.517038 l 1.56685,1.641145 -1.6024,-1.528505 c -0.88132,-0.840677 -1.66792,-1.46298 -1.74801,-1.382895 -0.0801,0.08009 -0.7775,-0.685569 -1.54982,-1.701454 -0.77232,-1.015886 -1.4988,-1.788608 -1.6144,-1.717161 -0.19175,0.118509 0.99746,3.705233 2.38967,7.2074 0.30754,0.773604 0.42597,1.32424 0.26319,1.223637 -0.20466,-0.126487 -0.23627,0.01095 -0.10246,0.445532 0.56984,1.850656 -0.7709,-1.261046 -2.06625,-4.795512 -0.0817,-0.223048 -0.16777,-0.04922 -0.1964,0.396875 -0.028,0.436562 -0.21716,-0.273 -0.4203,-1.576805 -0.20314,-1.303805 -0.49981,-2.49443 -0.65927,-2.645833 -0.20825,-0.197734 -0.24791,-0.05168 -0.14079,0.518471 0.43231,2.300881 0.71789,4.951941 0.58017,5.385826 -0.16935,0.5336 0.33736,7.214748 3.84689,50.722021 0.16506,2.04619 0.24132,3.95119 0.16948,4.23333 -0.0718,0.28215 -0.14444,-0.11209 -0.16132,-0.87607 -0.0169,-0.76398 -0.13318,-1.38906 -0.25845,-1.38906 -0.32889,0 -2.05412,3.88155 -2.96735,6.67613 -0.43048,1.31734 -1.02889,3.77024 -1.32979,5.4509 -0.3009,1.68066 -0.72832,3.50869 -0.94983,4.06229 -0.39428,0.9854 -0.38686,1.0251 0.35318,1.89007 0.41576,0.48594 1.41077,1.78954 2.21113,2.89688 1.33225,1.84322 2.11816,2.58834 1.76824,1.67647 -0.0772,-0.20132 -0.35166,-1.61438 -0.6098,-3.14014 -0.39757,-2.34983 -0.41783,-2.94604 -0.13249,-3.89842 0.37334,-1.24608 1.26168,-2.20837 2.40737,-2.60776 1.45215,-0.50622 3.07799,0.86324 3.56268,3.00088 l 0.17997,0.79375 -0.80944,-0.87577 c -0.74047,-0.80114 -1.33944,-0.93174 -1.33944,-0.29204 0,0.14089 1.04121,1.50462 2.3138,3.03051 1.58858,1.90479 2.43861,2.72691 2.71198,2.62297 0.31162,-0.11848 0.32872,-0.0814 0.0787,0.17057 -0.25094,0.25287 -0.4071,0.24928 -0.7276,-0.0167 -0.51961,-0.43123 -0.51451,-0.23296 0.0883,3.42765 l 0.45702,2.7755 0.5064,-0.85727 c 0.27852,-0.47149 0.68909,-0.86105 0.91238,-0.86568 0.31833,-0.007 0.2951,-0.0923 -0.10762,-0.39687 -0.49585,-0.37505 -0.49083,-0.38846 0.14552,-0.38846 0.36251,0 0.78991,0.13079 0.94977,0.29065 0.19607,0.19607 0.17754,-0.25596 -0.057,-1.38906 -0.46979,-2.27009 -1.1862,-7.93635 -1.1862,-9.38196 0,-1.14242 -0.018,-1.16722 -0.7276,-1.00258 -1.1729,0.27212 -1.91966,0.86162 -1.90146,1.50101 0.0167,0.58617 0.0179,0.58633 0.24244,0.0307 0.12412,-0.30717 0.41894,-0.63267 0.65515,-0.72331 0.55055,-0.21127 1.46689,0.35569 1.46689,0.90759 0,0.47618 -0.80586,1.30027 -1.27151,1.30027 -0.46254,0 -1.18528,1.2499 -0.94947,1.64201 0.15767,0.26219 0.10288,0.25885 -0.23398,-0.0143 -0.4008,-0.32498 -0.35852,-0.44246 0.47608,-1.32291 0.85959,-0.9068 1.21548,-1.8923 0.68337,-1.8923 -0.32303,0 -1.87949,1.79701 -1.87949,2.16996 0,0.16472 -0.064,0.23549 -0.1422,0.15728 -0.0782,-0.0782 -0.0259,-0.42547 0.11631,-0.7717 0.14217,-0.34623 0.33286,-1.19735 0.42376,-1.89139 0.0909,-0.69405 0.2506,-1.20915 0.35492,-1.14468 0.10431,0.0645 1.15565,-0.10771 2.33631,-0.38262 2.90163,-0.67565 8.24447,-1.092 9.92447,-0.7734 0.72418,0.13734 1.66425,0.4972 2.08906,0.79968 0.4248,0.30249 0.77237,0.43209 0.77237,0.288 0,-0.40349 -2.1552,-2.15489 -2.87359,-2.33519 -0.35135,-0.0882 -2.25954,-0.0951 -4.24043,-0.0154 -3.01334,0.1212 -3.90071,0.25788 -5.43283,0.83676 -1.00718,0.38053 -1.9684,0.80572 -2.13605,0.94486 -0.22322,0.18526 -0.26826,0.0245 -0.16825,-0.6005 0.0807,-0.50437 0.17774,-0.66408 0.23722,-0.39046 0.0974,0.448 0.59101,0.66781 0.59101,0.26318 0,-0.24987 1.39879,-0.73147 3.96875,-1.36644 3.95783,-0.97787 7.51325,-1.1538 8.62298,-0.42668 1.85602,1.2161 2.70441,2.25664 2.87317,3.52386 0.23966,1.79969 -0.25047,5.77472 -1.1785,9.55774 l -0.80547,3.28341 0.53558,0.5701 c 0.29765,0.31684 0.53557,0.931 0.53557,1.38251 0,0.59827 0.19179,0.93376 0.72761,1.27279 1.45058,0.91784 2.52257,2.78696 2.84977,4.96887 0.13395,0.89327 0.34153,1.2717 0.84552,1.54142 1.81389,0.97077 4.39108,5.22588 5.26967,8.70061 0.92859,3.67244 0.86037,8.84636 -0.16099,12.20896 -0.30608,1.0077 -0.53574,2.51375 -0.53574,3.51328 0,2.31164 -0.91919,6.50524 -1.86233,8.49649 -1.61964,3.41954 -5.5407,7.12471 -9.64705,9.11588 -3.63835,1.76425 -6.66416,2.24005 -11.77396,1.85142 z m 5.05857,-2.50148 c 3.52631,-0.61757 8.17111,-2.41433 10.4665,-4.0488 0.45567,-0.32446 0.95894,-0.58993 1.11838,-0.58993 0.15944,0 0.29064,-0.0893 0.29155,-0.19844 8e-4,-0.10914 0.34449,-0.39344 0.76348,-0.63178 1.94495,-1.10635 3.7673,-4.79713 4.61971,-9.35624 0.33032,-1.76673 0.33486,-2.03367 0.0275,-1.61467 -0.20256,0.2761 -0.30503,0.60437 -0.2277,0.72948 0.0773,0.12511 -0.0449,0.29864 -0.27154,0.38562 -0.22667,0.087 -0.34625,0.26473 -0.26574,0.395 0.0805,0.13027 0.0203,0.23686 -0.13381,0.23686 -0.15411,0 -0.2802,0.1786 -0.2802,0.39688 0,0.21828 0.11906,0.39687 0.26458,0.39687 0.14552,0 0.26459,0.11906 0.26459,0.26459 0,0.14552 -0.36422,0.26458 -0.80937,0.26458 -0.4722,0 -0.74125,0.11022 -0.64584,0.26458 0.0899,0.14552 0.0237,0.26459 -0.14711,0.26459 -0.20622,0 -0.16701,0.21919 0.11668,0.65215 0.57566,0.87857 0.54254,0.96606 -0.25138,0.66421 -0.87415,-0.33235 -0.98142,-0.32497 -0.74874,0.0515 0.12864,0.20814 0.0471,0.2542 -0.24897,0.1406 -0.5541,-0.21263 -0.5594,0.0558 -0.0164,0.83101 0.51693,0.73801 0.34353,0.98162 -0.41119,0.57771 -0.72187,-0.38634 -1.7468,-0.10539 -1.35181,0.37055 0.15192,0.18305 0.21484,0.39419 0.13983,0.46921 -0.075,0.075 0.0451,0.28699 0.26687,0.47107 0.75952,0.63034 0.40406,0.8427 -0.48785,0.29147 -1.00294,-0.61985 -1.34772,-0.6979 -1.06546,-0.2412 0.13164,0.213 0.0423,0.25237 -0.28639,0.12624 -0.40383,-0.15497 -0.42599,-0.121 -0.1433,0.21962 0.25088,0.30229 0.25543,0.40293 0.0182,0.40293 -0.18644,0 -0.0912,0.28606 0.23219,0.69714 0.97161,1.2352 0.63157,1.55627 -0.5335,0.5037 -1.21263,-1.09554 -1.52222,-1.08543 -0.95915,0.0313 0.43084,0.8545 0.79526,2.2074 0.5946,2.2074 -0.0735,0 -0.45035,-0.47867 -0.83751,-1.06371 -0.38716,-0.58504 -0.76403,-1.00361 -0.83749,-0.93016 -0.0735,0.0735 -0.29835,-0.073 -0.49976,-0.32535 -0.32454,-0.40668 -0.3611,-0.32342 -0.32136,0.73172 0.0727,1.92911 -0.009,2.04768 -0.56589,0.8205 -0.29044,-0.64013 -0.60347,-1.08846 -0.69564,-0.9963 -0.0922,0.0922 -0.33701,-0.0389 -0.5441,-0.29133 -0.34459,-0.41999 -0.36451,-0.4037 -0.23481,0.19208 0.16606,0.76287 -0.3238,2.92088 -0.66304,2.92088 -0.12824,0 -0.23317,-0.40183 -0.23317,-0.89297 0,-1.30602 -0.29393,-2.5597 -0.56138,-2.39441 -0.12781,0.079 -0.23237,-0.002 -0.23237,-0.18068 0,-0.62886 -0.31461,0.001 -0.56566,1.13236 -0.23727,1.0693 -1.46598,3.30267 -1.69242,3.07623 -0.056,-0.056 0.19107,-1.02393 0.54899,-2.15102 0.35791,-1.12709 0.63694,-2.25307 0.62006,-2.50219 -0.028,-0.41324 -0.0414,-0.41207 -0.15231,0.0133 -0.0669,0.25644 -0.22311,0.40354 -0.34714,0.32689 -0.12403,-0.0767 -0.30581,0.11364 -0.40396,0.42288 -0.21905,0.69015 -1.86307,2.54121 -2.61387,2.94302 -0.49063,0.26258 -0.47596,0.19592 0.13402,-0.60919 0.88166,-1.16372 2.09221,-3.34334 2.08699,-3.75769 -0.003,-0.20175 -0.0995,-0.17364 -0.26054,0.0755 -0.21918,0.33917 -0.25707,0.32956 -0.26053,-0.0661 -0.007,-0.79354 -0.67553,-0.50718 -1.01634,0.43532 -0.32329,0.89407 -2.53082,3.33501 -3.01609,3.33501 -0.14003,0 0.15125,-0.56555 0.64727,-1.25677 1.22958,-1.71346 2.41426,-3.76703 2.26135,-3.91994 -0.0691,-0.0692 -0.46019,0.38272 -0.86899,1.00414 -0.77338,1.17564 -2.00166,2.38702 -2.20953,2.17915 -0.066,-0.066 0.0721,-0.33232 0.30699,-0.59182 0.23484,-0.2595 0.7445,-1.16536 1.13257,-2.01301 0.62757,-1.37079 0.69294,-1.78196 0.59127,-3.71894 -0.13308,-2.53559 -0.71388,-3.89297 -2.41882,-5.65298 -2.10647,-2.17449 -5.87845,-4.00366 -8.28138,-4.01592 -0.94147,-0.005 -1.22526,0.14006 -2.03906,1.04083 -1.9781,2.18952 -2.98181,5.45861 -2.72504,8.87547 0.18915,2.51698 0.52849,3.66851 1.74172,5.91051 1.02559,1.89523 3.94268,4.74153 5.10826,4.98429 0.40018,0.0834 0.7276,0.24025 0.7276,0.34867 0,0.39806 3.8618,1.23249 5.98462,1.29311 0.5994,0.0171 2.08768,-0.14364 3.30729,-0.35723 z m -17.75858,-3.40199 c 0,-0.0474 -0.32742,-0.37481 -0.7276,-0.7276 l -0.72761,-0.64143 0.64144,0.7276 c 0.59951,0.68006 0.81377,0.84894 0.81377,0.64143 z m 28.65252,-10.40495 c 2.08299,-1.07716 4.25945,-3.65489 5.66274,-6.70679 2.14558,-4.66624 2.20746,-10.17861 0.17181,-15.30484 -1.58976,-4.00336 -4.17844,-6.45597 -7.5935,-7.19437 l -1.09669,-0.23712 1.38015,0.0837 c 0.75908,0.046 1.3176,-0.0175 1.24116,-0.14121 -0.18633,-0.30148 0.0706,-0.28336 0.76953,0.0543 0.5593,0.27018 0.56132,0.26588 0.0626,-0.13353 -0.28341,-0.22699 -0.75966,-0.35372 -1.05834,-0.28163 -0.29867,0.0721 -0.39348,0.0625 -0.21067,-0.0214 0.18281,-0.0838 0.2572,-0.27409 0.16531,-0.42277 -0.10549,-0.17068 0.0646,-0.20917 0.46137,-0.10441 0.57248,0.15114 0.58517,0.13599 0.14251,-0.1701 -0.26727,-0.1848 -0.68399,-0.49456 -0.92604,-0.68834 -0.39878,-0.31924 -0.39041,-0.33781 0.0891,-0.19778 0.5213,0.15224 0.52154,0.14863 0.0156,-0.24299 -0.28248,-0.21864 -0.63967,-0.39935 -0.79375,-0.40157 -0.1541,-0.002 -0.10158,-0.11948 0.1167,-0.26054 0.3365,-0.21746 0.32406,-0.2571 -0.0818,-0.26053 -0.26325,-0.002 -0.41176,-0.11226 -0.33002,-0.24452 0.17484,-0.28289 -1.20066,-1.4999 -1.97188,-1.74468 -0.82018,-0.26031 -0.35084,-0.65957 0.60798,-0.51719 l 0.84964,0.12616 -0.79375,-0.41028 -0.79375,-0.41028 0.78872,0.11815 c 0.74503,0.11161 0.75969,0.0969 0.26458,-0.2651 -0.28827,-0.2108 -0.52413,-0.49207 -0.52413,-0.62507 0,-0.13299 -0.23813,-0.42173 -0.52917,-0.64165 -0.43367,-0.32769 -0.45209,-0.40137 -0.10211,-0.40827 0.52925,-0.0104 0.75426,-1.44222 0.78675,-5.00627 0.0253,-2.77143 0.39171,-5.98615 0.48588,-4.26257 0.0278,0.50933 0.15065,1.4023 0.27292,1.98438 0.16258,0.77396 0.21181,0.2408 0.18319,-1.9841 l -0.0391,-3.04243 -1.27558,-0.62488 c -1.23697,-0.60595 -1.40254,-0.61909 -5.46879,-0.43412 l -4.19319,0.19074 -0.18934,2.27294 c -0.22489,2.69978 -0.0131,6.42936 0.43863,7.7229 0.17785,0.50932 0.57948,1.30803 0.89252,1.7749 l 0.56916,0.84886 0.68682,-0.78271 c 0.76427,-0.87098 1.43556,-1.06111 1.12873,-0.31969 -0.57937,1.39996 -1.18413,3.76554 -1.1859,4.6387 -10e-4,0.55038 0.1705,1.41358 0.38136,1.91823 0.32307,0.77321 0.51521,0.91754 1.22148,0.91754 0.74628,0 0.81832,0.0652 0.6575,0.59532 -0.94529,3.11574 -1.03783,3.71382 -1.05423,6.81302 -0.01,1.81901 0.0863,3.78354 0.21307,4.36562 l 0.23058,1.05834 0.45,-1.85209 c 0.2475,-1.01864 0.77646,-2.53458 1.17548,-3.36874 0.72297,-1.51142 2.54358,-3.9501 2.54358,-3.4071 0,0.15712 -0.37161,1.38878 -0.82578,2.73701 -0.86583,2.57022 -1.30235,4.17112 -1.13735,4.17112 0.1371,0 1.16938,-2.29756 1.16938,-2.6027 0,-0.48784 2.40604,-2.91779 3.55689,-3.59223 1.53191,-0.89776 1.90029,-0.86608 1.20952,0.10401 -0.91667,1.28736 -2.19029,4.29708 -2.27097,5.3666 -0.0413,0.54751 -0.34121,1.42606 -0.66647,1.95235 -0.55481,0.89769 -1.40982,3.79906 -1.11956,3.79906 0.0729,0 0.61824,-0.41577 1.21191,-0.92393 1.04117,-0.8912 3.82149,-2.1527 4.10958,-1.86461 0.0773,0.0773 -1.10599,1.4209 -2.62946,2.98586 -4.10865,4.22057 -6.04728,7.43897 -6.04728,10.03935 0,1.12541 1.01896,3.14757 2.10644,4.18031 1.67513,1.59081 4.68517,2.19193 6.43774,1.28565 z M 83.987234,173.9476 c -0.08994,-0.14552 -0.305324,-0.26276 -0.478637,-0.26053 -0.189338,0.002 -0.156704,0.10642 0.08176,0.26053 0.508297,0.32849 0.59989,0.32849 0.396875,0 z m 16.999726,-1.33169 c 2.00774,-0.69091 3.34877,-2.07999 3.61494,-3.74449 0.14352,-0.89757 0.0742,-1.19357 -0.39704,-1.69518 -1.46156,-1.55576 -5.849438,-3.00428 -9.128949,-3.01363 -1.753547,-0.005 -4.988893,0.73003 -6.863686,1.55934 -1.26841,0.56107 -1.405424,0.4288 -0.789514,-0.76225 1.045758,-2.02227 4.888857,-3.92701 8.073898,-4.00163 l 1.190625,-0.0279 -1.5875,-0.51877 c -0.873125,-0.28532 -2.629297,-0.64979 -3.902604,-0.80993 -1.273307,-0.16015 -2.315104,-0.39106 -2.315104,-0.51315 0,-0.12209 0.22157,-0.22198 0.492376,-0.22198 0.270807,0 1.431666,-0.30031 2.579688,-0.66735 1.27423,-0.40739 2.743025,-0.67411 3.770638,-0.6847 0.925827,-0.01 1.580671,-0.10375 1.455208,-0.20937 -1.546611,-1.30191 -3.023571,-2.41165 -3.667702,-2.7558 l -0.79375,-0.42409 0.691491,-0.0106 c 1.23884,-0.019 3.383159,0.49184 4.800278,1.14352 0.763069,0.3509 1.427388,0.60159 1.476261,0.55708 0.04887,-0.0445 -0.04009,-1.13235 -0.197691,-2.41742 -0.791117,-6.45054 0.145434,-15.21782 1.858227,-17.39529 0.70852,-0.90074 0.88821,-0.74932 0.36215,0.30518 -0.29858,0.59852 -0.51007,2.7716 -0.80887,8.31119 -0.22253,4.12542 -0.49343,8.4222 -0.60203,9.54838 l -0.19744,2.04762 1.13331,1.11225 c 0.62331,0.61174 1.3892,1.72965 1.70196,2.48424 l 0.56865,1.37199 0.99444,-0.5308 c 2.02563,-1.08122 3.84394,-4.40999 4.15519,-7.60687 0.25461,-2.61512 0.53874,-2.27026 0.73644,0.89388 0.21845,3.49609 0.0145,6.3543 -0.54957,7.70447 -0.58429,1.39841 -0.4748,1.4043 0.81054,0.0436 1.27476,-1.34948 1.32941,-1.36851 0.93259,-0.32481 -0.38463,1.01168 -0.0885,0.81976 0.4837,-0.3135 2.29807,-4.55117 1.8935,-12.1463 -0.90102,-16.91478 -1.19827,-2.04469 -6.16636,-8.49589 -7.0785,-9.19161 -1.44904,-1.10524 -4.129262,-2.19612 -7.591981,-3.09002 -1.81901,-0.46957 -3.420401,-0.95346 -3.558646,-1.07531 -0.315724,-0.27826 3.252732,-0.26194 4.986753,0.0228 1.026182,0.16852 1.408799,0.12395 1.838792,-0.2142 1.753202,-1.37873 2.808092,-2.97663 3.497162,-5.29732 0.31279,-1.05344 1.70261,-9.85648 1.70261,-10.78425 0,-0.75749 -1.99051,-2.30507 -3.82336,-2.97257 -1.810999,-0.65955 -2.041977,-0.67846 -7.950602,-0.65087 -5.088811,0.0238 -9.448417,0.32422 -9.794571,0.67503 -0.04456,0.0452 -0.181362,0.97508 -0.303996,2.06649 -0.450988,4.01366 0.402992,8.50224 1.964732,10.32679 1.121363,1.31005 2.532489,2.03387 6.14946,3.15428 3.545464,1.09826 5.820833,1.94631 5.820833,2.16946 0,0.0963 -1.160859,0.24573 -2.579688,0.33205 -5.908984,0.35952 -8.712986,1.14266 -9.088152,2.53826 -0.2882,1.0721 -1.225452,2.9139 -2.490853,4.8948 -1.49656,2.34276 -3.582586,6.62783 -4.314886,8.86355 -1.604573,4.89877 -1.566849,9.9178 0.104913,13.9572 0.526875,1.27307 1.051578,2.3742 1.166008,2.44696 0.114429,0.0728 0.461904,0.67407 0.772165,1.33625 0.624771,1.33341 3.399115,4.28666 5.461246,5.81342 4.834364,3.57926 11.100557,4.82236 15.930431,3.16031 z m 7.50731,-0.52039 c 0.55328,0 0.76068,-0.12856 0.76068,-0.47151 0,-0.25933 0.16115,-1.09277 0.35812,-1.85208 0.39036,-1.50489 0.38671,-1.51462 -0.40771,-1.08946 -0.29918,0.16012 -1.0789,0.36848 -1.7327,0.46302 l -1.18874,0.1719 -0.0358,1.54138 -0.0358,1.54139 0.76068,-0.15232 c 0.41837,-0.0838 1.10298,-0.15232 1.52136,-0.15232 z m 13.13874,-2.52961 c 1.01391,-0.71017 1.38027,-1.78217 1.38027,-4.03877 0,-1.1532 -0.0729,-2.46143 -0.16209,-2.90718 -0.14274,-0.71371 -0.22119,-0.77355 -0.65718,-0.50127 -0.4003,0.24999 -0.58456,0.21879 -0.96239,-0.16296 -0.41558,-0.41989 -0.4183,-0.45365 -0.0246,-0.30503 0.29303,0.1106 0.54439,-0.0229 0.74339,-0.39468 0.27886,-0.52106 0.26163,-0.53741 -0.23769,-0.22558 -0.43604,0.27231 -0.60245,0.27163 -0.87568,-0.004 -0.27394,-0.27593 -0.25032,-0.30666 0.12569,-0.16351 0.52342,0.19927 0.60428,-0.18035 0.19951,-0.93666 -0.23216,-0.4338 -0.17382,-0.48102 0.49045,-0.39695 0.7519,0.0952 0.75337,0.0924 0.53961,-1.01159 -0.11788,-0.60886 -0.21952,-1.57999 -0.22586,-2.15807 -0.0114,-1.04323 -0.0147,-1.04652 -0.43824,-0.44183 -0.31792,0.45389 -0.58777,0.56881 -1.05834,0.4507 -0.51446,-0.12913 -0.6316,-0.0562 -0.6316,0.39308 0,0.30338 0.12536,0.81166 0.27857,1.12952 0.19485,0.40422 0.0783,0.34153 -0.38764,-0.20861 l -0.66622,-0.78652 0.55506,-0.59083 c 0.30528,-0.32496 0.68101,-0.56634 0.83495,-0.5364 0.38542,0.075 0.55629,-0.86475 0.21865,-1.2024 -0.18974,-0.18974 -0.25002,-0.11973 -0.19508,0.22654 0.0437,0.27563 0.0283,0.35231 -0.0342,0.17041 -0.19631,-0.57093 -0.82058,-0.36148 -1.28972,0.4327 l -0.45097,0.76343 -0.89572,-0.89572 c -0.99982,-0.99982 -1.39713,-1.1202 -1.42814,-0.43271 -0.0131,0.29106 -0.0716,0.33689 -0.15731,0.1234 -0.19036,-0.47393 0.40359,-1.11558 1.03265,-1.11558 0.38607,0 0.47925,-0.11942 0.35199,-0.45106 -0.0952,-0.24808 -0.24074,-0.94468 -0.32344,-1.54798 -0.13941,-1.01712 -0.20813,-1.09499 -0.94454,-1.0703 l -0.79419,0.0266 0.1824,2.73329 c 0.10032,1.50331 0.39372,3.40051 0.65199,4.216 0.41469,1.3094 0.50429,1.42288 0.76658,0.97088 0.36737,-0.63311 0.38341,-0.48898 0.068,0.61082 -0.16191,0.56454 -0.15187,0.9122 0.0296,1.02434 0.34451,0.21292 0.66673,-0.27747 1.01952,-1.55168 0.15109,-0.54571 0.35942,-0.98965 0.46295,-0.98654 0.36081,0.0108 1.69295,2.13646 1.78528,2.8487 0.39166,3.02096 0.43364,4.86179 0.1277,5.60038 -0.70654,1.70573 -2.17662,0.50249 -2.15177,-1.76121 0.0174,-1.58208 -0.20072,-2.72477 -0.52003,-2.72477 -0.13396,0 -0.24312,1.27992 -0.24257,2.84427 7.9e-4,2.43231 0.0823,2.97772 0.56266,3.76563 0.30891,0.50675 0.75495,1.06851 0.99119,1.24836 0.59586,0.45361 1.65459,0.42256 2.35655,-0.0691 z m -4.16787,-11.6256 c 0,-0.14552 0.11541,-0.44318 0.25648,-0.66146 0.14106,-0.21828 0.25647,-0.27781 0.25647,-0.13229 0,0.14552 -0.11541,0.44317 -0.25647,0.66146 -0.14107,0.21828 -0.25648,0.27781 -0.25648,0.13229 z m -0.22321,-1.58001 c -0.52574,-0.28993 -0.70853,-0.62726 -0.46945,-0.86635 0.0358,-0.0358 0.3443,0.23209 0.68553,0.59532 0.68884,0.73323 0.66843,0.75883 -0.21608,0.27103 z m 0.47969,4.62272 c 0,-0.14553 -0.0525,-0.26459 -0.11668,-0.26459 -0.0642,0 -0.19026,0.11906 -0.2802,0.26459 -0.0899,0.14552 -0.0374,0.26458 0.11668,0.26458 0.15411,0 0.2802,-0.11906 0.2802,-0.26458 z m 2.64583,-6.91003 c 0,-0.41559 0.75931,-0.24772 1.03714,0.2293 0.19633,0.33707 0.27187,-0.26037 0.27773,-2.19641 0.006,-2.07055 -0.13719,-3.15439 -0.64786,-4.89479 -0.36075,-1.22945 -0.65841,-2.47022 -0.66146,-2.75726 -0.005,-0.49186 -0.0293,-0.48805 -0.41743,0.0661 -0.22653,0.32342 -0.57697,0.58804 -0.77875,0.58804 -0.20178,0 -0.55221,0.26462 -0.77874,0.58804 -0.59219,0.84547 -0.50791,0.376 0.1163,-0.64779 0.2905,-0.47646 0.52862,-1.02504 0.52916,-1.21907 0.002,-0.61558 -0.64066,-0.17035 -1.20979,0.83849 l -0.54933,0.97374 -0.87022,-1.08288 c -1.2093,-1.50481 -1.71301,-0.98469 -0.57757,0.59638 l 0.82422,1.1477 -0.51558,1.32092 c -0.28356,0.72651 -0.52114,1.11817 -0.52795,0.87036 -0.007,-0.24782 0.1218,-0.74505 0.28579,-1.10497 0.3944,-0.8656 0.10674,-1.91793 -0.57286,-2.09564 -0.50901,-0.13312 -0.53404,-0.0608 -0.37835,1.09286 0.0917,0.67947 0.27157,1.59259 0.39972,2.02915 0.12815,0.43656 0.2078,1.03188 0.17702,1.32292 -0.0612,0.57818 0.62124,0.74646 0.80397,0.19825 0.0732,-0.21947 -0.0531,-0.27533 -0.37482,-0.16588 -0.3692,0.12559 -0.34472,0.0601 0.10243,-0.27397 0.32315,-0.24146 0.72815,-0.90827 0.89999,-1.48181 l 0.31243,-1.04281 1.01824,1.36475 c 1.07248,1.43744 1.39099,2.13204 0.46066,1.00459 l -0.54581,-0.66146 0.15336,0.66146 c 0.0844,0.3638 0.35255,1.68689 0.59602,2.9402 0.38311,1.97215 0.5079,2.26169 0.9275,2.15195 0.26666,-0.0697 0.48484,-0.23196 0.48484,-0.36051 z m -0.58804,-3.8206 c 0.32342,-0.22654 0.58049,-0.61349 0.57127,-0.8599 -0.0122,-0.32536 -0.0823,-0.28503 -0.25606,0.1473 -0.34856,0.86716 -0.52218,0.72851 -0.25487,-0.20355 0.12601,-0.43937 0.13072,-0.73805 0.0105,-0.66373 -0.12026,0.0743 -0.41602,-0.16612 -0.65727,-0.5343 -0.43414,-0.66259 -0.43241,-0.6662 0.1695,-0.35348 0.33447,0.17377 0.77876,0.3947 0.98731,0.49095 1.21608,0.56121 0.88528,2.38858 -0.43239,2.38858 h -0.726 l 0.58804,-0.41187 z m -1.56238,-3.49073 c -0.32911,-0.41964 -0.31975,-0.429 0.0999,-0.0999 0.44073,0.34564 0.58089,0.56292 0.36313,0.56292 -0.0549,0 -0.2633,-0.20836 -0.46302,-0.46302 z m -3.23538,-2.5795 c -0.0436,-0.7554 -0.43503,-0.91429 -0.43503,-0.17658 0,0.41483 0.20851,0.83785 0.41298,0.83785 0.0331,0 0.043,-0.29757 0.022,-0.66127 z m 0.0694,-1.16994 c 0.31511,-0.1995 0.31971,-0.48281 0.03,-1.84804 -0.34984,-1.64851 -0.42667,-1.75683 -0.99151,-1.398 -0.25356,0.16108 -0.25782,0.5662 -0.0195,1.84803 0.31811,1.7105 0.37016,1.78469 0.98096,1.39801 z m -0.75887,-5.06791 c 0.54737,-1.07293 0.60761,-1.85722 0.14312,-1.86325 -0.21758,-0.003 -1.21088,2.24638 -1.21142,2.7431 -5.3e-4,0.55344 0.58179,0.0738 1.0683,-0.87985 z m -0.68036,-2.09185 c -0.24361,-1.31587 -0.59199,-1.86366 -1.06885,-1.68067 -0.22443,0.0861 -0.35863,0.29005 -0.29824,0.45317 0.0604,0.16312 0.27064,0.93063 0.46721,1.70557 0.32335,1.27478 0.39136,1.36299 0.71391,0.92606 0.23192,-0.31419 0.29691,-0.80488 0.18597,-1.40413 z m -1.46721,-2.68942 c -0.35485,-0.66305 -0.61957,-0.46364 -0.38126,0.2872 0.0965,0.30412 0.28631,0.48446 0.42175,0.40076 0.14812,-0.0915 0.13198,-0.3657 -0.0405,-0.68796 z m -1.47529,-0.62274 c 0.52242,-0.21829 1.25133,-0.39688 1.61981,-0.39688 0.7301,0 0.84719,-0.2461 0.35245,-0.74083 -0.53392,-0.53392 -1.77315,-0.36757 -2.47265,0.33193 -0.35718,0.35719 -0.64943,0.77391 -0.64943,0.92604 0,0.35398 0.0197,0.35192 1.14982,-0.12026 z m -1.69784,-17.9291 c -0.36744,-1.28715 -1.06244,-2.0869 -2.64854,-3.04769 -3.04726,-1.8459 -6.740881,-2.4914 -14.530527,-2.53937 -6.13735,-0.0378 -7.945176,0.16935 -8.938322,1.02417 -0.395433,0.34036 -0.636002,0.70201 -0.534598,0.80366 0.101404,0.10166 1.82781,-0.0271 3.836458,-0.28621 2.008648,-0.25908 5.378493,-0.47723 7.488545,-0.48477 3.218688,-0.0115 4.173919,0.0827 5.932141,0.58489 2.455173,0.70129 6.712643,2.83464 8.223073,4.12045 0.58208,0.49552 1.13886,0.8515 1.23728,0.79107 0.0984,-0.0604 0.0689,-0.49522 -0.0655,-0.9662 z m 8.18719,25.02332 c -0.31615,-0.38866 -0.30606,-0.42505 0.078,-0.28129 0.7897,0.2956 0.78204,-0.60255 -0.0152,-1.78386 l -0.76772,-1.13755 1.16309,0.78498 c 0.89854,0.60641 1.16309,0.9492 1.16309,1.50704 0,1.2416 -0.92803,1.76289 -1.62125,0.91068 z m -5.97238,-11.19527 c 0,-0.80036 0.0496,-1.12778 0.11022,-0.7276 0.0606,0.40018 0.0606,1.05503 0,1.45521 -0.0606,0.40018 -0.11022,0.0728 -0.11022,-0.72761 z m 4.7446,-0.52916 c 0,-0.50933 0.0545,-0.71768 0.121,-0.46302 0.0666,0.25466 0.0666,0.67138 0,0.92604 -0.0665,0.25466 -0.121,0.0463 -0.121,-0.46302 z m 0.75325,0.11024 c 0.0127,-0.30822 0.0754,-0.37092 0.15985,-0.15985 0.0764,0.19099 0.067,0.4192 -0.0209,0.50712 -0.0879,0.0879 -0.15045,-0.0684 -0.13896,-0.34727 z m -1.3312,-3.56243 c -0.18079,-1.32292 -0.27485,-2.45918 -0.20902,-2.52501 0.0658,-0.0658 0.26761,0.9627 0.4484,2.28563 0.18079,1.32293 0.27484,2.45919 0.20901,2.52502 -0.0658,0.0658 -0.26761,-0.96271 -0.44839,-2.28564 z m -4.42853,0.67406 c 0.002,-0.87312 0.0509,-1.19841 0.10976,-0.72286 0.0589,0.47555 0.0577,1.18992 -0.003,1.5875 -0.0604,0.39757 -0.10855,0.008 -0.10707,-0.86464 z m 5.49515,1.03629 c 0.0127,-0.30823 0.0754,-0.37092 0.15985,-0.15985 0.0764,0.19099 0.067,0.4192 -0.0209,0.50711 -0.0879,0.0879 -0.15045,-0.0684 -0.13897,-0.34726 z m -0.26459,-1.85209 c 0.0127,-0.30822 0.0754,-0.37091 0.15986,-0.15985 0.0764,0.191 0.067,0.4192 -0.0209,0.50712 -0.0879,0.0879 -0.15046,-0.0684 -0.13897,-0.34727 z m -4.47703,-0.63941 c 0,-0.3638 0.0601,-0.51263 0.13346,-0.33072 0.0734,0.1819 0.0734,0.47955 0,0.66145 -0.0734,0.1819 -0.13346,0.0331 -0.13346,-0.33073 z m -1.01542,-1.85208 c 0,-0.94589 0.048,-1.33285 0.10672,-0.8599 0.0587,0.47295 0.0587,1.24685 0,1.7198 -0.0587,0.47294 -0.10672,0.086 -0.10672,-0.8599 z m 5.22787,0.90399 c 0.0127,-0.30822 0.0754,-0.37091 0.15985,-0.15985 0.0764,0.191 0.067,0.4192 -0.0209,0.50712 -0.0879,0.0879 -0.15045,-0.0684 -0.13896,-0.34727 z m -1.01784,-1.96233 c 0,-0.50933 0.0545,-0.71768 0.121,-0.46302 0.0666,0.25466 0.0666,0.67138 0,0.92605 -0.0665,0.25466 -0.121,0.0463 -0.121,-0.46303 z m -3.44938,-0.13229 c 0.005,-0.43657 0.0647,-0.58313 0.13177,-0.3257 0.0671,0.25743 0.0627,0.61462 -0.01,0.79375 -0.0725,0.17914 -0.12736,-0.0315 -0.12197,-0.46805 z m 4.20264,0.24253 c 0.0127,-0.30822 0.0754,-0.37092 0.15985,-0.15985 0.0764,0.19099 0.067,0.4192 -0.0209,0.50713 -0.0879,0.0879 -0.15045,-0.0684 -0.13897,-0.34728 z m -1.33121,-3.56243 c -0.18079,-1.32292 -0.27484,-2.45918 -0.20901,-2.52501 0.0658,-0.0658 0.26761,0.9627 0.4484,2.28563 0.18078,1.32293 0.27484,2.45919 0.20901,2.52502 -0.0658,0.0658 -0.26761,-0.96271 -0.4484,-2.28564 z m 1.06662,1.97493 c 0.0127,-0.30822 0.0754,-0.37092 0.15986,-0.15985 0.0764,0.19099 0.067,0.4192 -0.0209,0.50712 -0.0879,0.0879 -0.15046,-0.0683 -0.13897,-0.34727 z m -4.20264,-1.83003 c 0.005,-0.43657 0.0647,-0.58313 0.13178,-0.3257 0.0671,0.25743 0.0627,0.61462 -0.01,0.79375 -0.0725,0.17913 -0.12737,-0.0315 -0.12197,-0.46805 z m 3.93806,-0.022 c 0.0127,-0.30823 0.0754,-0.37092 0.15985,-0.15986 0.0764,0.191 0.067,0.4192 -0.0209,0.50712 -0.0879,0.0879 -0.15045,-0.0683 -0.13896,-0.34726 z m -0.2437,-1.69776 c 0,-0.3638 0.0601,-0.51263 0.13346,-0.33072 0.0734,0.1819 0.0734,0.47955 0,0.66145 -0.0734,0.1819 -0.13346,0.0331 -0.13346,-0.33073 z m -3.94914,-1.32291 c 0,-0.50933 0.0545,-0.71768 0.121,-0.46302 0.0666,0.25466 0.0666,0.67138 0,0.92604 -0.0665,0.25466 -0.121,0.0463 -0.121,-0.46302 z m 2.46584,-3.32098 c -0.25578,-1.83001 -0.41168,-3.38067 -0.34645,-3.4459 0.0652,-0.0652 0.32788,1.37867 0.58367,3.20869 0.25578,1.83001 0.41169,3.38067 0.34646,3.4459 -0.0652,0.0652 -0.32789,-1.37868 -0.58368,-3.20869 z m 1.19783,2.90205 c 0.0127,-0.30822 0.0754,-0.37091 0.15986,-0.15985 0.0764,0.191 0.067,0.4192 -0.0209,0.50712 -0.0879,0.0879 -0.15046,-0.0684 -0.13897,-0.34727 z m -0.26458,-1.85208 c 0.0127,-0.30822 0.0754,-0.37092 0.15985,-0.15985 0.0764,0.19099 0.067,0.4192 -0.0209,0.50712 -0.0879,0.0879 -0.15045,-0.0684 -0.13896,-0.34727 z m -3.65833,-0.7717 c 0.003,-0.58208 0.0571,-0.78905 0.1204,-0.45994 0.0633,0.32912 0.0609,0.80537 -0.005,1.05834 -0.0662,0.25296 -0.118,-0.0163 -0.11506,-0.5984 z m 3.41463,-0.92604 c 0,-0.3638 0.0601,-0.51263 0.13346,-0.33073 0.0734,0.1819 0.0734,0.47956 0,0.66146 -0.0734,0.1819 -0.13346,0.0331 -0.13346,-0.33073 z m -3.67388,-2.38125 c 0,-0.65485 0.0516,-0.92274 0.11467,-0.59532 0.0631,0.32743 0.0631,0.86321 0,1.19063 -0.0631,0.32742 -0.11467,0.0595 -0.11467,-0.59531 z m 3.4093,0.52916 c 0,-0.3638 0.0601,-0.51263 0.13345,-0.33073 0.0734,0.18191 0.0734,0.47956 0,0.66146 -0.0734,0.1819 -0.13345,0.0331 -0.13345,-0.33073 z m -0.26458,-1.5875 c 0,-0.3638 0.06,-0.51263 0.13345,-0.33073 0.0734,0.18191 0.0734,0.47956 0,0.66146 -0.0734,0.1819 -0.13345,0.0331 -0.13345,-0.33073 z m -1.08751,-2.12927 c -0.18079,-1.32293 -0.27484,-2.45919 -0.20901,-2.52502 0.0658,-0.0658 0.26761,0.9627 0.44839,2.28563 0.18079,1.32294 0.27484,2.4592 0.20901,2.52503 -0.0658,0.0658 -0.2676,-0.9627 -0.44839,-2.28564 z m -13.983943,1.46782 c 0.0054,-0.43657 0.06469,-0.58313 0.131773,-0.3257 0.06708,0.25743 0.06267,0.61462 -0.0098,0.79375 -0.07248,0.17913 -0.127362,-0.0315 -0.12197,-0.46805 z m 11.665763,-1.32293 c 0.002,-0.72761 0.0534,-0.99386 0.11419,-0.59168 0.0608,0.40219 0.0592,0.99751 -0.004,1.32293 -0.0628,0.32542 -0.11256,-0.004 -0.11058,-0.73125 z m -10.597627,0.13229 c 0,-0.50932 0.05445,-0.71768 0.121002,-0.46302 0.06655,0.25466 0.06655,0.67139 0,0.92605 -0.06655,0.25466 -0.121002,0.0463 -0.121002,-0.46303 z m 4.534417,-2.11667 c 0,-1.52796 0.0437,-2.15304 0.0972,-1.38906 0.0534,0.76399 0.0534,2.01414 0,2.77813 -0.0534,0.76398 -0.0972,0.1389 -0.0972,-1.38907 z m 9.20431,2.11667 c 0,-0.3638 0.0601,-0.51263 0.13346,-0.33073 0.0734,0.1819 0.0734,0.47957 0,0.66147 -0.0734,0.1819 -0.13346,0.0331 -0.13346,-0.33074 z m -14.54228,-0.66146 c 0.0054,-0.43656 0.06469,-0.58312 0.131773,-0.32569 0.06708,0.25743 0.06267,0.61462 -0.0098,0.79375 -0.07248,0.17913 -0.127362,-0.0315 -0.12197,-0.46806 z m 1.068137,-1.19062 c 0,-0.50933 0.05445,-0.71768 0.121001,-0.46302 0.06655,0.25466 0.06655,0.67138 0,0.92604 -0.06655,0.25466 -0.121001,0.0463 -0.121001,-0.46302 z m 3.425893,-0.29975 c -0.0262,-0.67419 0.25712,-7.758405 0.62967,-15.742705 0.37254,-7.98431 0.61447,-15.171759 0.53761,-15.972123 -0.0795,-0.828364 0.0731,-2.879854 0.35435,-4.7625 0.27175,-1.819011 0.50608,-3.146682 0.52072,-2.950382 0.0284,0.38131 -1.74828,37.10649 -1.90277,39.33058 l -0.0919,1.32292 z m 9.78367,0.29975 c 0,-0.3638 0.0601,-0.51263 0.13345,-0.33073 0.0734,0.1819 0.0734,0.47956 0,0.66146 -0.0734,0.1819 -0.13345,0.0331 -0.13345,-0.33073 z m -14.013116,-0.92604 c 0.0054,-0.43657 0.06469,-0.58313 0.131773,-0.3257 0.06708,0.25743 0.06267,0.61462 -0.0098,0.79375 -0.07248,0.17913 -0.127363,-0.0315 -0.121971,-0.46805 z m 10.868406,-0.39688 c 0,-0.65484 0.0516,-0.92273 0.11466,-0.59531 0.0631,0.32742 0.0631,0.8632 0,1.19062 -0.0631,0.32742 -0.11466,0.0595 -0.11466,-0.59531 z m 2.88013,-0.26458 c 0,-0.3638 0.0601,-0.51263 0.13345,-0.33073 0.0734,0.1819 0.0734,0.47956 0,0.66146 -0.0734,0.1819 -0.13345,0.0331 -0.13345,-0.33073 z m -12.6902,-0.39688 c 0.005,-0.43656 0.0647,-0.58312 0.13177,-0.32569 0.0671,0.25743 0.0627,0.61462 -0.01,0.79375 -0.0725,0.17913 -0.12736,-0.0315 -0.12197,-0.46806 z m 10.17621,-11.390365 c -0.99474,-6.68665 -1.90368,-12.693327 -2.01986,-13.348167 l -0.21125,-1.190624 -0.0615,1.455204 c -0.0366,0.86598 -0.24756,-0.5803 -0.52097,-3.571871 -0.2527,-2.764896 -0.53443,-5.80099 -0.62609,-6.746875 -0.23778,-2.454038 -0.005,-1.662543 0.46614,1.5875 0.22167,1.527969 1.42166,9.623866 2.66664,17.990873 1.24497,8.36702 2.23028,15.385725 2.18957,15.597125 -0.0407,0.21141 -0.88791,-5.086515 -1.88265,-11.773165 z M 99.252327,100.52573 c 0.0054,-0.43656 0.06469,-0.583115 0.131773,-0.32569 0.06708,0.25743 0.06267,0.61462 -0.0098,0.79375 -0.07248,0.17913 -0.127362,-0.0315 -0.12197,-0.46806 z m 13.219363,-0.661455 c 0,-0.3638 0.06,-0.51263 0.13346,-0.33073 0.0734,0.18191 0.0734,0.479555 0,0.661455 -0.0734,0.1819 -0.13346,0.0331 -0.13346,-0.330725 z m -12.15123,-0.52916 c 0,-0.50933 0.0545,-0.71769 0.121,-0.46302 0.0665,0.25466 0.0665,0.67138 0,0.92604 -0.0666,0.254655 -0.121,0.0463 -0.121,-0.46302 z m 9.2711,-0.52917 c 0,-0.65484 0.0516,-0.92273 0.11467,-0.59531 0.0631,0.32742 0.0631,0.8632 0,1.19062 -0.0631,0.32742 -0.11467,0.0595 -0.11467,-0.59531 z m -5.2671,-1.71979 c 8e-4,-1.45521 0.0451,-2.01677 0.0987,-1.2479 0.0536,0.76886 0.053,1.95949 -0.001,2.64583 -0.0542,0.68635 -0.0981,0.0573 -0.0974,-1.39793 z m -4.797747,1.45521 c 0,-0.50933 0.05445,-0.71769 0.121002,-0.46302 0.06655,0.25466 0.06655,0.67138 0,0.92604 -0.06655,0.25466 -0.121002,0.0463 -0.121002,-0.46302 z m 12.680397,-0.26459 c 0,-0.3638 0.0601,-0.51263 0.13345,-0.33073 0.0734,0.18191 0.0734,0.47956 0,0.66146 -0.0734,0.1819 -0.13345,0.0331 -0.13345,-0.33073 z m -11.62206,-0.79375 c 0,-0.50932 0.0545,-0.71768 0.121,-0.46302 0.0665,0.25466 0.0665,0.67138 0,0.92604 -0.0666,0.25467 -0.121,0.0463 -0.121,-0.46302 z m -0.793753,-0.79375 c 0,-0.50932 0.05445,-0.71768 0.121001,-0.46302 0.06655,0.25466 0.06655,0.67138 0,0.92604 -0.06655,0.25467 -0.121001,0.0463 -0.121001,-0.46302 z m 9.539293,-0.92604 c 0.002,-0.7276 0.0534,-0.99385 0.11419,-0.59167 0.0608,0.40218 0.0592,0.99749 -0.004,1.32291 -0.0628,0.32543 -0.11256,-0.004 -0.11058,-0.73124 z m 2.61194,0.66146 c 0,-0.3638 0.0601,-0.51263 0.13345,-0.33073 0.0734,0.1819 0.0734,0.47956 0,0.66146 -0.0734,0.1819 -0.13345,0.0331 -0.13345,-0.33073 z m -11.0929,-1.05833 c 0,-0.50933 0.0544,-0.71769 0.121,-0.46302 0.0666,0.25466 0.0666,0.67138 0,0.92604 -0.0666,0.25466 -0.121,0.0463 -0.121,-0.46302 z m -0.79375,-0.52917 c 0,-0.50932 0.0545,-0.71768 0.121,-0.46302 0.0666,0.25466 0.0666,0.67138 0,0.92604 -0.0665,0.25466 -0.121,0.0463 -0.121,-0.46302 z m 11.62206,-0.26458 c 0,-0.3638 0.0601,-0.51263 0.13346,-0.33073 0.0734,0.1819 0.0734,0.47956 0,0.66146 -0.0734,0.1819 -0.13346,0.0331 -0.13346,-0.33073 z m -10.56373,-1.05834 c 0,-0.50932 0.0545,-0.71768 0.121,-0.46302 0.0666,0.25466 0.0666,0.67138 0,0.92604 -0.0665,0.25467 -0.121,0.0463 -0.121,-0.46302 z m 7.95541,-1.05833 c 0,-0.80036 0.0496,-1.12779 0.11022,-0.7276 0.0606,0.40018 0.0606,1.05502 0,1.4552 -0.0606,0.40019 -0.11022,0.0728 -0.11022,-0.7276 z m -8.74916,0.26458 c 0,-0.50932 0.0545,-0.71768 0.121,-0.46302 0.0665,0.25466 0.0665,0.67138 0,0.92604 -0.0666,0.25467 -0.121,0.0463 -0.121,-0.46302 z m 4.26859,-1.71979 c 7.9e-4,-1.45521 0.0451,-2.01676 0.0987,-1.2479 0.0536,0.76886 0.053,1.95949 -0.001,2.64583 -0.0543,0.68635 -0.0982,0.0573 -0.0975,-1.39793 z m 6.82431,1.98438 c 0,-0.3638 0.0601,-0.51263 0.13345,-0.33073 0.0734,0.1819 0.0734,0.47956 0,0.66146 -0.0734,0.1819 -0.13345,0.0331 -0.13345,-0.33073 z m -10.03456,-1.32292 c 0,-0.50932 0.0545,-0.71768 0.121,-0.46302 0.0666,0.25466 0.0666,0.67138 0,0.92604 -0.0665,0.25466 -0.121,0.0463 -0.121,-0.46302 z m -0.79375,-0.79375 c 0,-0.50932 0.0545,-0.71768 0.121,-0.46302 0.0665,0.25466 0.0665,0.67138 0,0.92604 -0.0666,0.25466 -0.121,0.0463 -0.121,-0.46302 z m 10.56373,0.26458 c 0,-0.3638 0.0601,-0.51263 0.13345,-0.33073 0.0734,0.18191 0.0734,0.47956 0,0.66146 -0.0734,0.1819 -0.13345,0.0331 -0.13345,-0.33073 z m -2.34735,-1.71979 c 0.002,-0.7276 0.0534,-0.99385 0.11418,-0.59167 0.0608,0.40218 0.0592,0.99749 -0.004,1.32291 -0.0628,0.32543 -0.11256,-0.004 -0.11057,-0.73124 z m -7.15805,0.13229 c 0,-0.50932 0.0545,-0.71768 0.121,-0.46302 0.0665,0.25466 0.0665,0.67138 0,0.92604 -0.0666,0.25467 -0.121,0.0463 -0.121,-0.46302 z m -0.79375,-0.52916 c 0,-0.50933 0.0544,-0.71769 0.121,-0.46302 0.0666,0.25466 0.0666,0.67138 0,0.92604 -0.0666,0.25466 -0.121,0.0463 -0.121,-0.46302 z m 10.03456,0.26458 c 0,-0.3638 0.0601,-0.51263 0.13346,-0.33073 0.0734,0.1819 0.0734,0.47956 0,0.66146 -0.0734,0.1819 -0.13346,0.0331 -0.13346,-0.33073 z m -8.97623,-1.5875 c 0,-0.50932 0.0545,-0.71768 0.121,-0.46302 0.0666,0.25466 0.0666,0.67138 0,0.92604 -0.0665,0.25466 -0.121,0.0463 -0.121,-0.46302 z m 8.71165,0 c 0,-0.3638 0.0601,-0.51263 0.13345,-0.33073 0.0734,0.1819 0.0734,0.47956 0,0.66146 -0.0734,0.1819 -0.13345,0.0331 -0.13345,-0.33073 z m -9.51405,-0.39687 c -0.007,-0.43657 0.0818,-1.32954 0.19835,-1.98438 0.15626,-0.87822 0.2154,-0.98236 0.22536,-0.39687 0.007,0.43656 -0.0818,1.32953 -0.19835,1.98437 -0.15627,0.87822 -0.2154,0.98236 -0.22536,0.39688 z m 7.43489,-0.92605 c 0,-0.80036 0.0496,-1.12778 0.11023,-0.7276 0.0606,0.40018 0.0606,1.05503 0,1.45521 -0.0606,0.40018 -0.11023,0.0728 -0.11023,-0.72761 z m -3.68682,-1.4552 c 7.9e-4,-1.45521 0.0451,-2.01677 0.0987,-1.24791 0.0536,0.76887 0.053,1.95949 -0.001,2.64584 -0.0543,0.68634 -0.0982,0.0573 -0.0975,-1.39793 z m -2.67574,0.79375 c 0.003,-0.58209 0.0571,-0.78906 0.1204,-0.45994 0.0633,0.32912 0.0609,0.80537 -0.005,1.05833 -0.0662,0.25297 -0.118,-0.0163 -0.11507,-0.59839 z m 8.17714,0.13229 c 0,-0.36381 0.0601,-0.51263 0.13345,-0.33073 0.0734,0.1819 0.0734,0.47956 0,0.66146 -0.0734,0.1819 -0.13345,0.0331 -0.13345,-0.33073 z m -0.25478,-1.71979 c 0.005,-0.43657 0.0647,-0.58313 0.13177,-0.3257 0.0671,0.25743 0.0627,0.61462 -0.01,0.79375 -0.0725,0.17913 -0.12736,-0.0315 -0.12197,-0.46805 z m -7.66312,-0.39688 c 0,-0.50932 0.0545,-0.71768 0.121,-0.46302 0.0665,0.25466 0.0665,0.67138 0,0.92604 -0.0666,0.25466 -0.121,0.0463 -0.121,-0.46302 z m 5.83874,-0.52917 c 0,-0.80036 0.0496,-1.12778 0.11022,-0.7276 0.0606,0.40018 0.0606,1.05503 0,1.45521 -0.0606,0.40018 -0.11022,0.0728 -0.11022,-0.72761 z m -6.63249,0 c 0,-0.50932 0.0545,-0.71768 0.121,-0.46302 0.0665,0.25466 0.0665,0.67138 0,0.92604 -0.0666,0.25467 -0.121,0.0463 -0.121,-0.46302 z m 8.18248,-0.79375 c 0,-0.3638 0.0601,-0.51263 0.13345,-0.33073 0.0734,0.18191 0.0734,0.47956 0,0.66146 -0.0734,0.1819 -0.13345,0.0331 -0.13345,-0.33073 z m -7.12415,-0.52916 c 0,-0.50933 0.0544,-0.71769 0.121,-0.46302 0.0665,0.25466 0.0665,0.67138 0,0.92604 -0.0666,0.25466 -0.121,0.0463 -0.121,-0.46302 z m -8.367448,0.11065 c -0.08833,-0.23018 -0.160599,-0.66966 -0.160599,-0.97661 0,-0.5061 0.03082,-0.51687 0.330729,-0.11559 0.349745,0.46795 0.812339,0.31952 1.063918,-0.34137 0.08309,-0.21828 0.160476,0.10914 0.171964,0.7276 0.01887,1.01547 -0.04049,1.12448 -0.612262,1.12448 -0.348234,0 -0.705421,-0.18833 -0.79375,-0.41851 z m 7.565048,-0.50753 c -0.007,-0.43656 0.0818,-1.32953 0.19835,-1.98437 0.15626,-0.87822 0.2154,-0.982357 0.22536,-0.39688 0.007,0.43656 -0.0818,1.32953 -0.19835,1.98438 -0.15627,0.87822 -0.2154,0.98235 -0.22536,0.39687 z m 3.21765,-2.51354 c 0,-1.382447 0.0446,-1.947987 0.0991,-1.256767 0.0545,0.69122 0.0545,1.822317 0,2.513537 -0.0545,0.69122 -0.0991,0.12568 -0.0991,-1.25677 z m 2.89433,1.05833 c 0,-0.80036 0.0496,-1.12778 0.11022,-0.7276 0.0606,0.40018 0.0606,1.05503 0,1.45521 -0.0606,0.40018 -0.11022,0.0728 -0.11022,-0.72761 z m 1.54999,0.52917 c 0,-0.3638 0.06,-0.51263 0.13345,-0.33073 0.0734,0.1819 0.0734,0.47956 0,0.66146 -0.0734,0.1819 -0.13345,0.0331 -0.13345,-0.33073 z m -6.58964,-0.66146 c 0.003,-0.58208 0.0571,-0.78905 0.1204,-0.45993 0.0633,0.32911 0.0609,0.80536 -0.005,1.05833 -0.0662,0.25296 -0.118,-0.0163 -0.11507,-0.5984 z m 13.35542,-0.94082 c -1.31823,-0.873157 -2.76821,-2.514817 -3.63373,-4.114087 -0.30674,-0.566777 -0.40219,-0.809616 -0.21212,-0.539642 1.43352,2.036162 2.8841,3.827732 3.19615,3.947472 0.48876,0.18756 1.26602,-0.31759 0.78745,-0.51178 -0.1819,-0.0738 -0.33072,-0.26179 -0.33072,-0.41774 0,-0.15594 0.20857,-0.0948 0.4635,0.13593 0.25493,0.23071 0.7955,0.54569 1.20127,0.69996 0.62686,0.23833 0.69618,0.35822 0.46112,0.797437 -0.4489,0.83876 -0.6699,0.83904 -1.93292,0.002 z m -21.624231,0.37403 c 0,-0.14196 0.185161,-0.48923 0.411472,-0.7717 0.387977,-0.484267 0.393486,-0.475827 0.09645,0.14787 -0.385712,0.80989 -0.507923,0.96 -0.507922,0.62383 z m 14.603671,-0.49154 c 0.005,-0.436557 0.0647,-0.583127 0.13177,-0.325697 0.0671,0.257437 0.0627,0.614617 -0.01,0.793747 -0.0725,0.17914 -0.12736,-0.0315 -0.12197,-0.46805 z m -6.07562,-0.926037 c 0,-0.50933 0.0545,-0.71769 0.121,-0.46302 0.0666,0.25466 0.0666,0.67138 0,0.92604 -0.0665,0.254657 -0.121,0.0463 -0.121,-0.46302 z m 5.80123,-0.79375 c 0,-0.36381 0.0601,-0.51263 0.13345,-0.33073 0.0734,0.1819 0.0734,0.47955 0,0.66146 -0.0734,0.1819 -0.13345,0.0331 -0.13345,-0.33073 z m -12.609459,-0.52921 c 0.26339,-0.29104 0.538422,-0.52917 0.611182,-0.52917 0.07276,0 -0.08321,0.23813 -0.346599,0.52917 -0.26339,0.29104 -0.538421,0.52917 -0.611182,0.52917 -0.07276,0 0.08321,-0.23813 0.346599,-0.52917 z m 7.078179,-0.66146 c 0.003,-0.582081 0.0571,-0.789051 0.12041,-0.459934 0.0633,0.329114 0.0609,0.805364 -0.005,1.058334 -0.0662,0.25296 -0.11801,-0.0163 -0.11507,-0.5984 z m -4.82922,-0.661456 c 0.461018,-0.582083 0.897747,-1.058333 0.970507,-1.058333 0.07276,0 -0.244906,0.47625 -0.705924,1.058333 -0.461018,0.582086 -0.897747,1.058336 -0.970508,1.058336 -0.07276,0 0.244907,-0.47625 0.705925,-1.058336 z m 10.10575,0.132292 c 0.005,-0.436563 0.0647,-0.583126 0.13178,-0.325695 0.0671,0.257432 0.0627,0.614619 -0.01,0.793749 -0.0725,0.17913 -0.12737,-0.0315 -0.12197,-0.468054 z m -3.39578,-2.513542 c 0,-1.382448 0.0446,-1.947995 0.0991,-1.256771 0.0545,0.691224 0.0545,1.822318 0,2.513542 -0.0545,0.691224 -0.0991,0.125677 -0.0991,-1.256771 z m -1.6215,1.058333 c 0,-0.509323 0.0545,-0.717682 0.121,-0.463021 0.0666,0.254662 0.0666,0.671381 0,0.926042 -0.0665,0.254661 -0.121,0.0463 -0.121,-0.463021 z m 4.74289,-0.264583 c 0,-0.363802 0.0601,-0.51263 0.13346,-0.330729 0.0734,0.181901 0.0734,0.479557 0,0.661458 -0.0734,0.181901 -0.13346,0.03307 -0.13346,-0.330729 z M 104.01486,71.9507 c 0.005,-0.436562 0.0647,-0.583125 0.13177,-0.325693 0.0671,0.25743 0.0627,0.614618 -0.01,0.79375 -0.0725,0.179131 -0.12735,-0.03149 -0.12196,-0.468057 z m 4.23334,0 c 0.005,-0.436562 0.0647,-0.583125 0.13177,-0.325693 0.0671,0.25743 0.0627,0.614618 -0.01,0.79375 -0.0725,0.179131 -0.12735,-0.03149 -0.12196,-0.468057 z M 93.075092,70.755337 c -1.227005,-0.648247 -2.03463,-1.951146 -2.230871,-3.59894 -0.107709,-0.90442 -0.07402,-1.177344 0.11248,-0.911252 0.390215,0.556738 1.00268,-0.041 1.21799,-1.188696 0.188148,-1.002916 1.31439,-2.437715 2.625236,-3.344477 0.568052,-0.392941 0.443841,-0.204305 -0.394631,0.599316 -0.672984,0.64501 -1.413719,1.5472 -1.646079,2.004867 -1.450319,2.856621 -0.210952,5.632994 2.525816,5.658216 0.72123,0.0066 0.792525,0.05494 0.410014,0.27773 -1.226905,0.714607 0.148312,0.981374 2.050521,0.397763 0.291041,-0.08929 0.171979,0.01266 -0.264584,0.226579 -1.125082,0.551282 -3.243405,0.493055 -4.405892,-0.121106 z m 14.908518,-0.65672 c 0.005,-0.436563 0.0647,-0.583125 0.13178,-0.325694 0.0671,0.257431 0.0627,0.614619 -0.01,0.79375 -0.0725,0.179132 -0.12735,-0.03149 -0.12196,-0.468056 z m 1.96548,-0.803979 c -0.25531,-0.665346 -0.17999,-0.837024 0.13191,-0.300656 0.15443,0.265576 0.22505,0.538602 0.15693,0.606724 -0.0681,0.06812 -0.1981,-0.06961 -0.28884,-0.306068 z m -2.23987,-0.915813 c 0,-0.363802 0.0601,-0.51263 0.13346,-0.330729 0.0734,0.181901 0.0734,0.479557 0,0.661458 -0.0734,0.181901 -0.13346,0.03307 -0.13346,-0.330729 z m 2.38246,-0.143623 c -0.44331,-0.972951 -0.35873,-1.180516 0.12061,-0.296006 0.22384,0.413047 0.35748,0.800503 0.29697,0.861013 -0.0605,0.06051 -0.24842,-0.193743 -0.41758,-0.565007 z m 4.29478,-0.980856 c -0.81094,-0.634649 -1.95322,-1.871703 -2.81624,-3.049909 -0.29023,-0.396222 0.0895,-0.0387 0.84374,0.794497 0.75428,0.833196 1.75106,1.814141 2.21506,2.179879 0.464,0.365737 0.7704,0.666298 0.68088,0.667911 -0.0895,0.0016 -0.50506,-0.264956 -0.92344,-0.592378 z m 2.14453,0.06615 c -0.40002,-0.442022 -0.41233,-0.529167 -0.0747,-0.529167 0.63829,0 2.56934,-2.275997 3.31742,-3.910014 0.37496,-0.819035 0.73669,-2.060955 0.80385,-2.759824 0.12048,-1.253919 0.12837,-1.263434 0.59812,-0.721803 l 0.47603,0.548866 0.11198,-0.7458 c 0.0858,-0.571738 0.12123,-0.494566 0.15162,0.330657 0.0873,2.371433 -1.37764,5.531705 -3.41932,7.376244 -1.20937,1.092594 -1.32596,1.116969 -1.96499,0.410841 z m -9.07654,-0.661459 c 0.005,-0.436562 0.0647,-0.583124 0.13177,-0.325693 0.0671,0.257431 0.0627,0.614618 -0.01,0.79375 -0.0725,0.179131 -0.12735,-0.03149 -0.12196,-0.468057 z m 6.14099,-1.25677 -0.50403,-0.595313 0.59531,0.504028 c 0.55945,0.473662 0.71576,0.686597 0.50403,0.686597 -0.0502,0 -0.3181,-0.267891 -0.59531,-0.595312 z m -6.41538,-0.463021 c 0,-0.363802 0.0601,-0.512631 0.13345,-0.330729 0.0734,0.181901 0.0734,0.479557 0,0.661458 -0.0734,0.181901 -0.13345,0.03307 -0.13345,-0.330729 z m 3.24038,-2.182813 -0.50403,-0.595312 0.59531,0.504028 c 0.32742,0.277215 0.59531,0.545106 0.59531,0.595312 0,0.211734 -0.21293,0.05542 -0.68659,-0.504028 z m -18.098831,-0.01665 c 0,-0.04553 0.386953,-0.432487 0.859896,-0.859895 l 0.859896,-0.777106 -0.777105,0.859896 c -0.724371,0.801543 -0.942687,0.981512 -0.942687,0.777105 z m 2.839861,-2.331291 c 0.179477,-0.180821 0.392969,-0.262115 0.474432,-0.180653 0.08146,0.08146 -0.06538,0.229406 -0.326319,0.328766 -0.377084,0.143585 -0.407474,0.113194 -0.148113,-0.148113 z"
       id="path2091-7" /></g></svg>
